<svg width="1440" height="3055" viewBox="0 0 1440 3055" fill="none" xmlns="http://www.w3.org/2000/svg">
<mask id="mask0_458_301" style="mask-type:luminance" maskUnits="userSpaceOnUse" x="0" y="0" width="1440" height="3055">
<path d="M-0.000133519 3054.57L0 0L1440 6.29444e-05L1440 3054.57L-0.000133519 3054.57Z" fill="white"/>
</mask>
<g mask="url(#mask0_458_301)">
<path d="M1031.87 2395.38C1098.57 2349.2 1117.2 2354.87 1172.02 2418.65C1196.44 2447.06 1229.3 2474.51 1263.84 2486.57C1335.74 2511.66 1393.13 2460.68 1401.51 2372.35C1403.25 2354.05 1400.1 2334.88 1404.33 2317.36C1408.28 2301.11 1416.1 2283 1428.18 2272.69C1434.25 2267.49 1453.52 2277.7 1467.04 2281.01C1455.85 2262.5 1458.38 2225.14 1413.39 2243.58C1407.16 2246.13 1392.43 2234.37 1384.93 2226.2C1361.73 2200.93 1341.48 2172.88 1317.57 2148.36C1282.7 2112.58 1242.57 2087.84 1189.58 2107.23C1137 2126.48 1116.94 2169.44 1109.27 2220.7C1107.1 2235.25 1106.13 2249.99 1104.39 2264.62C1098.51 2314.07 1076.89 2335.94 1027.4 2342.67C989.372 2347.84 975.949 2333.34 981.277 2289.25L1021.28 2307.31C1024.28 2265.96 1026.93 2229.13 1029.63 2192.31C1029.88 2188.88 1029.35 2183.07 1030.89 2182.42C1051.51 2173.69 1048.91 2157.62 1036.07 2148.6C1025.51 2141.19 1008.25 2141.5 993.975 2141.54C957.263 2141.67 938.79 2162.03 938.437 2184.94C918.725 2202.12 902.915 2210.15 896.425 2222.93C886.851 2241.75 879.951 2242.95 863.803 2230.93C843.352 2215.72 788.496 2228.68 789.343 2248.7C790.378 2272.86 801.077 2297.04 810.114 2320.24C815.691 2334.56 828.94 2346.1 833.482 2360.54C841.526 2386.03 832.381 2398.36 803.43 2390.82C791.616 2387.73 778.678 2388.98 771.081 2388.54C771.081 2418.19 768.907 2442.87 771.702 2466.98C774.404 2490.31 792.671 2502.22 814.331 2495.77C854.163 2483.91 852.285 2506.12 853.49 2534.01C855.067 2570.53 861.939 2606.81 867.45 2650.49C951.493 2627.16 981.352 2584.16 949.709 2499.2L995.199 2539.57L986.995 2543.1C994.474 2562.65 1000.98 2582.68 1010.13 2601.41C1012.4 2606.06 1026.54 2610.71 1029.59 2608.28C1061.04 2583.24 1092.66 2605.23 1124.2 2605.36C1162.71 2605.5 1204.1 2569.11 1202.64 2539.68C1202.2 2530.82 1192.26 2514.34 1189.51 2514.91C1156.75 2521.78 1149.4 2494.87 1135.15 2476.9C1130.72 2471.31 1125.97 2464.22 1119.86 2462.06C1100.74 2455.3 1080.89 2450.56 1057 2443.82L1045.6 2472.76C1012.32 2463.47 1008.93 2442.85 1032.1 2394.89C1022.69 2417.23 1013.44 2439.39 1003.01 2464.34L961.998 2464.34C969.27 2419.78 991.26 2398.52 1031.87 2395.38ZM1030.31 2360.49L1032.76 2374.08C1007.91 2378.91 989.89 2415.78 948.33 2378.52L1030.31 2360.49Z" fill="#D9FCCA"/>
<path d="M414.64 2870.52C380.432 2769.06 407.528 2658.31 323.368 2569.48L310.768 2747L300.573 2746.32C297.142 2693.39 292.53 2640.49 290.864 2587.5C290.186 2565.96 281.822 2556.37 262.915 2547.13C223.459 2527.83 183.542 2507.8 148.317 2481.95C98.3603 2445.27 55.9672 2401.68 88.5657 2329.15C2.4334 2433.25 4.75376 2542.22 71.8287 2663.49C48.8648 2647.68 34.4011 2637.72 18.9585 2627.1C21.7542 2689.11 55.9012 2730.61 176.162 2816.78L106.795 2816.78C183.909 2863.28 260.096 2885.05 343.324 2890.93C254.533 2820.69 162.046 2753.55 164.113 2622.27C207.16 2743.08 280.617 2832.35 414.64 2870.52Z" fill="#D9FCCA"/>
<path d="M660.413 2376.28C726.485 2332.1 739.179 2273.01 691.571 2213.11C665.266 2180.01 633.401 2149.5 598.883 2125.16C533.836 2079.28 477.893 2098.14 445.882 2171.24C443.957 2175.64 441.228 2179.68 437.881 2185.63C411.006 2178.22 384.813 2167.67 357.731 2164.3C315.418 2159.04 284.17 2190.32 293.57 2226.83C296.177 2236.95 309.638 2244.28 318.12 2252.89C320.972 2242.45 323.965 2232.05 326.634 2221.57C329.067 2212 330.687 2194.27 333.459 2194.11C346.59 2193.36 365.111 2192.74 372.312 2200.65C391.026 2221.18 404.788 2246.22 418.984 2267.12C402.981 2287.68 383.109 2304.26 375.188 2325.34C359.275 2367.7 374.294 2408.88 420.683 2428.81C471.266 2450.55 526.522 2467.17 581.058 2472.45C644.824 2478.63 670.824 2441.66 660.413 2376.28Z" fill="#D9FCCA"/>
<path d="M28.1597 1900.32C32.3957 1918.16 43.2211 1944.16 43.2917 1970.18C43.3529 1993.76 31.6567 2017.37 27.9385 2044.13C48.7514 2010.71 73.4709 2001.67 111.059 2013.64C126.275 2018.48 160.479 2022.81 159.481 1984.85C219.627 1950.5 258.048 1884.2 330.366 1867.82C375.249 1857.66 410.112 1835.81 421.761 1788.46C433.758 1739.73 417.308 1699.73 381.354 1665.99C320.586 1608.96 246.004 1603.76 178.002 1654.28C108.813 1705.7 75.669 1780.42 48.8409 1858.99C44.6661 1871.19 37.3047 1882.29 28.1597 1900.32Z" fill="#D9FCCA"/>
<path d="M1098.77 2787.33C957.179 2914.13 881.128 2960.72 816.599 2956.62C925.696 2915.95 1014.77 2857.26 1079.95 2765.02C925.568 2679.74 759.71 2818.68 699.982 3001.88C784.42 3015.62 867.869 3017.84 950.029 2990.65C1046.11 2958.84 1094.16 2894.02 1098.77 2787.33Z" fill="#D9FCCA"/>
<path d="M1025.21 1843.36C1085.5 1867.22 1141.76 1886.23 1194.7 1912.05C1215.95 1922.4 1229.93 1947.72 1244.7 1970.57C1168.41 1906.29 1085.09 1871.61 979.639 1895.85C1038.54 1953.9 1057.23 2042.33 1148.61 2075.95L1096.46 1944.51C1099.38 1943.21 1102.29 1941.9 1105.2 1940.59C1122.69 1971.82 1141.92 2002.25 1157.12 2034.53C1169.83 2061.55 1186.84 2069.52 1216.89 2068.53C1257.09 2067.28 1297.3 2070.84 1336.65 2079.12C1375.48 2087.3 1402.54 2111.74 1397.76 2160.76C1436.01 2087.07 1396.56 1986.14 1302.54 1914.77L1350.54 1914.77C1306.65 1863.9 1268.34 1848.49 1168.02 1842.56L1205.47 1816.14L1203.45 1808.39C1144.46 1819.97 1085.45 1831.55 1025.21 1843.36Z" fill="#D9FCCA"/>
<path d="M613.751 1546.71C622.92 1545.06 632.087 1543.41 641.252 1541.76L642.194 1538.09L537.776 1523.94L541.113 1533.86C535.258 1538.33 530.019 1545.19 523.449 1546.89C463.636 1562.33 432.356 1601.39 431.635 1663.05C430.939 1722.73 451.916 1758.03 509.296 1771.21C550.018 1780.57 594.487 1782.2 636.023 1777.15C683.438 1771.38 712.742 1727.45 715.213 1675.44C717.51 1627.16 686.163 1578.36 642.306 1562.37C633.307 1559.07 623.988 1556.69 614.819 1553.9L613.751 1546.71Z" fill="#D9FCCA"/>
<path d="M268.808 2296.4C236.666 2266.79 229.097 2238.51 262.181 2207.17C270.408 2199.37 274.667 2186.01 277.769 2174.41C296.036 2106.06 339.187 2060.64 400.877 2027.44C426.293 2013.76 449.784 1990.18 465.071 1965.48C485.564 1932.37 469.439 1905.98 430.331 1900.43C369.964 1891.86 316.378 1912.56 268.309 1946.13C198.104 1995.19 155.786 2061.67 160.055 2150.05C161.105 2171.85 173.135 2193.72 182.718 2214.35C194.734 2240.2 212.431 2263.69 222.183 2290.22C233.376 2320.7 245.801 2319.37 268.808 2296.4Z" fill="#D9FCCA"/>
<path d="M571.636 2691.33C573.048 2740.52 591.253 2779.06 639.939 2798.24C641.067 2798.71 642.167 2799.24 643.234 2799.83C663.359 2810.68 686.441 2833.72 702.933 2829.68C730.783 2822.89 755.945 2800.82 779.558 2781.84C818.082 2750.89 832.146 2695.3 812.246 2644.79C804.245 2624.45 787.301 2606.28 770.827 2591.02C754.354 2575.76 733.202 2565.37 714.243 2552.65C693.092 2538.46 675.804 2544.43 658.973 2561.18C643.516 2576.55 627.33 2591.4 610.132 2604.77C581.736 2626.84 571.706 2647.76 571.636 2691.33Z" fill="#D9FCCA"/>
<path d="M798.098 1946.39C788.035 1946.39 780.415 1944.45 778.847 1946.71C769.942 1959.56 762.506 1973.42 754.514 1986.9C753.309 1988.93 750.278 1991.27 750.697 1992.66C759.941 2023.03 767.918 2053.94 779.511 2083.42C795.321 2123.63 827.646 2143.88 869.809 2148.74C911.627 2153.56 943.35 2134.98 959.236 2098.3C975.069 2061.73 988.648 2022.63 993.83 1983.39C1000.42 1933.6 968.39 1893.49 922.533 1880.72C873.616 1867.11 826.79 1888.38 802.635 1935.32C800.451 1939.57 798.992 1944.19 798.098 1946.39Z" fill="#D9FCCA"/>
<path d="M607.251 2880.06C622.783 2815.08 622.783 2815.08 530.899 2801.93L516.52 2860.57C489.443 2849.31 460.125 2836.18 435.852 2866.39C416.677 2890.26 410.512 2917.74 424.213 2945.46C433.772 2964.8 446 2984.47 461.758 2998.79C523.416 3054.8 625 3040.76 658.606 2973.38C683.047 2924.4 662.183 2884.82 607.251 2880.06ZM586.24 2912.4C601.495 2912.4 611.849 2911.43 621.95 2912.62C639.012 2914.62 642.292 2938.54 624.802 2946.58C611.765 2952.56 594.345 2948.99 573.499 2949.9L586.24 2912.4ZM475.902 2881.84L526.781 2897.2L519.961 2936.49C493.787 2921.34 466.573 2916.1 475.902 2881.84Z" fill="#D9FCCA"/>
<path d="M1384.48 2551.2C1269.41 2544.94 1109.35 2609.68 1134.52 2763.09C1175.94 2694.37 1222.84 2637.19 1293.21 2603.53C1237.2 2652.69 1181.28 2701.81 1154.03 2774.05C1258.62 2812.72 1390.78 2683.93 1384.48 2551.2Z" fill="#D9FCCA"/>
<path d="M482.468 2671.52L430.873 2611.42L438.008 2605.07L500.193 2680.69C545.848 2622.55 546.653 2609.32 515.311 2585.18L572.313 2554.89C521.815 2535.41 484.482 2516.64 444.932 2506.62C347.466 2481.92 279.562 2415.53 210.911 2349.18C194.259 2333.08 178.623 2315.14 159.486 2302.74C149.959 2296.57 133.561 2301.03 120.27 2300.67C123.847 2313.38 125.244 2327.34 131.688 2338.37C136.865 2347.25 147.535 2353.54 156.808 2359.3C277.52 2434.23 372.844 2534.46 450.434 2652.61C456.891 2662.44 464.987 2671.21 472.32 2680.47L482.468 2671.52Z" fill="#D9FCCA"/>
<path d="M949.498 1558.82C969.233 1710 1058.86 1807.54 1161.56 1766.74C1094.58 1736.31 1037.95 1696.5 1001.83 1632.29C1051.46 1683 1103.8 1729.4 1174.38 1749.96C1179.24 1636.28 1095.4 1564.81 949.498 1558.82Z" fill="#D9FCCA"/>
<path d="M-14.0026 2295.37C-9.58777 2259.16 -7.55456 2222.45 -0.0850574 2186.88C7.35621 2151.44 20.2478 2117.14 30.7814 2082.34C-62.1661 2123.25 -66.0633 2282.19 -7.73814 2399.23C72.7697 2326.7 130.911 2154.64 52.7663 2073.67C38.8439 2113.04 23.4296 2148.54 13.9833 2185.58C4.49461 2222.79 0.945758 2261.5 -5.20588 2299.56C-8.13657 2298.17 -11.0688 2296.77 -14.0026 2295.37Z" fill="#D9FCCA"/>
<path d="M781.163 1829.67C872.882 1786.31 871.183 1654.85 839.22 1573.74C764.586 1620.92 705.221 1752.33 764.068 1812.18L787.202 1670.4C790.173 1670.89 793.143 1671.39 796.111 1671.88L781.163 1829.67Z" fill="#D9FCCA"/>
<path d="M880.573 1755.37C881.9 1801.6 950.514 1851.93 993.307 1840.24C1022.79 1832.17 1034.95 1804.5 1021.12 1776.92C1004.81 1744.39 952.161 1715.38 916.372 1720.06C894.9 1722.87 878.488 1731.71 880.573 1755.37Z" fill="#D9FCCA"/>
<path d="M581.421 2048.89C591.305 2054.34 607.101 2057.6 610.805 2066.12C623.795 2096.01 638.447 2118.72 676.006 2105.57C708.925 2094.04 726.264 2057.43 716.31 2021.7C708.421 1993.39 676.901 1970.48 650.148 1974.9C612.537 1981.13 606.846 2008.93 608.63 2042.93C598.05 2045.23 587.902 2047.47 581.421 2048.89Z" fill="#D9FCCA"/>
<path d="M562.712 1930.93C568.543 1932.85 581.572 1933.33 588.199 1940.09C605.482 1957.72 624.779 1977.05 647.159 1957.97C664.574 1943.13 683.052 1916.89 682.125 1896.59C681.184 1876.01 660.733 1850.57 641.704 1838.55C628.61 1830.28 598.798 1835.15 584.984 1845.51C573.537 1854.11 574.408 1879.28 570.092 1897.18C567.254 1908.99 564.891 1920.9 562.712 1930.93Z" fill="#D9FCCA"/>
<path d="M699.239 2485.05C693.703 2494.42 688.159 2503.79 682.605 2513.13C642.669 2487.38 640.626 2487.81 587.841 2532.88C623.235 2564.85 686.832 2539.25 699.239 2485.05Z" fill="#D9FCCA"/>
<path d="M1041.72 841.574C1108.42 795.396 1127.05 801.063 1181.87 864.848C1206.28 893.253 1239.15 920.712 1273.69 932.765C1345.58 957.847 1402.95 906.879 1411.35 818.539C1413.1 800.244 1409.94 781.069 1414.18 763.551C1418.12 747.299 1425.95 729.192 1438.02 718.88C1444.1 713.674 1463.36 723.897 1476.89 727.201C1465.69 708.69 1468.22 671.328 1423.23 689.764C1417 692.32 1402.27 680.558 1394.77 672.392C1371.57 647.126 1351.32 619.07 1327.41 594.548C1292.54 558.777 1252.41 534.03 1199.42 553.426C1146.84 572.671 1126.78 615.629 1119.12 666.89C1116.94 681.447 1115.97 696.179 1114.23 710.808C1108.35 760.266 1086.73 782.138 1037.24 788.854C999.214 794.031 985.791 779.535 991.119 735.438C1002.07 740.38 1012.12 744.927 1031.13 753.497C1034.12 712.149 1036.77 675.324 1039.47 638.499C1039.72 635.073 1039.19 629.26 1040.74 628.615C1061.35 619.889 1058.75 603.815 1045.91 594.802C1035.35 587.384 1018.09 587.69 1003.82 587.742C967.105 587.869 948.631 608.226 948.278 631.133C928.567 648.322 912.757 656.351 906.266 669.125C896.693 687.952 889.793 689.148 873.644 677.127C853.194 661.919 798.338 674.877 799.185 694.899C800.22 719.054 810.919 743.242 819.955 766.441C825.533 780.754 838.782 792.295 843.329 806.735C851.368 832.231 842.223 844.562 813.272 837.008C801.458 833.93 788.519 835.177 780.923 834.739C780.923 864.368 778.748 889.064 781.544 913.181C784.246 936.503 802.512 948.415 824.173 941.962C864.005 930.106 862.127 952.317 863.332 980.209C864.909 1016.72 871.804 1053.01 877.292 1096.69C961.335 1073.35 991.194 1030.35 959.551 945.394L1005.02 985.758L996.814 989.288C1004.29 1008.83 1010.8 1028.86 1019.95 1047.59C1022.22 1052.24 1036.36 1056.89 1039.41 1054.46C1070.86 1029.42 1102.48 1051.42 1134.02 1051.53C1172.53 1051.68 1213.92 1015.29 1212.46 985.866C1212.02 977.004 1202.08 960.516 1199.33 961.095C1166.57 967.967 1159.23 941.049 1144.97 923.079C1140.54 917.497 1135.79 910.399 1129.69 908.239C1110.56 901.48 1090.71 896.745 1066.82 890.005L1055.43 918.942C1022.14 909.651 1018.75 889.031 1041.92 841.075C1032.51 863.417 1023.27 885.572 1012.84 910.522L971.845 910.522C979.117 865.973 1001.11 844.713 1041.72 841.574ZM1040.16 806.683L1042.6 820.276C1017.76 825.11 999.736 861.977 958.176 824.714L1040.16 806.683Z" fill="#D9FCCA"/>
<path d="M424.495 1316.71C390.287 1215.26 417.384 1104.51 333.223 1015.67L320.624 1193.19L310.429 1192.51C306.998 1139.58 302.385 1086.68 300.719 1033.69C300.041 1012.14 291.677 1002.56 272.771 993.312C233.315 974.015 193.397 953.993 158.172 928.129C108.206 891.455 65.8133 847.852 98.4118 775.341C12.2795 879.439 14.6045 988.413 81.6747 1109.67C58.7109 1093.87 44.2473 1083.91 28.8047 1073.28C31.6004 1135.3 65.7474 1176.8 186.008 1262.96L116.664 1262.96C193.779 1309.46 269.966 1331.24 353.194 1337.12C264.402 1266.87 171.916 1199.74 173.982 1068.45C217.006 1189.27 290.463 1278.55 424.495 1316.71Z" fill="#D9FCCA"/>
<path d="M670.26 822.479C736.332 778.302 749.026 719.205 701.418 659.307C675.112 626.205 643.248 595.701 608.729 571.349C543.688 525.468 487.739 544.337 455.729 617.441C453.809 621.837 451.074 625.881 447.728 631.83C420.853 624.421 394.66 613.869 367.578 610.499C325.265 605.237 294.017 636.518 303.416 673.023C306.024 683.147 319.485 690.47 327.966 699.084C330.819 688.649 333.812 678.252 336.481 667.77C338.914 658.201 340.533 640.471 343.305 640.306C356.437 639.558 374.958 638.937 382.159 646.844C400.873 667.379 414.635 692.409 428.831 713.321C412.828 733.875 392.956 750.457 385.058 771.538C369.145 813.898 384.164 855.077 430.553 875.01C481.141 896.745 536.392 913.36 590.929 918.646C654.652 924.825 680.671 887.859 670.26 822.479Z" fill="#D9FCCA"/>
<path d="M38.0112 346.52C42.2472 364.359 53.0725 390.354 53.1384 416.381C53.1996 439.962 41.5034 463.571 37.7851 490.328C58.5981 456.911 83.3176 447.86 120.905 459.834C136.122 464.677 170.325 469.007 169.328 431.047C229.474 396.689 267.895 330.395 340.218 314.016C385.096 303.854 419.958 282.01 431.607 234.661C443.605 185.919 427.155 145.931 391.2 112.189C330.433 55.1578 255.85 49.9569 187.848 100.478C118.66 151.899 85.5204 226.617 58.6876 305.191C54.5222 317.409 47.1515 328.489 38.0112 346.52Z" fill="#D9FCCA"/>
<path d="M1108.62 1233.52C967.025 1360.33 890.975 1406.92 826.446 1402.82C935.542 1362.15 1024.62 1303.46 1089.8 1211.21C935.42 1125.92 769.556 1264.86 709.829 1448.07C794.266 1461.8 877.721 1464.03 959.876 1436.83C1055.96 1405.04 1104.01 1340.21 1108.62 1233.52Z" fill="#D9FCCA"/>
<path d="M1035.06 289.555C1095.34 313.418 1151.6 332.428 1204.54 358.239C1225.8 368.594 1239.77 393.921 1254.55 416.767C1178.26 352.478 1094.93 317.809 989.485 342.044C1048.39 400.096 1067.07 488.525 1158.46 522.145L1106.31 390.725C1109.22 389.416 1112.14 388.11 1115.05 386.804C1132.54 418.033 1151.76 448.462 1166.96 480.745C1179.67 507.766 1196.68 515.739 1226.74 514.746C1266.94 513.497 1307.14 517.052 1346.49 525.336C1385.32 533.516 1412.39 557.953 1407.6 606.969C1445.85 533.29 1406.4 432.351 1312.38 360.988L1360.41 360.988C1316.5 310.099 1278.18 294.666 1177.87 288.755L1215.31 262.341L1213.31 254.589C1154.3 266.163 1095.3 277.736 1035.06 289.555Z" fill="#D9FCCA"/>
<path d="M623.588 -7.09767C632.756 -8.74501 641.925 -10.3955 651.094 -12.0491L652.035 -15.7156L547.622 -29.8639L550.959 -19.9422C545.099 -15.4756 539.861 -8.61322 533.29 -6.91882C473.478 8.53792 442.197 47.594 441.477 109.242C440.785 168.918 461.758 204.223 519.137 217.402C559.859 226.758 604.328 228.396 645.865 223.341C693.28 217.571 722.583 173.644 725.054 121.63C727.351 73.3489 696.005 24.5548 652.148 8.56146C643.149 5.26678 633.83 2.88049 624.661 0.0894283L623.588 -7.09767Z" fill="#D9FCCA"/>
<path d="M1387.91 8.39215C1397.07 6.74168 1406.24 5.09119 1415.41 3.44071L1416.35 -0.225781C1381.55 -4.93246 1346.74 -9.65013 1311.94 -14.3788L1315.28 -4.4571C1309.42 0.00953841 1304.18 6.87188 1297.61 8.57099C1237.81 24.0277 1206.51 63.0838 1205.8 124.732C1205.11 184.408 1226.09 219.713 1283.46 232.891C1324.18 242.244 1368.66 243.882 1410.19 238.808C1457.61 233.061 1486.9 189.129 1489.38 137.143C1491.67 88.8623 1460.32 40.0681 1416.47 24.0701C1407.47 20.7754 1398.15 18.3938 1388.98 15.5981L1387.91 8.39215Z" fill="#D9FCCA"/>
<path d="M1387.91 1562.19C1397.07 1560.54 1406.24 1558.89 1415.41 1557.24L1416.35 1553.58L1311.94 1539.43L1315.28 1549.35C1309.42 1553.81 1304.18 1560.67 1297.61 1562.37C1237.81 1577.83 1206.51 1616.89 1205.8 1678.53C1205.11 1738.21 1226.09 1773.52 1283.47 1786.69C1324.19 1796.05 1368.66 1797.68 1410.19 1792.63C1457.6 1786.86 1486.91 1742.94 1489.38 1690.92C1491.67 1642.64 1460.32 1593.86 1416.47 1577.86C1407.47 1574.56 1398.15 1572.18 1388.98 1569.39L1387.91 1562.19Z" fill="#D9FCCA"/>
<path d="M26.3572 1222.8C35.5227 1221.15 44.6897 1219.5 53.8583 1217.85L54.7997 1214.18L-49.6134 1200.03L-46.2763 1209.95C-52.1314 1214.42 -57.37 1221.29 -63.9452 1222.98C-123.758 1238.44 -155.038 1277.49 -155.754 1339.14C-156.45 1398.82 -135.473 1434.12 -78.0935 1447.3C-37.3713 1456.66 7.0974 1458.29 48.6339 1453.24C96.0443 1447.47 125.353 1403.54 127.824 1351.53C130.121 1303.25 98.7695 1254.45 54.9126 1238.46C45.9182 1235.16 36.5989 1232.78 27.4303 1229.98L26.3572 1222.8Z" fill="#D9FCCA"/>
<path d="M278.659 742.597C246.512 712.992 238.944 684.705 272.027 653.363C280.254 645.569 284.514 632.206 287.616 620.605C305.887 552.273 349.033 506.83 410.728 473.638C436.144 459.961 459.631 436.376 474.918 411.675C495.411 378.568 479.286 352.168 440.178 346.624C379.81 338.058 326.225 358.748 278.16 392.33C207.95 441.383 165.633 507.87 169.906 596.252C170.956 618.049 182.986 639.921 192.569 660.545C204.585 686.395 222.282 709.89 232.034 736.422C243.222 766.898 255.648 765.57 278.659 742.597Z" fill="#D9FCCA"/>
<path d="M50.4883 1696.69C43.3953 1653.57 54.8513 1626.63 100.219 1622.32C111.515 1621.24 123.089 1613.34 132.695 1606.11C189.175 1563.51 251.153 1554.31 320.2 1566.15C348.656 1571.03 381.679 1566.92 408.94 1556.87C445.473 1543.41 449.026 1512.68 421.648 1484.22C379.363 1440.29 324.403 1423.59 265.857 1420.45C180.331 1415.85 106.046 1442.17 54.9642 1514.42C42.3691 1532.24 38.3779 1556.88 33.2241 1579.03C26.7712 1606.8 26.2441 1636.21 17.5838 1663.12C7.60561 1694.01 18.2098 1700.61 50.4883 1696.69Z" fill="#D9FCCA"/>
<path d="M1343.76 1218.48C1360.52 1258.84 1355.53 1287.67 1312.34 1302.26C1301.6 1305.88 1292.11 1316.23 1284.45 1325.46C1239.19 1379.83 1180.96 1402.96 1111.04 1407.21C1082.22 1408.95 1051.01 1420.51 1026.79 1436.52C994.31 1457.97 997.859 1488.7 1031.02 1510.15C1082.23 1543.25 1139.54 1546.95 1197.27 1536.63C1281.58 1521.57 1347.88 1478.97 1381.1 1396.95C1389.29 1376.71 1387.55 1351.83 1387.5 1329.09C1387.44 1300.58 1381.24 1271.83 1383.51 1243.65C1386.12 1211.29 1374.3 1207.28 1343.76 1218.48Z" fill="#D9FCCA"/>
<path d="M581.482 1137.52C582.894 1186.71 601.099 1225.26 649.785 1244.44C650.914 1244.9 652.014 1245.43 653.08 1246.03C673.206 1256.88 696.287 1279.92 712.784 1275.87C740.634 1269.09 765.791 1247.02 789.404 1228.04C827.928 1197.09 841.992 1141.5 822.092 1090.98C814.091 1070.65 797.147 1052.48 780.673 1037.22C764.2 1021.96 743.048 1011.56 724.09 998.847C702.938 984.661 685.65 990.629 668.819 1007.37C653.362 1022.75 637.176 1037.6 619.978 1050.96C591.582 1073.04 581.557 1093.96 581.482 1137.52Z" fill="#D9FCCA"/>
<path d="M807.944 392.599C797.886 392.599 790.261 390.659 788.694 392.923C779.789 405.768 772.352 419.629 764.36 433.109C763.156 435.138 760.124 437.472 760.543 438.87C769.792 469.242 777.765 500.151 789.358 529.629C805.167 569.833 837.493 590.091 879.655 594.948C921.479 599.768 953.197 581.186 969.082 544.511C984.916 507.941 998.494 468.837 1003.68 429.603C1010.27 379.806 978.26 339.705 932.38 326.926C883.463 313.319 836.636 334.593 812.486 381.524C810.298 385.769 808.839 390.386 807.944 392.599Z" fill="#D9FCCA"/>
<path d="M1193.57 2864.4C1183.51 2864.4 1175.89 2862.46 1174.32 2864.72C1165.42 2877.56 1157.97 2891.42 1149.98 2904.91C1148.78 2906.94 1145.75 2909.27 1146.17 2910.67C1155.41 2941.04 1163.39 2971.94 1174.98 3001.42C1190.78 3041.64 1223.11 3061.88 1265.27 3066.75C1307.09 3071.57 1338.82 3052.98 1354.7 3016.31C1370.53 2979.74 1384.11 2940.63 1389.3 2901.4C1395.89 2851.6 1363.85 2811.48 1318 2798.72C1269.09 2785.12 1222.26 2806.39 1198.1 2853.32C1195.92 2857.56 1194.45 2862.18 1193.57 2864.4Z" fill="#D9FCCA"/>
<path d="M617.097 1326.25C632.629 1261.3 632.629 1261.3 540.746 1248.12L526.367 1306.75C499.289 1295.5 469.971 1282.37 445.699 1312.58C426.529 1336.44 420.358 1363.93 434.059 1391.65C443.619 1410.98 455.847 1430.66 471.609 1444.98C533.267 1500.99 634.846 1486.95 668.452 1419.56C692.894 1370.6 672.015 1331.02 617.097 1326.25ZM596.087 1358.6C611.341 1358.6 621.696 1357.63 631.796 1358.81C648.858 1360.81 652.139 1384.74 634.649 1392.77C621.611 1398.75 604.192 1395.18 583.346 1396.1L596.087 1358.6ZM485.748 1328.04L536.627 1343.4L529.807 1382.69C503.638 1367.54 476.419 1362.29 485.748 1328.04Z" fill="#D9FCCA"/>
<path d="M171.634 2934.18C136.686 2877.23 136.686 2877.23 62.4008 2932.92L93.6956 2984.55C66.5898 2995.74 36.5706 3007.19 40.7737 3045.71C44.0919 3076.15 59.1627 3099.94 88.4571 3109.86C108.893 3116.77 131.453 3122.04 152.722 3121.02C235.913 3117.02 297.824 3035.27 273.952 2963.86C256.589 2911.93 213.829 2898.71 171.634 2934.18ZM179.635 2971.9C190.423 2961.11 197.05 2953.11 205.051 2946.81C218.526 2936.16 237.767 2950.76 231.079 2968.8C226.095 2982.25 211.245 2992.04 197.191 3007.42L179.635 2971.9ZM80.0086 3028.32C99.2495 3018 111.722 3011.31 126.84 3003.2L149.804 3035.8C120.599 3043.6 97.6493 3059.14 80.018 3028.32L80.0086 3028.32Z" fill="#D9FCCA"/>
<path d="M1394.33 997.412C1279.25 991.152 1119.2 1055.89 1144.36 1209.3C1185.78 1140.58 1232.68 1083.4 1303.06 1049.74C1247.05 1098.86 1191.12 1147.97 1163.88 1220.22C1268.47 1258.92 1400.6 1130.14 1394.33 997.412Z" fill="#D9FCCA"/>
<path d="M492.319 1117.72L440.719 1057.61C443.098 1055.5 445.478 1053.38 447.859 1051.27L510.039 1126.89C555.694 1068.75 556.499 1055.52 525.157 1031.38L582.169 1001.08C531.671 981.607 494.338 962.836 454.788 952.811C357.322 928.115 289.418 861.727 220.767 795.377C204.114 779.28 188.479 761.339 169.341 748.941C159.815 742.771 143.417 747.219 130.125 746.866C133.703 759.574 135.105 773.538 141.544 784.566C146.721 793.443 157.391 799.74 166.663 805.497C287.376 880.432 382.7 980.656 460.29 1098.8C466.747 1108.64 474.843 1117.4 482.176 1126.67L492.319 1117.72Z" fill="#D9FCCA"/>
<path d="M959.344 5.01257C979.079 156.201 1068.7 253.723 1171.45 212.921C1104.46 182.497 1047.83 142.678 1011.72 78.4745C1061.31 129.194 1113.67 175.602 1184.25 196.165C1189.09 82.4752 1105.25 11.0042 959.344 5.01257Z" fill="#D9FCCA"/>
<path d="M-4.1518 741.566C0.258361 705.357 2.29168 668.645 9.76118 633.077C17.2024 597.636 30.094 563.333 40.6275 528.542C-52.32 569.438 -56.2171 728.387 2.1081 845.424C82.6159 772.894 140.757 600.836 62.6124 519.872C48.69 559.229 33.2757 594.741 23.8294 631.778C14.3407 668.961 10.7919 707.701 4.64025 745.76L-4.1518 741.566Z" fill="#D9FCCA"/>
<path d="M791.01 275.849C882.729 232.491 881.044 101.033 849.067 19.9467C774.433 67.1217 715.067 198.532 773.915 258.378L797.048 116.598C800.017 117.094 802.987 117.59 805.958 118.086L791.01 275.849Z" fill="#D9FCCA"/>
<path d="M890.4 201.564C891.728 247.797 960.342 298.131 1003.13 286.435C1032.62 278.372 1044.78 250.697 1030.95 223.116C1014.64 190.578 961.998 161.576 926.199 166.259C904.746 169.059 888.334 177.903 890.4 201.564Z" fill="#D9FCCA"/>
<path d="M591.267 495.087C601.151 500.542 616.947 503.794 620.651 512.313C633.641 542.205 648.293 564.92 685.853 551.769C718.799 540.242 736.115 503.625 726.156 467.901C718.267 439.59 686.747 416.673 659.994 421.102C622.383 427.329 616.693 455.127 618.476 489.128C607.896 491.444 597.748 493.665 591.267 495.087Z" fill="#D9FCCA"/>
<path d="M572.558 377.118C578.39 379.048 591.418 379.528 598.045 386.287C615.328 403.913 634.625 423.248 657.005 404.196C674.42 389.351 692.899 363.111 691.971 342.807C691.03 322.224 670.579 296.794 651.55 284.773C638.456 276.499 608.644 281.366 594.83 291.734C583.383 300.329 584.254 325.505 579.943 343.4C577.1 355.19 574.737 367.088 572.558 377.118Z" fill="#D9FCCA"/>
<path d="M709.085 931.245C703.55 940.621 698.007 949.982 692.456 959.33C652.515 933.575 650.472 934.003 597.687 979.098C633.086 1011.06 696.678 985.447 709.085 931.245Z" fill="#D9FCCA"/>
</g>
</svg>
