<svg width="52" height="50" viewBox="0 0 52 50" fill="none" xmlns="http://www.w3.org/2000/svg">
<path fill-rule="evenodd" clip-rule="evenodd" d="M18.1124 0.0934618C17.8837 0.138454 17.4889 0.272221 17.2351 0.390756C16.9812 0.509189 16.591 0.761289 16.3678 0.951044C16.1447 1.1407 15.8247 1.51264 15.6568 1.77756C15.4888 2.04247 15.2992 2.42248 15.2355 2.62192C15.1227 2.975 15.1004 2.98782 14.3858 3.1123C13.9822 3.18251 13.3015 3.37298 12.8731 3.5356C12.4448 3.69811 11.9727 3.926 11.8243 4.04201C11.6758 4.15803 11.5119 4.36342 11.4602 4.4985C11.3979 4.66142 11.4055 4.81677 11.4828 4.96023C11.5469 5.07916 11.6954 5.25631 11.8129 5.35396C11.9305 5.45161 12.3694 5.66255 12.7885 5.82265C13.2075 5.98285 13.8531 6.16988 14.223 6.23838L14.8956 6.36286L14.9564 6.87191C14.9898 7.15185 15.1482 7.65857 15.3084 7.99783C15.4705 8.34102 15.8179 8.82797 16.0917 9.09531C16.3622 9.35961 16.817 9.68929 17.1023 9.8279C17.3875 9.96651 17.905 10.1296 18.2524 10.1904C18.7095 10.2704 19.0577 10.2704 19.5146 10.1905C19.8615 10.1297 20.3854 9.95955 20.6786 9.81226C20.9718 9.66488 21.4209 9.33671 21.6764 9.0829C21.9319 8.82908 22.2571 8.38591 22.3989 8.0982C22.5406 7.81039 22.7092 7.30044 22.7734 6.96502C22.8899 6.35651 22.891 6.355 23.2996 6.28872C23.5248 6.2522 24.1366 6.08736 24.659 5.92252C25.3133 5.71602 25.7205 5.52132 25.967 5.29696C26.218 5.06847 26.325 4.88426 26.325 4.68018C26.325 4.48377 26.2253 4.30067 26.0188 4.11747C25.8505 3.96807 25.4447 3.74593 25.1172 3.62376C24.7898 3.5017 24.1789 3.31568 23.7599 3.21036C23.3408 3.10514 22.9282 3.01828 22.8429 3.01737C22.7497 3.01647 22.5725 2.75337 22.3997 2.35963C22.2376 1.98991 21.9061 1.48823 21.6407 1.21071C21.3814 0.939645 20.9409 0.605025 20.6615 0.467122C20.3821 0.329118 19.9113 0.165288 19.6152 0.102844C19.3191 0.0404996 18.9534 -0.00560261 18.8025 0.000551082C18.6516 0.00660389 18.341 0.0483683 18.1124 0.0934618ZM0.547242 3.61559C0.435496 3.66109 0.262798 3.788 0.163446 3.89776C-0.00529039 4.08408 -0.0153475 4.42021 0.0110651 8.99604L0.0393064 13.8948L0.293274 14.1681C0.432956 14.3184 0.69434 14.5036 0.874149 14.5797C1.07031 14.6627 1.56799 14.718 2.11859 14.718H3.03613V16.6848V18.6517L2.53764 19.1312C2.19204 19.4636 2.00319 19.7447 1.92192 20.0479C1.85741 20.2883 1.83526 20.6287 1.87275 20.8045C1.91013 20.9801 2.03692 21.2964 2.15445 21.5071C2.27189 21.7179 2.51783 21.9823 2.70079 22.0946L3.03348 22.2988L3.0602 33.2957L3.08692 44.2924L3.4187 44.5868C3.6489 44.7911 3.85736 44.8811 4.09964 44.8811C4.29164 44.8811 4.56461 44.8288 4.70612 44.7647C4.84763 44.7007 5.0441 44.5305 5.14264 44.3864C5.31056 44.141 5.32356 43.4612 5.34906 33.5573C5.36399 27.7453 5.39691 22.9901 5.4222 22.9901C5.4475 22.9901 6.69235 23.3305 8.18862 23.7465C9.6849 24.1627 11.0363 24.5031 11.1917 24.5031C11.3472 24.5032 11.6437 24.4331 11.8506 24.3472C12.0577 24.2613 12.3349 24.0911 12.4669 23.9689C12.5987 23.8467 12.7937 23.5783 12.8999 23.3725C13.0792 23.0253 13.0932 22.7388 13.0932 19.4252C13.0932 16.2884 13.1129 15.8361 13.2542 15.7197C13.3704 15.624 13.462 15.6164 13.5843 15.6924C13.6774 15.7502 13.768 15.9178 13.7857 16.0648C13.8173 16.327 13.832 16.332 14.573 16.332H15.3282V13.9109V11.4898H14.1251C13.2083 11.4898 12.7886 11.5354 12.3618 11.6812C12.0538 11.7864 11.6065 11.9949 11.3679 12.1445C11.1292 12.2941 10.7315 12.6234 10.4841 12.8762C10.2367 13.1289 9.9409 13.5175 9.82682 13.7396C9.71274 13.9618 9.54725 14.3295 9.45907 14.5569C9.33544 14.8758 9.28556 15.5468 9.24046 17.4964L9.18215 20.0226L7.30278 19.502L5.42342 18.9814L5.39599 16.8588L5.36867 14.7364L6.43015 14.702C7.30888 14.6735 7.54111 14.6315 7.77821 14.4586C7.93577 14.3437 8.14464 14.094 8.24226 13.9038C8.40389 13.5891 8.41994 13.1326 8.42004 8.84734L8.42024 4.13684L8.19167 3.87889C8.06601 3.73695 7.82281 3.59421 7.65143 3.56162C7.40772 3.51532 7.26926 3.56132 7.01651 3.77246L6.69326 4.04262V6.88855C6.69326 8.96759 6.66045 9.76707 6.57136 9.85554C6.50431 9.92212 6.19345 9.97659 5.88057 9.97659C5.56768 9.97659 5.25682 9.92212 5.18977 9.85554C5.10078 9.76717 5.06787 8.97506 5.06787 6.92224V4.11001L4.77093 3.81513C4.59193 3.63738 4.36692 3.52026 4.20438 3.52026C4.04184 3.52026 3.81682 3.63738 3.63783 3.81513L3.34089 4.11001V6.92224C3.34089 8.97506 3.30797 9.76717 3.21898 9.85554C3.15194 9.92212 2.84108 9.97659 2.52819 9.97659C2.2153 9.97659 1.90445 9.92212 1.8374 9.85554C1.74831 9.76707 1.71549 8.96759 1.71549 6.88855V4.04262L1.40291 3.78144C1.23102 3.63779 1.01393 3.52319 0.920371 3.52662C0.826911 3.53015 0.658988 3.5702 0.547242 3.61559ZM16.9536 13.9109V16.332H18.8837H20.8139V13.9109V11.4898H18.8837H16.9536V13.9109ZM22.3377 13.9109V16.332H23.1504H23.9631V16.0329C23.9631 15.8407 24.0332 15.6966 24.1592 15.6296C24.3072 15.5509 24.3944 15.5642 24.5148 15.6837C24.6566 15.8246 24.6744 16.6391 24.6757 23.073C24.6766 27.0501 24.7109 30.3528 24.7519 30.4124C24.7929 30.472 25.2151 30.8037 25.6901 31.1495C26.4212 31.6818 26.6 31.7692 26.8562 31.7199C27.0226 31.6878 27.3197 31.5791 27.5165 31.4782C27.7133 31.3773 28.0113 31.102 28.1789 30.8664L28.4837 30.4379V22.8554C28.4837 16.6868 28.4573 15.1788 28.3423 14.7684C28.2646 14.491 28.0685 14.0284 27.9067 13.7405C27.7448 13.4526 27.4002 13.0093 27.1408 12.7554C26.8815 12.5015 26.4767 12.1869 26.2415 12.0563C26.0062 11.9257 25.5949 11.7448 25.3274 11.6543C24.9814 11.5372 24.4803 11.4898 23.5894 11.4898H22.3377V13.9109ZM44.533 16.7138C43.8068 17.1456 42.7329 17.8238 42.1466 18.2208C41.5602 18.6179 40.7727 19.1955 40.3965 19.5045C40.0203 19.8134 39.5329 20.2918 39.3135 20.5675C39.0926 20.8449 38.8236 21.3513 38.711 21.7016C38.5989 22.0496 38.4794 22.5704 38.4451 22.8588C38.4109 23.1472 38.4317 23.692 38.4916 24.0694C38.5513 24.4468 38.7304 25.0279 38.8894 25.3608C39.0484 25.6937 39.31 26.1183 39.471 26.3045L39.7635 26.6427L40.2561 25.7151L40.7486 24.7875L40.5843 23.8088C40.494 23.2705 40.4202 22.4348 40.4202 21.9517C40.4202 21.4687 40.4564 21.0734 40.5006 21.0734C40.5449 21.0734 40.7467 21.3572 40.9489 21.7039C41.1513 22.0507 41.387 22.5047 41.4728 22.7127C41.5587 22.9208 41.6654 23.0874 41.7102 23.0829C41.755 23.0784 42.1777 22.4915 42.6498 21.7787C43.1218 21.0659 43.8664 20.0368 44.3045 19.4918C44.7425 18.9469 45.1514 18.4837 45.213 18.4626C45.2881 18.4368 45.301 18.5198 45.2523 18.7148C45.2122 18.8746 44.9937 19.482 44.7667 20.0646C44.5396 20.6472 44.0631 21.7323 43.7076 22.4758C43.3523 23.2193 43.0614 23.8438 43.0614 23.8634C43.0614 23.8829 43.5804 23.8695 44.2147 23.8335C44.9203 23.7936 45.3913 23.8059 45.4284 23.8654C45.4617 23.9189 45.243 24.1107 44.9424 24.2916C44.6419 24.4725 44.0158 24.7783 43.551 24.9712C43.0861 25.1641 42.566 25.3826 42.3949 25.4568C42.174 25.5526 41.9341 25.8406 41.5659 26.4525C41.1549 27.1354 41.0792 27.3253 41.1998 27.3712C41.2834 27.403 41.5878 27.4548 41.8764 27.4862C42.2374 27.5254 42.647 27.4794 43.1888 27.3388C43.622 27.2263 44.1934 27.0095 44.4587 26.8571C44.7238 26.7047 45.2173 26.3057 45.5553 25.9703C45.8933 25.6351 46.2741 25.1379 46.4016 24.8654C46.5291 24.5929 46.699 24.0482 46.7791 23.6548C46.8593 23.2615 46.9769 21.8729 47.0406 20.569C47.1043 19.2645 47.1218 17.7949 47.0795 17.3013C47.0129 16.5228 46.9686 16.3729 46.7442 16.1664C46.5877 16.0224 46.3609 15.9285 46.1695 15.9285C45.9559 15.9285 45.4254 16.183 44.533 16.7138ZM13.8044 33.0601V48.174L14.0837 48.7218C14.2809 49.1083 14.5058 49.3642 14.8484 49.5915C15.1153 49.7687 15.5338 49.9434 15.7783 49.9798C16.0668 50.0228 16.4153 49.9904 16.7715 49.8876C17.1287 49.7845 17.4488 49.6014 17.6888 49.3632C17.8916 49.1617 18.1406 48.8313 18.2421 48.6288C18.4133 48.2872 18.4287 47.8167 18.4556 42.1069L18.4847 35.9533H17.4398C16.483 35.9533 16.3602 35.9309 15.9842 35.6878C15.7583 35.5418 15.4288 35.2587 15.2521 35.0587C15.0752 34.8587 14.8601 34.4592 14.7738 34.171C14.6876 33.8827 14.6171 33.4979 14.6171 33.3158C14.6171 33.1337 14.7082 32.7429 14.8196 32.4474C14.9352 32.1403 15.1857 31.7542 15.4037 31.5467C15.6136 31.3471 15.933 31.1099 16.1135 31.0196C16.2941 30.9294 16.8883 30.7491 17.4342 30.6191L18.4266 30.3826L18.4581 30.0154C18.4893 29.653 18.4954 29.6482 18.9406 29.6482C19.354 29.6482 19.3916 29.6693 19.3916 29.9004C19.3916 30.0391 19.4096 30.1526 19.4316 30.1526C19.4535 30.1526 20.0755 30.0164 20.8139 29.85C21.5522 29.6835 22.3686 29.5494 22.6279 29.5518C22.8874 29.5542 23.2824 29.6216 23.5059 29.7016C23.7294 29.7815 23.9238 29.8477 23.9377 29.8485C23.9516 29.8493 23.9631 27.1716 23.9631 23.8981V17.9461H18.8837H13.8044V33.0601ZM30.0887 19.7118C29.9688 19.7953 29.8115 20.0335 29.7394 20.2415C29.6428 20.5194 29.6071 21.4876 29.6046 23.8981C29.6017 26.7426 29.6252 27.2631 29.7827 27.8299C29.8826 28.1892 30.0854 28.6884 30.2334 28.9392C30.3814 29.1901 30.7217 29.6073 30.9894 29.8662C31.2571 30.1253 31.7172 30.473 32.0117 30.639C32.3062 30.805 32.7955 31.0131 33.099 31.1016C33.4024 31.19 33.9852 31.2623 34.3942 31.2623C34.9253 31.2623 35.1354 31.2263 35.1299 31.1362C35.1257 31.0669 34.9085 30.6323 34.6474 30.1705L34.1726 29.331L33.304 28.9527C32.8263 28.7447 32.1063 28.363 31.704 28.1046C31.3017 27.8461 30.9726 27.5818 30.9726 27.5171C30.9726 27.4332 31.1683 27.4173 31.6583 27.4616C32.0354 27.4957 32.5805 27.5536 32.8696 27.5902L33.3952 27.657L32.8415 26.3119C32.5368 25.5723 32.106 24.403 31.884 23.7136C31.6622 23.0241 31.4821 22.3637 31.4842 22.2459C31.4875 22.0501 31.5099 22.0577 31.7452 22.3344C31.8868 22.5009 32.4271 23.2726 32.9461 24.0494C33.4651 24.8262 34.0599 25.7677 34.268 26.1417C34.476 26.5158 34.6863 26.8464 34.7352 26.8764C34.7841 26.9065 34.9008 26.782 34.9942 26.5999C35.0877 26.4177 35.3508 25.9851 35.5788 25.6382C35.8068 25.2915 36.0362 25.0077 36.0885 25.0077C36.1448 25.0077 36.1599 25.3702 36.1257 25.8947C36.0939 26.3825 35.968 27.2038 35.8461 27.7198L35.6243 28.6579L36.0578 29.6108L36.4914 30.5638L36.8369 30.2321C37.0269 30.0497 37.3385 29.5827 37.5294 29.1943C37.7238 28.7989 37.9225 28.1918 37.9809 27.8148C38.0511 27.3615 38.052 26.9097 37.9838 26.4323C37.9282 26.0422 37.8067 25.5281 37.7138 25.2897C37.6211 25.0514 37.3641 24.6188 37.1429 24.3282C36.9216 24.0378 36.3685 23.4905 35.9137 23.1122C35.459 22.7339 34.904 22.2852 34.6805 22.1152C34.457 21.9452 33.5236 21.3008 32.6064 20.6832C31.3672 19.8488 30.8575 19.5602 30.6226 19.5602C30.4489 19.5602 30.2085 19.6284 30.0887 19.7118ZM21.5208 20.3119C21.6092 20.4176 21.6338 20.9664 21.6095 22.2875L21.5758 24.1168L21.244 24.4109L20.9122 24.7051H18.8837H16.8552L16.5234 24.4109L16.1917 24.1169L16.1598 22.2854C16.137 20.9794 16.1625 20.4126 16.2484 20.3097C16.347 20.1918 16.8274 20.1655 18.8837 20.1655C20.9573 20.1655 21.4199 20.1912 21.5208 20.3119ZM19.6017 31.7102C16.9577 32.3117 16.8003 32.3605 16.5287 32.6623C16.3138 32.9012 16.2424 33.0831 16.2424 33.3925C16.2424 33.7265 16.3078 33.8694 16.5878 34.1475C16.8222 34.3802 17.0281 34.4905 17.2286 34.4905C17.391 34.4905 18.5041 34.2676 19.7022 33.9954C20.9003 33.7231 21.9871 33.4847 22.1173 33.4657C22.2895 33.4406 22.7922 33.7478 23.9595 34.5914L25.5649 35.7515L26.4023 38.533L27.2398 41.3144L27.0737 44.1318C26.9823 45.6813 26.908 47.3062 26.9084 47.7425C26.909 48.3694 26.9554 48.6178 27.1301 48.9264C27.2518 49.1413 27.5265 49.4377 27.7408 49.5851C28.0637 49.8074 28.3069 49.8699 29.1651 49.9512C29.9114 50.0219 30.3482 50.0163 30.7312 49.9312C31.0234 49.8662 31.439 49.6861 31.6547 49.5308C31.8706 49.3756 32.1353 49.1171 32.2432 48.9564C32.3511 48.7956 32.9238 47.325 33.516 45.6882L34.5926 42.7122L37.8874 42.6602C39.6994 42.6315 41.2735 42.5681 41.3853 42.5191C41.497 42.4702 41.739 42.3196 41.923 42.1844L42.2576 41.9387L42.9134 42.5106C43.2743 42.825 43.5694 43.1261 43.5694 43.1797C43.5694 43.2333 43.4937 43.4223 43.4012 43.6C43.3087 43.7775 43.1721 44.1498 43.0976 44.4272C43.0231 44.7046 42.9617 45.141 42.9611 45.397C42.9604 45.653 43.0063 46.1069 43.063 46.4059C43.1197 46.7047 43.2908 47.1989 43.4433 47.504C43.5958 47.8092 43.9813 48.3212 44.3 48.6418C44.6681 49.0121 45.1176 49.3353 45.5322 49.5281C45.8913 49.6948 46.4709 49.8771 46.8203 49.933C47.1696 49.9888 47.6668 50.0064 47.9251 49.9718C48.1835 49.9373 48.6139 49.8402 48.8818 49.7562C49.1497 49.6721 49.5704 49.4915 49.8169 49.3547C50.0632 49.2179 50.4977 48.853 50.7823 48.5439C51.0668 48.2347 51.3928 47.8002 51.5068 47.5783C51.6209 47.3564 51.7782 46.9652 51.8566 46.709C51.9349 46.4527 51.9994 45.9187 52 45.5222C52.0007 45.0864 51.9218 44.5463 51.8004 44.1561C51.69 43.8011 51.4603 43.3018 51.2899 43.0463C51.1194 42.7909 50.7796 42.3984 50.5347 42.1742C50.2897 41.95 49.8511 41.6466 49.5601 41.5001C49.269 41.3538 48.7424 41.174 48.3898 41.1007C47.9414 41.0075 47.5253 40.9924 47.0051 41.0505C46.5961 41.0962 46.0384 41.2287 45.7658 41.3449L45.2701 41.5561L44.9531 41.3042C44.7787 41.1657 44.3712 40.813 44.0476 40.5204L43.459 39.9885L45.0914 37.4312C45.9892 36.0248 46.7911 34.7446 46.8735 34.5864C46.9559 34.4281 47.0233 34.1444 47.0233 33.9556C47.0233 33.7655 46.9198 33.4596 46.7912 33.2696C46.6623 33.0793 46.4026 32.8707 46.2071 32.8005C45.9294 32.7008 43.687 32.6877 35.5806 32.738L25.306 32.8018L24.3405 32.0906C23.8095 31.6994 23.2353 31.3076 23.0645 31.2199C22.8938 31.1323 22.6718 31.0641 22.5713 31.0683C22.4708 31.0727 21.1344 31.3615 19.6017 31.7102ZM20.5345 35.3859L19.3916 35.65V41.9333C19.3916 47.3857 19.4125 48.2663 19.5494 48.5917C19.6362 48.798 19.8305 49.0958 19.9812 49.2535C20.1318 49.4111 20.438 49.636 20.6615 49.7533C20.9445 49.9018 21.2528 49.9665 21.6774 49.9665C22.1019 49.9665 22.4102 49.9018 22.6932 49.7533C22.9167 49.636 23.2229 49.4111 23.3736 49.2535C23.5242 49.0958 23.7185 48.798 23.8053 48.5917C23.9417 48.2673 23.9631 47.4275 23.9631 42.369V36.5214L22.9789 35.8086C22.4375 35.4166 21.9233 35.1016 21.836 35.1088C21.7488 35.1159 21.1631 35.2406 20.5345 35.3859ZM32.1505 42.8245C32.1159 42.914 31.7213 44.0117 31.2735 45.2637C30.8257 46.5157 30.4148 47.5935 30.3603 47.6586C30.2971 47.7341 30.0684 47.7595 29.728 47.7285C29.4348 47.7018 29.181 47.6682 29.164 47.6538C29.1471 47.6395 29.1821 46.7488 29.2417 45.6745C29.3014 44.6001 29.3757 43.4826 29.4068 43.1914L29.4634 42.6618H30.8384C32.0616 42.6618 32.2065 42.6797 32.1505 42.8245ZM48.2932 43.2572C48.5167 43.3602 48.8076 43.5474 48.9397 43.6731C49.0718 43.7988 49.2651 44.0879 49.3692 44.3157C49.4733 44.5435 49.5593 44.866 49.5602 45.0325C49.5611 45.1989 49.5116 45.5167 49.4503 45.7386C49.3811 45.9888 49.1724 46.3011 48.9011 46.5606C48.5845 46.8633 48.3267 47.0082 47.9685 47.0845C47.6897 47.1439 47.3198 47.1554 47.1214 47.1108C46.9277 47.0672 46.6232 46.9564 46.4445 46.8645C46.2658 46.7724 46.0043 46.5472 45.8635 46.3639C45.7227 46.1806 45.5559 45.7916 45.4928 45.4993C45.4297 45.2072 45.4031 44.9432 45.4338 44.9128C45.4644 44.8825 45.8426 45.158 46.2741 45.5251C46.9707 46.1177 47.1065 46.1926 47.4846 46.1926C47.7595 46.1926 48.0038 46.1196 48.1744 45.9863C48.3197 45.8727 48.4806 45.6287 48.532 45.444C48.5833 45.2591 48.6026 44.9898 48.5748 44.8452C48.5449 44.6897 48.2181 44.2938 47.7738 43.8747C47.361 43.4853 47.0233 43.1439 47.0233 43.116C47.0233 43.0881 47.2177 43.0663 47.4551 43.0675C47.6925 43.0687 48.0697 43.1541 48.2932 43.2572Z" fill="#479C2D"/>
</svg>
