<svg width="50" height="50" viewBox="0 0 50 50" fill="none" xmlns="http://www.w3.org/2000/svg">
<path fill-rule="evenodd" clip-rule="evenodd" d="M44.8268 0.863101V1.7262H45.9313H47.0359L42.9138 5.85247L38.7918 9.97885L35.0998 6.28402C31.6593 2.84111 31.382 2.5893 31.0315 2.5893C30.679 2.5893 30.3408 2.90401 25.6705 7.57846L20.6856 12.5677L17.8556 9.73621C15.2356 7.11498 14.9976 6.90481 14.6494 6.90481C14.296 6.90481 13.9007 7.27778 8.10425 13.0797L1.93522 19.2545L2.55158 19.8781L3.16805 20.5017L8.90879 14.7557L14.6494 9.00981L17.4795 11.8412C20.0992 14.4623 20.3375 14.6727 20.6856 14.6727C21.0378 14.6727 21.3769 14.357 26.0465 9.68346L31.0315 4.69408L34.7235 8.3888C38.1635 11.8314 38.441 12.0834 38.7915 12.0834C39.1434 12.0834 39.4615 11.7894 43.7217 7.5256L48.2756 2.96788V4.07319V5.17861H49.1378H50V2.82385C50 0.502001 49.9966 0.465859 49.7506 0.234548C49.5103 0.00863098 49.4152 0 47.164 0H44.8268V0.863101ZM37.9292 22.4406V29.3454H40.0847H42.2402V22.4406V15.5358H40.0847H37.9292V22.4406ZM22.4096 23.3037V29.3454H24.5651H26.7206V23.3037V17.262H24.5651H22.4096V23.3037ZM30.1694 25.0299V29.3454H32.3249H34.4804V25.0299V20.7144H32.3249H30.1694V25.0299ZM14.6498 25.893V29.3454H16.8053H18.9608V25.893V22.4406H16.8053H14.6498V25.893ZM46.4087 29.7946C46.1033 29.8521 44.845 30.43 43.3558 31.1969C40.8591 32.4825 40.8238 32.5054 40.9117 32.7844C40.9607 32.9402 41.0002 33.456 40.9995 33.9307C40.9984 34.6258 40.9468 34.8987 40.7344 35.3332C40.5892 35.6299 40.2746 36.0591 40.0351 36.2869C39.7957 36.5148 37.393 38.013 34.696 39.6162C31.9989 41.2195 29.4042 42.7167 28.93 42.9434C28.4558 43.1702 27.6556 43.4674 27.1517 43.6039C26.385 43.8117 25.972 43.8519 24.619 43.8507L23.0024 43.8492L18.422 42.7365C15.9027 42.1244 13.826 41.6088 13.8072 41.5907C13.7882 41.5726 13.8295 41.2688 13.8989 40.9155C13.9683 40.5623 14.0612 40.2148 14.1054 40.1433C14.1649 40.047 15.3702 40.3 18.7556 41.1195C23.2404 42.2051 23.3499 42.2258 24.619 42.2272C25.5072 42.2282 26.1277 42.1705 26.5998 42.0432C26.9779 41.9412 27.5599 41.7473 27.8931 41.6124C28.2264 41.4775 30.7784 40.0155 33.5643 38.3636C36.3503 36.7117 38.7451 35.2569 38.8862 35.1308C39.0271 35.0048 39.209 34.7454 39.2903 34.5545C39.3716 34.3635 39.4381 34.0585 39.4381 33.8767C39.4381 33.6949 39.3682 33.3788 39.2829 33.1743C39.1975 32.9697 38.8943 32.5515 38.6093 32.2449C38.301 31.9135 37.837 31.5665 37.4646 31.3894C37.1202 31.2254 36.5555 31.0585 36.2099 31.0182C35.7739 30.9676 35.3756 30.9981 34.9089 31.1178C34.4966 31.2236 32.8134 32.0238 30.5592 33.1856C28.4098 34.2936 26.6049 35.1543 26.2146 35.2576C25.6532 35.406 25.4495 35.4137 24.9349 35.3057C24.5246 35.2195 23.342 34.6629 21.3455 33.6163C19.7079 32.7578 18.0043 31.9349 17.5598 31.7875C17.1152 31.6401 16.3429 31.4605 15.8435 31.3883C15.303 31.3102 14.4742 31.2823 13.7957 31.3195C13.0444 31.3606 12.3255 31.4783 11.686 31.6648C11.1526 31.8204 10.3617 32.1178 9.92866 32.3257C9.49551 32.5337 9.11464 32.7734 9.08209 32.8582C9.04954 32.9431 9.62215 35.8808 10.3545 39.3865L11.686 45.7608L12.0094 45.7119C12.1872 45.685 12.8194 45.5778 13.4143 45.4736L14.4959 45.2842L20.5275 45.9469C23.8448 46.3113 26.9712 46.6082 27.4751 46.6066C27.9789 46.605 28.7131 46.5354 29.1066 46.4519C29.4999 46.3685 30.1838 46.1494 30.6261 45.965C31.1919 45.7292 34.1082 43.8302 40.4662 39.5575C45.436 36.2178 49.5979 33.3568 49.7149 33.1999C49.8432 33.028 49.9472 32.6791 49.9768 32.3215C50.0182 31.8212 49.9812 31.652 49.7411 31.2418C49.5845 30.9742 49.2971 30.6337 49.1026 30.4852C48.9079 30.3366 48.5332 30.1222 48.2697 30.009C48.0062 29.8956 47.5966 29.7789 47.3595 29.7497C47.1224 29.7205 46.6945 29.7406 46.4087 29.7946ZM3.2796 30.7269C1.50132 31.1158 0.0257701 31.4498 0.000550811 31.4694C-0.0246685 31.489 0.819317 35.6434 1.87605 40.7015C2.93278 45.7596 3.83507 49.9408 3.88109 49.9929C3.92819 50.0462 5.32721 49.7951 7.07101 49.4204C8.77946 49.0534 10.2621 48.7282 10.3658 48.6979C10.4696 48.6676 10.5531 48.5611 10.5516 48.4613C10.55 48.3614 9.68843 44.1811 8.63698 39.1716C7.58553 34.1622 6.67742 30.0538 6.619 30.0419C6.56059 30.03 5.05789 30.3382 3.2796 30.7269ZM4.82746 33.8408C4.89493 34.1771 4.95011 34.5344 4.95011 34.6351C4.95011 34.771 4.79341 34.8494 4.33935 34.9407C4.00342 35.0083 3.64754 35.0635 3.54828 35.0635C3.40958 35.0635 3.33661 34.8876 3.23196 34.3014C3.15706 33.8821 3.11298 33.5244 3.13389 33.5061C3.15469 33.488 3.41432 33.424 3.7107 33.364C4.00708 33.3041 4.35196 33.2491 4.47719 33.2421C4.67033 33.2313 4.72335 33.322 4.82746 33.8408Z" fill="#479C2D"/>
</svg>
