<svg width="50" height="50" viewBox="0 0 50 50" fill="none" xmlns="http://www.w3.org/2000/svg">
<path fill-rule="evenodd" clip-rule="evenodd" d="M23.4778 0.0845103C23.1937 0.127996 22.7614 0.213751 22.517 0.274973C22.2726 0.336195 21.8286 0.482952 21.5304 0.601086C21.2323 0.719166 20.7638 0.929355 20.4895 1.06815C20.2152 1.2069 19.7399 1.49395 19.4333 1.70601C19.1268 1.91808 18.6699 2.27641 18.4179 2.50229C18.1659 2.72823 17.8244 3.0707 17.6589 3.26337C17.4934 3.45604 17.2649 3.73099 17.1509 3.87432C17.0371 4.01765 16.7979 4.36576 16.6195 4.64789C16.4411 4.93002 16.2077 5.3473 16.1008 5.57522C15.994 5.80315 15.8248 6.20458 15.725 6.46726C15.6251 6.72999 15.4822 7.15976 15.4073 7.42239C15.3324 7.68496 15.2309 8.21596 15.1816 8.60235C15.1131 9.14042 15.0992 9.55721 15.1222 10.3824C15.1463 11.2468 15.1802 11.5952 15.294 12.1444C15.3719 12.5209 15.5234 13.0679 15.6306 13.36C15.7379 13.6521 15.9425 14.1397 16.0854 14.4436C16.2283 14.7475 16.4975 15.2324 16.6837 15.5211C16.8699 15.8098 17.1932 16.2514 17.4022 16.5024C17.6113 16.7535 17.969 17.1362 18.1972 17.3529C18.4254 17.5697 18.7956 17.8883 19.0199 18.0611C19.2441 18.2339 19.6647 18.5185 19.9543 18.6935C20.244 18.8685 20.6966 19.106 20.9601 19.2213C21.2236 19.3366 21.6715 19.5077 21.9556 19.6015C22.2396 19.6953 22.6311 19.8089 22.8254 19.8539C23.0198 19.899 23.2644 19.9495 23.3691 19.9661L23.5593 19.9965L23.5494 22.635L23.5395 25.2735L22.8155 25.3394C22.4173 25.3757 21.8102 25.4458 21.4663 25.495C21.1224 25.5444 20.7555 25.5966 20.6508 25.6111C20.5462 25.6256 20.2648 25.6754 20.0256 25.7217C19.7864 25.7679 19.2115 25.9047 18.7481 26.0256C18.2846 26.1464 17.5874 26.3461 17.1987 26.4693C16.81 26.5925 16.0638 26.8697 15.5406 27.0853C15.0173 27.3008 14.1855 27.6869 13.6922 27.9432C13.1988 28.1995 12.5138 28.5837 12.17 28.7969C11.8261 29.0101 11.3858 29.2977 11.1914 29.4361C10.997 29.5744 10.5812 29.8862 10.2672 30.129C9.95325 30.3717 9.43569 30.8021 9.11701 31.0854C8.79838 31.3688 8.26305 31.8927 7.9274 32.2497C7.5917 32.6066 7.11047 33.1598 6.85789 33.4788C6.60531 33.7979 6.14702 34.4444 5.83948 34.9155C5.53188 35.3865 5.10996 36.1076 4.9018 36.5179C4.69364 36.9281 4.43062 37.503 4.31722 37.7955L4.11112 38.3272L3.66419 38.4998C3.41835 38.5947 2.96256 38.8439 2.65127 39.0535C2.30763 39.2849 1.91202 39.616 1.64411 39.8963C1.40148 40.1503 1.09275 40.5321 0.958031 40.7448C0.823316 40.9576 0.648642 41.2616 0.569814 41.4205C0.49104 41.5795 0.37894 41.8405 0.320715 42.0007C0.262491 42.1609 0.162351 42.5531 0.0981469 42.8721C-0.000687887 43.3634 -0.0140616 43.5709 0.0109461 44.2259C0.0291583 44.7031 0.0827617 45.1864 0.150826 45.4873C0.211551 45.7556 0.368937 46.2062 0.500608 46.4886C0.632224 46.7711 0.844898 47.1607 0.973199 47.3546C1.10144 47.5483 1.32472 47.8471 1.46933 48.0185C1.61389 48.1898 1.89729 48.4672 2.09903 48.6348C2.30084 48.8025 2.66154 49.0571 2.90069 49.2007C3.13984 49.3443 3.51539 49.535 3.73535 49.6245C3.95526 49.714 4.37816 49.8351 4.67515 49.8936C5.02983 49.9635 5.44708 50 5.89085 50C6.33838 50 6.75188 49.9635 7.11536 49.8919C7.41725 49.8324 7.86228 49.6967 8.10442 49.5903C8.34655 49.4839 8.74141 49.2777 8.98191 49.1321C9.26211 48.9624 9.61754 48.6688 9.97135 48.3147C10.275 48.0108 10.6222 47.6122 10.7428 47.4288C10.8634 47.2454 11.048 46.9222 11.1532 46.7105C11.2583 46.4988 11.4093 46.1143 11.4887 45.8561C11.568 45.5979 11.668 45.1504 11.7109 44.8615C11.7537 44.5727 11.7888 44.1996 11.7888 44.0325C11.7888 43.8653 11.7537 43.4923 11.7109 43.2034C11.668 42.9146 11.5674 42.4671 11.4874 42.2089C11.4072 41.9507 11.2678 41.5902 11.1774 41.4079C11.0871 41.2256 10.8901 40.8899 10.7397 40.662C10.5893 40.434 10.2808 40.0591 10.0541 39.8287C9.82745 39.5983 9.45853 39.2847 9.23427 39.1318C9.01002 38.979 8.65382 38.7654 8.44273 38.6574C8.23163 38.5493 7.91588 38.4187 7.74099 38.367C7.56615 38.3153 7.22007 38.2313 6.97189 38.1802L6.52078 38.0874L6.93319 37.3165C7.15999 36.8924 7.51815 36.2895 7.72908 35.9766C7.94007 35.6637 8.31269 35.154 8.55716 34.8439C8.80159 34.5338 9.18241 34.083 9.40335 33.8421C9.62434 33.6012 10.0742 33.1576 10.4031 32.8562C10.732 32.5549 11.2825 32.0904 11.6263 31.824C11.9702 31.5576 12.5084 31.1704 12.8223 30.9637C13.1363 30.7568 13.7359 30.3978 14.1549 30.1659C14.5738 29.934 15.2099 29.6115 15.5683 29.4494C15.9268 29.2873 16.5013 29.044 16.8451 28.9088C17.1888 28.7737 17.9228 28.5303 18.476 28.3681C19.0293 28.2059 19.7756 28.0108 20.1344 27.9345C20.4932 27.8583 21.1659 27.7436 21.6294 27.6798C22.0928 27.6159 22.7105 27.5448 23.0021 27.5218L23.5322 27.48L23.534 27.9239C23.535 28.168 23.5369 30.5807 23.5381 33.2855L23.5404 38.2031L23.0041 38.3982C22.7092 38.5055 22.3465 38.6647 22.1982 38.752C22.0498 38.8393 21.7549 39.0316 21.5428 39.1794C21.3308 39.3271 20.9733 39.6404 20.7484 39.8754C20.5235 40.1105 20.2017 40.5178 20.0334 40.7805C19.8649 41.0433 19.6577 41.4162 19.5728 41.6094C19.488 41.8025 19.3669 42.1594 19.3038 42.4025C19.2407 42.6456 19.1598 43.054 19.124 43.31C19.0864 43.5791 19.0725 43.9986 19.0911 44.3046C19.1087 44.5956 19.151 44.9704 19.1849 45.1376C19.2189 45.3047 19.2957 45.6155 19.3557 45.8283C19.4157 46.041 19.5591 46.408 19.6744 46.6438C19.7896 46.8797 20.0116 47.2603 20.1677 47.4897C20.3237 47.7191 20.6774 48.1229 20.9535 48.3871C21.2298 48.6512 21.6559 48.9898 21.9006 49.1395C22.1452 49.2892 22.5451 49.4928 22.7893 49.5921C23.0334 49.6913 23.49 49.8262 23.804 49.8917C24.2918 49.9936 24.4933 50.0067 25.1903 49.9823C25.7588 49.9623 26.145 49.9183 26.4654 49.8368C26.7183 49.7725 27.1485 49.6124 27.4216 49.481C27.6945 49.3495 28.0993 49.1174 28.3209 48.965C28.5426 48.8126 28.9086 48.5011 29.1342 48.2728C29.3598 48.0445 29.6736 47.6678 29.8315 47.4357C29.9893 47.2036 30.2162 46.8019 30.3356 46.5429C30.455 46.2839 30.6163 45.8307 30.6942 45.5358C30.8196 45.0606 30.836 44.8923 30.8385 44.0601C30.841 43.2578 30.8229 43.0443 30.715 42.5959C30.6454 42.3072 30.4826 41.8414 30.3533 41.5607C30.2239 41.2801 29.9951 40.8698 29.8448 40.6489C29.6946 40.428 29.3931 40.0638 29.175 39.8395C28.9568 39.6153 28.6071 39.3085 28.3978 39.1578C28.1885 39.007 27.8337 38.7893 27.6095 38.6741C27.3852 38.5589 27.0244 38.4109 26.8076 38.3453L26.4135 38.2261V32.853V27.48L26.9435 27.5211C27.2351 27.5438 27.6693 27.5891 27.9085 27.622C28.1477 27.6547 28.4413 27.6939 28.5609 27.709C28.6805 27.7242 28.9969 27.7737 29.264 27.8191C29.5311 27.8645 30.0816 27.9861 30.4872 28.0894C30.8928 28.1927 31.6194 28.4033 32.1017 28.5574C32.584 28.7115 33.3179 28.9789 33.7326 29.1517C34.1473 29.3246 34.8606 29.66 35.3176 29.8971C35.7747 30.1342 36.4475 30.5181 36.8127 30.7502C37.1779 30.9822 37.6479 31.2979 37.8572 31.4517C38.0665 31.6055 38.4702 31.9188 38.7542 32.1479C39.0383 32.3771 39.5976 32.8884 39.9973 33.2842C40.3969 33.6799 40.9369 34.2648 41.1973 34.5839C41.4577 34.903 41.844 35.4128 42.0558 35.7167C42.2677 36.0206 42.5541 36.4639 42.6922 36.7018C42.8304 36.9397 43.0509 37.3516 43.1821 37.6173L43.4208 38.1002L43.0297 38.167C42.8146 38.2037 42.4068 38.315 42.1235 38.4144C41.8402 38.5137 41.4354 38.698 41.2241 38.8239C41.0127 38.9498 40.692 39.1657 40.5115 39.3036C40.3309 39.4416 40.0168 39.7336 39.8136 39.9526C39.6104 40.1716 39.3005 40.5761 39.1252 40.8517C38.9498 41.1272 38.7327 41.5464 38.6428 41.7832C38.5529 42.0201 38.4259 42.4303 38.3607 42.6949C38.2628 43.0928 38.2428 43.329 38.2451 44.0601C38.2476 44.8442 38.2647 45.0067 38.3957 45.4967C38.477 45.8006 38.6004 46.1925 38.6699 46.3676C38.7395 46.5426 38.9276 46.9024 39.0879 47.167C39.2725 47.4717 39.5788 47.8541 39.9231 48.2096C40.2326 48.5293 40.6423 48.8851 40.8744 49.0357C41.0987 49.1813 41.4779 49.3935 41.7171 49.5074C41.9563 49.6213 42.3722 49.769 42.6413 49.8356C42.9521 49.9125 43.3865 49.9674 43.832 49.986C44.2671 50.0041 44.7111 49.9889 45.0009 49.9458C45.2579 49.9076 45.664 49.8142 45.9032 49.7383C46.1424 49.6623 46.5093 49.5127 46.7186 49.4059C46.9279 49.299 47.2299 49.1268 47.3898 49.023C47.5495 48.9192 47.9128 48.6058 48.1969 48.3264C48.4822 48.0459 48.845 47.6176 49.0074 47.3695C49.1691 47.1226 49.3851 46.7362 49.4875 46.5109C49.59 46.2856 49.7229 45.9104 49.783 45.6773C49.8431 45.444 49.9217 45.0484 49.9578 44.798C49.9978 44.5199 50.0106 44.0945 49.9908 43.7042C49.9707 43.3081 49.9077 42.8637 49.8249 42.534C49.7515 42.2417 49.6036 41.8095 49.4963 41.5735C49.3891 41.3376 49.1689 40.9427 49.0071 40.696C48.8453 40.4493 48.5088 40.0458 48.2594 39.7991C48.01 39.5524 47.5858 39.2047 47.3166 39.0264C47.0475 38.8481 46.6114 38.6138 46.3475 38.5059L45.8677 38.3097L45.608 37.6762C45.4651 37.3278 45.2059 36.7693 45.0321 36.435C44.8582 36.1007 44.4846 35.4667 44.2018 35.0263C43.919 34.5858 43.4852 33.9641 43.2379 33.6449C42.9906 33.3256 42.5717 32.8234 42.307 32.5287C42.0424 32.2341 41.5704 31.7528 41.2582 31.4592C40.946 31.1657 40.4567 30.7332 40.1709 30.4984C39.8851 30.2635 39.3944 29.884 39.0804 29.6551C38.7665 29.4261 38.1854 29.0367 37.7891 28.7897C37.3929 28.5428 36.659 28.1328 36.1582 27.8788C35.6575 27.6248 34.8441 27.2526 34.3507 27.0517C33.8573 26.8508 33.099 26.5755 32.6654 26.44C32.2318 26.3045 31.6447 26.1304 31.3606 26.0532C31.0766 25.976 30.5628 25.8521 30.219 25.7779C29.8751 25.7037 29.4715 25.6271 29.322 25.6075C29.1725 25.588 28.8177 25.5365 28.5337 25.4932C28.2496 25.4499 27.6564 25.384 27.2154 25.3468L26.4135 25.2792V22.6404V20.0017L26.6173 19.9677C26.7295 19.9491 27.061 19.8733 27.3541 19.7993C27.6471 19.7253 28.1242 19.5751 28.4142 19.4653C28.7042 19.3555 29.1616 19.1541 29.4307 19.0178C29.6998 18.8813 30.1279 18.6327 30.3821 18.4651C30.6362 18.2975 31.0154 18.0208 31.2247 17.8503C31.434 17.6798 31.787 17.3532 32.0092 17.1246C32.2313 16.896 32.5547 16.5282 32.7277 16.3071C32.9008 16.0861 33.1484 15.7379 33.278 15.5336C33.4075 15.3292 33.5895 15.0252 33.6825 14.858C33.7755 14.6909 33.9611 14.2923 34.095 13.9722C34.2289 13.6522 34.4026 13.1841 34.481 12.9318C34.5593 12.6797 34.6607 12.2577 34.7063 11.9942C34.7519 11.7307 34.8065 11.3783 34.8279 11.2112C34.8491 11.0441 34.8656 10.5095 34.8645 10.0232C34.8634 9.53699 34.8306 8.90294 34.7917 8.61423C34.7527 8.32553 34.6872 7.94013 34.6461 7.75779C34.605 7.57544 34.5 7.21491 34.4129 6.95659C34.3259 6.69828 34.2013 6.35017 34.1362 6.18303C34.071 6.01588 33.9178 5.68021 33.7956 5.43709C33.6735 5.19397 33.4275 4.77127 33.2491 4.49776C33.0705 4.22425 32.8356 3.88858 32.727 3.75182C32.6184 3.61506 32.3461 3.30746 32.1219 3.06832C31.8977 2.82912 31.5308 2.4782 31.3064 2.2884C31.0821 2.0986 30.6661 1.78823 30.3821 1.59865C30.098 1.40913 29.7237 1.18093 29.5502 1.09164C29.3767 1.0024 28.9721 0.820006 28.6511 0.6864C28.3301 0.552739 27.885 0.39145 27.6618 0.327907C27.4387 0.264364 26.9381 0.163469 26.5494 0.103794C26.0412 0.0257193 25.583 -0.00334465 24.9184 0.000302161C24.4101 0.0030649 23.7618 0.0409696 23.4778 0.0845103Z" fill="#479C2D"/>
</svg>
