<svg width="477" height="276" viewBox="0 0 477 276" fill="none" xmlns="http://www.w3.org/2000/svg">
<path d="M285.215 68.312L270.978 77.308L236.949 49.7721L202.686 77.2297L188.527 68.312C179.922 74.883 171.317 81.3759 162.712 87.947C163.103 91.6236 163.494 95.3 163.885 99.0549C174.446 101.48 185.945 104.766 198.227 109.068C212.855 114.231 225.841 120.02 237.027 125.652C248.527 119.941 261.59 114.231 276.141 108.912C288.031 104.609 299.296 101.246 309.778 98.5076L310.873 87.5558L285.215 68.312ZM273.794 99.6027C260.261 104.453 247.979 109.694 236.871 114.935C225.215 109.381 212.229 103.905 197.992 98.8987C189.622 95.9261 181.564 93.4225 173.742 91.154C178.827 87.3208 183.833 83.488 188.918 79.6548L203.311 88.8072L236.871 61.8189L270.43 88.8072L284.824 79.7332L300.078 91.2323C291.708 93.5791 282.868 96.3172 273.794 99.6027Z" fill="white"/>
<path d="M271.995 58.2987C271.995 62.2882 271.369 66.1213 270.196 69.6415L237.027 42.8882L203.703 69.6415C202.529 66.0431 201.982 62.2882 201.982 58.2987C201.982 38.1944 217.627 21.9232 236.949 21.9232C256.271 21.9232 271.995 38.1944 271.995 58.2987Z" fill="white"/>
<path d="M162.242 81.2979L171.551 74.1792C171.786 69.642 173.35 43.9052 194.863 25.4437C199.165 21.767 203.546 18.9511 207.848 16.7608C225.919 7.53003 247.431 7.60825 265.501 16.7608C270.743 19.4205 276.14 23.0188 281.225 27.9471C300.234 46.0957 301.72 68.9379 301.955 73.7097C305.084 76.1348 308.213 78.5599 311.342 80.9067C311.499 76.1349 312.359 42.7319 285.762 18.951C280.13 13.9445 274.263 10.1894 268.552 7.45149C248.37 -2.40508 224.589 -2.48315 204.328 7.21697C198.461 10.0331 192.438 13.8664 186.727 19.1076C160.443 43.045 161.929 76.839 162.242 81.2979Z" fill="white"/>
<path d="M272.386 121.506C259.4 126.277 247.51 131.284 236.793 136.369C226.78 131.597 215.984 126.825 204.25 122.288C190.404 116.89 177.184 112.509 164.824 108.911C166.388 115.013 172.49 135.821 193.064 150.997C211.212 164.452 230.065 165.625 236.793 165.704C242.894 165.704 262.999 164.608 281.851 149.98C300.782 135.273 306.727 116.108 308.37 110.006C297.105 113.057 285.059 116.812 272.386 121.506ZM214.263 151.936C193.846 144.269 183.911 128.546 181.173 123.774C192.203 127.372 204.25 131.91 216.845 137.464C229.361 143.018 240.626 148.807 250.639 154.439C244.772 155.769 230.534 158.037 214.263 151.936ZM280.834 138.403C274.185 144.661 267.536 148.415 262.764 150.606C257.601 147.711 252.516 144.817 247.431 141.845C255.176 138.324 263.468 134.804 272.386 131.518C279.113 129.015 285.606 126.747 291.942 124.713C289.517 128.624 285.919 133.553 280.834 138.403Z" fill="white"/>
<path d="M42.4767 190.579C42.7114 190.579 42.8679 190.735 42.8679 190.97V224.686C42.8679 224.999 43.0243 225.077 43.259 225.077H55.1495C55.6971 225.077 56.0099 224.842 56.0099 224.216V215.142C56.0099 214.594 55.6971 214.282 55.1495 214.282H45.684C45.3711 214.282 45.2929 214.125 45.2929 213.891V206.459C45.2929 206.224 45.4493 206.068 45.684 206.068H55.9317C58.2003 206.068 60.156 206.85 61.7987 208.415C63.3633 209.979 64.1455 211.935 64.1455 214.282V224.999C64.1455 227.267 63.3633 229.223 61.7987 230.866C60.2342 232.43 58.2785 233.212 55.9317 233.212H34.9669C34.654 233.212 34.5758 233.056 34.5758 232.821V190.892C34.5758 190.657 34.7323 190.5 34.9669 190.5H42.4767V190.579ZM76.1924 190.579C76.4271 190.579 76.5836 190.735 76.5836 190.97V232.9C76.5836 233.212 76.4271 233.291 76.1924 233.291H68.7609C68.448 233.291 68.3698 233.134 68.3698 232.9V190.97C68.3698 190.735 68.5262 190.579 68.7609 190.579H76.1924Z" fill="white"/>
<path d="M105.372 190.581C107.641 190.581 109.596 191.363 111.239 192.927C112.803 194.492 113.586 196.448 113.586 198.794V209.512C113.586 211.78 112.803 213.736 111.239 215.379C109.674 216.943 107.719 217.725 105.372 217.725H95.1242C94.8113 217.725 94.7331 217.569 94.7331 217.334V209.903C94.7331 209.59 94.8895 209.512 95.1242 209.512H104.59C105.137 209.512 105.45 209.277 105.45 208.651V199.655C105.45 199.107 105.137 198.794 104.59 198.794H92.6992C92.3863 198.794 92.3081 198.951 92.3081 199.186V232.901C92.3081 233.214 92.1516 233.292 91.9169 233.292H84.4854C84.1725 233.292 84.0942 233.136 84.0942 232.901V190.972C84.0942 190.737 84.2507 190.581 84.4854 190.581H105.372Z" fill="white"/>
<path d="M144.954 190.581C145.189 190.581 145.345 190.737 145.345 190.972V198.403C145.345 198.716 145.189 198.794 144.954 198.794H128.526C128.213 198.794 128.135 198.951 128.135 199.186V232.901C128.135 233.214 127.979 233.292 127.744 233.292H120.313C120 233.292 119.921 233.136 119.921 232.901V190.972C119.921 190.737 120.078 190.581 120.313 190.581H144.954Z" fill="white"/>
<path d="M157.705 190.579C157.94 190.579 158.096 190.735 158.096 190.97V224.686C158.096 224.999 158.253 225.077 158.488 225.077H170.378C170.926 225.077 171.238 224.842 171.238 224.216V215.142C171.238 214.594 170.926 214.282 170.378 214.282H160.991C160.678 214.282 160.6 214.125 160.6 213.891V206.459C160.6 206.224 160.756 206.068 160.991 206.068H171.238C173.507 206.068 175.463 206.85 177.105 208.415C178.67 209.979 179.452 211.935 179.452 214.282V224.999C179.452 227.267 178.67 229.223 177.105 230.866C175.541 232.43 173.585 233.212 171.238 233.212H150.274C149.961 233.212 149.883 233.056 149.883 232.821V190.892C149.883 190.657 150.039 190.5 150.274 190.5H157.705V190.579ZM191.421 190.579C191.656 190.579 191.812 190.735 191.812 190.97V232.9C191.812 233.212 191.656 233.291 191.421 233.291H183.989C183.677 233.291 183.598 233.134 183.598 232.9V190.97C183.598 190.735 183.755 190.579 183.989 190.579H191.421Z" fill="white"/>
<path d="M218.487 190.58C220.756 190.58 222.712 191.363 224.354 192.927C225.919 194.492 226.701 196.447 226.701 198.794V205.991C226.701 206.539 226.623 207.164 226.466 207.79C226.31 208.416 226.075 209.042 225.606 209.59C225.215 210.137 224.589 210.606 223.807 210.997C223.024 211.389 222.086 211.702 220.834 211.78V212.093C222.008 212.327 223.024 212.64 223.807 213.031C224.589 213.423 225.137 213.892 225.606 214.439C225.997 214.987 226.31 215.535 226.466 216.161C226.623 216.786 226.701 217.334 226.701 217.881V225.078C226.701 227.347 225.919 229.303 224.354 230.945C222.79 232.51 220.834 233.292 218.487 233.292H206.128C203.859 233.292 201.903 232.51 200.26 230.945C198.696 229.381 197.914 227.425 197.914 225.078V221.636C197.914 221.324 198.07 221.167 198.305 221.167L205.736 219.994C205.971 219.915 206.128 220.072 206.128 220.306V224.218C206.128 224.765 206.362 225.078 206.988 225.078H217.705C218.253 225.078 218.566 224.844 218.566 224.218V216.786C218.566 216.239 218.253 215.926 217.705 215.926H207.457C207.144 215.926 207.066 215.769 207.066 215.535V208.103C207.066 207.868 207.223 207.712 207.457 207.712H217.705C218.253 207.712 218.566 207.477 218.566 206.852V199.42C218.566 198.872 218.253 198.56 217.705 198.56H206.988C206.44 198.56 206.128 198.872 206.128 199.42V203.331C206.128 203.644 205.971 203.722 205.736 203.644L198.305 202.471C197.992 202.393 197.914 202.236 197.914 202.001V198.56C197.914 196.291 198.696 194.335 200.26 192.693C201.825 191.128 203.781 190.346 206.128 190.346H218.487V190.58Z" fill="white"/>
<path d="M262.92 190.581C263.155 190.581 263.312 190.737 263.312 190.972V232.901C263.312 233.214 263.155 233.292 262.92 233.292H255.489C255.176 233.292 255.098 233.136 255.098 232.901V199.186C255.098 198.873 254.941 198.794 254.707 198.794H242.347C242.034 198.794 241.956 198.951 241.956 199.186V232.901C241.956 233.214 241.799 233.292 241.564 233.292H234.133C233.82 233.292 233.742 233.136 233.742 232.901V190.972C233.742 190.737 233.898 190.581 234.133 190.581H262.92Z" fill="white"/>
<path d="M292.099 190.581C294.368 190.581 296.323 191.363 297.966 192.927C299.53 194.492 300.313 196.448 300.313 198.794V209.512C300.313 211.78 299.53 213.736 297.966 215.379C296.401 216.943 294.446 217.725 292.099 217.725H281.851C281.538 217.725 281.46 217.569 281.46 217.334V209.903C281.46 209.59 281.617 209.512 281.851 209.512H291.317C291.864 209.512 292.177 209.277 292.177 208.651V199.655C292.177 199.107 291.864 198.794 291.317 198.794H279.426C279.113 198.794 279.035 198.951 279.035 199.186V232.901C279.035 233.214 278.879 233.292 278.644 233.292H271.212C270.9 233.292 270.821 233.136 270.821 232.901V190.972C270.821 190.737 270.978 190.581 271.212 190.581H292.099Z" fill="white"/>
<path d="M327.535 190.581C329.804 190.581 331.76 191.363 333.402 192.927C334.967 194.492 335.749 196.448 335.749 198.794V225.079C335.749 227.347 334.967 229.303 333.402 230.946C331.838 232.51 329.882 233.292 327.535 233.292H314.393C312.125 233.292 310.169 232.51 308.526 230.946C306.962 229.381 306.179 227.425 306.179 225.079V198.794C306.179 196.526 306.962 194.57 308.526 192.927C310.091 191.363 312.046 190.581 314.393 190.581H327.535ZM327.535 199.655C327.535 199.107 327.222 198.794 326.675 198.794H315.176C314.628 198.794 314.315 199.107 314.315 199.655V224.296C314.315 224.844 314.55 225.157 315.176 225.157H326.675C327.222 225.157 327.535 224.922 327.535 224.296V199.655Z" fill="white"/>
<path d="M371.108 190.579C371.343 190.579 371.5 190.735 371.5 190.97V224.686C371.5 224.999 371.656 225.077 371.891 225.077H375.176C375.411 225.077 375.567 225.233 375.567 225.468V242.756C375.567 242.991 375.411 243.147 375.176 243.147H367.745C367.432 243.147 367.354 242.991 367.354 242.756V233.682C367.354 233.369 367.197 233.291 366.962 233.291H348.501C348.188 233.291 348.11 233.447 348.11 233.682V242.756C348.11 242.991 347.953 243.147 347.719 243.147H340.287C339.974 243.147 339.896 242.991 339.896 242.756V225.468C339.896 225.155 340.052 225.077 340.287 225.077H340.991C342.712 225.077 343.573 224.216 343.651 222.573L345.215 198.714C345.372 196.446 346.232 194.49 347.719 192.847C349.205 191.283 351.161 190.5 353.429 190.5H371.108V190.579ZM363.286 199.184C363.286 198.871 363.129 198.793 362.895 198.793H354.994C353.977 198.793 353.429 199.34 353.351 200.435L351.786 224.686C351.786 224.999 351.943 225.077 352.178 225.077H362.895C363.129 225.077 363.286 224.92 363.286 224.686V199.184Z" fill="white"/>
<path d="M411.708 190.581C411.942 190.581 412.021 190.737 411.942 190.972L397.079 225.079C396.61 226.096 396.141 227.112 395.671 228.129C395.202 229.146 394.654 230.007 393.95 230.789C393.324 231.571 392.62 232.197 391.76 232.667C390.899 233.136 389.961 233.371 388.787 233.371H384.641C384.328 233.371 384.25 233.214 384.25 232.98V225.548C384.25 225.235 384.407 225.157 384.641 225.157H387.144C387.614 225.157 388.005 224.922 388.318 224.453L389.726 221.324C389.804 221.089 389.804 220.776 389.726 220.463L377.288 191.05C377.21 190.815 377.288 190.659 377.523 190.659H385.815C386.128 190.659 386.362 190.815 386.362 191.05L386.988 192.615C387.77 194.57 388.474 196.369 389.022 198.012C389.648 199.733 390.195 201.532 390.821 203.41L394.107 214.831C394.185 215.3 394.341 215.3 394.42 214.831L398.018 203.097C398.644 201.141 399.27 199.342 399.895 197.699C400.521 195.978 401.225 194.257 402.008 192.38L402.555 191.05C402.633 190.815 402.79 190.659 403.103 190.659H411.708V190.581Z" fill="white"/>
<path d="M446.44 190.581C446.675 190.581 446.832 190.737 446.675 190.972L437.523 210.45C437.053 211.467 437.053 212.406 437.523 213.423L446.675 232.901C446.753 233.214 446.675 233.292 446.44 233.292H438.148C437.836 233.292 437.679 233.136 437.601 232.901L430.091 216.787C429.778 216.317 429.465 216.083 428.918 216.083H425.241C424.928 216.083 424.85 216.239 424.85 216.474V232.901C424.85 233.214 424.693 233.292 424.459 233.292H417.027C416.714 233.292 416.636 233.136 416.636 232.901V190.972C416.636 190.737 416.792 190.581 417.027 190.581H424.459C424.693 190.581 424.85 190.737 424.85 190.972V207.399C424.85 207.712 425.006 207.79 425.241 207.79H428.918C429.387 207.79 429.778 207.556 430.091 207.086L437.601 190.972C437.679 190.737 437.914 190.581 438.148 190.581H446.44Z" fill="white"/>
<path d="M29.8044 190.581C30.0391 190.581 30.1955 190.737 30.0391 190.972L20.8865 210.45C20.4172 211.467 20.4172 212.406 20.8865 213.423L30.0391 232.901C30.1173 233.214 30.0391 233.292 29.8044 233.292H21.5124C21.1995 233.292 21.043 233.136 20.9648 232.901L13.455 216.787C13.1421 216.317 12.8292 216.083 12.2816 216.083H8.60495C8.29204 216.083 8.21381 216.239 8.21381 216.474V232.901C8.21381 233.214 8.05736 233.292 7.82268 233.292H0.391134C0.0782268 233.292 0 233.136 0 232.901V190.972C0 190.737 0.156454 190.581 0.391134 190.581H7.82268C8.05736 190.581 8.21381 190.737 8.21381 190.972V207.399C8.21381 207.712 8.37027 207.79 8.60495 207.79H12.2816C12.751 207.79 13.1421 207.556 13.455 207.086L20.9648 190.972C21.043 190.737 21.2777 190.581 21.5124 190.581H29.8044Z" fill="white"/>
<path d="M475.932 190.581C476.167 190.581 476.323 190.737 476.323 190.972V198.403C476.323 198.716 476.167 198.794 475.932 198.794H466.858C466.545 198.794 466.467 198.951 466.467 199.186V232.901C466.467 233.214 466.31 233.292 466.075 233.292H458.644C458.331 233.292 458.253 233.136 458.253 232.901V199.186C458.253 198.873 458.096 198.794 457.862 198.794H448.787C448.474 198.794 448.396 198.638 448.396 198.403V190.972C448.396 190.737 448.553 190.581 448.787 190.581H475.932Z" fill="white"/>
<path d="M74.4723 270.06L77.2102 255.823H70.8738L68.1359 270.06H64.6939L68.0577 252.772H81.3562L77.9925 270.06H74.4723Z" fill="white"/>
<path d="M91.9165 265.757C91.6818 267.086 91.056 268.182 90.2737 269.042C89.4914 269.903 88.2398 270.293 86.7535 270.293C86.2841 270.293 85.8148 270.215 85.2672 270.137C84.7196 270.059 84.0938 269.824 83.5462 269.511L82.451 275.065H79.3219L82.6857 257.699H85.5801V258.794C86.3624 258.325 87.0664 258.012 87.7705 257.856C88.3963 257.621 88.9439 257.543 89.4132 257.543C90.5084 257.543 91.3689 257.777 91.9165 258.325C92.4641 258.873 92.777 259.655 92.777 260.672C92.777 261.141 92.6987 261.61 92.6205 262.08L91.9165 265.757ZM89.335 262.393C89.4132 262.158 89.4132 261.923 89.4132 261.767C89.4132 261.297 89.2568 260.985 89.0221 260.828C88.7874 260.672 88.4745 260.593 88.1616 260.593C87.7705 260.593 87.3011 260.672 86.6753 260.906C86.0495 261.141 85.5019 261.376 85.0325 261.689L84.0938 266.617C84.6414 266.852 85.1107 267.086 85.5019 267.164C85.893 267.243 86.2841 267.321 86.6753 267.321C87.1446 267.321 87.614 267.165 88.0051 266.93C88.3963 266.695 88.7092 266.148 88.7874 265.444L89.335 262.393Z" fill="white"/>
<path d="M104.981 265.679C104.668 267.244 104.043 268.339 103.026 269.043C102.009 269.747 100.679 270.138 99.036 270.138C98.4102 270.138 97.7844 270.06 97.2368 269.825C96.6893 269.669 96.1417 269.356 95.6723 268.965C95.2029 268.574 94.89 268.104 94.5771 267.556C94.3424 267.009 94.186 266.383 94.186 265.601C94.186 265.444 94.186 265.21 94.186 265.053C94.186 264.897 94.2642 264.662 94.2642 264.506L94.7336 261.924C95.0465 260.36 95.6723 259.265 96.611 258.482C97.628 257.7 98.8796 257.387 100.444 257.387C101.226 257.387 101.852 257.465 102.478 257.7C103.104 257.935 103.651 258.248 104.043 258.639C104.512 259.03 104.825 259.499 105.06 260.047C105.294 260.595 105.451 261.22 105.451 261.846C105.451 262.237 105.451 262.628 105.372 262.941L104.981 265.679ZM102.322 263.019C102.4 262.785 102.4 262.628 102.4 262.394C102.4 261.768 102.165 261.22 101.774 260.907C101.383 260.594 100.913 260.438 100.366 260.438C99.8183 260.438 99.2707 260.594 98.8796 260.907C98.4884 261.22 98.1756 261.768 98.0191 262.628L97.5498 264.897C97.4715 265.131 97.4715 265.366 97.4715 265.523C97.4715 265.836 97.5498 266.148 97.628 266.383C97.7844 266.618 97.9409 266.774 98.0973 266.931C98.2538 267.087 98.4885 267.165 98.7232 267.244C98.9578 267.322 99.1925 267.322 99.4272 267.322C100.053 267.322 100.601 267.165 100.992 266.852C101.383 266.54 101.696 265.992 101.852 265.132L102.322 263.019Z" fill="white"/>
<path d="M113.429 251.91C114.524 251.91 115.385 252.067 116.167 252.301C116.949 252.536 117.497 252.927 117.888 253.319C118.279 253.788 118.592 254.335 118.827 254.883C118.983 255.509 119.062 256.135 119.062 256.839C119.062 257.308 118.983 257.856 118.905 258.482C118.827 259.107 118.749 259.655 118.67 260.281L117.732 265.365C117.575 266.226 117.341 266.93 116.949 267.556C116.637 268.181 116.167 268.651 115.698 269.042C115.228 269.433 114.603 269.668 113.977 269.902C113.351 270.137 112.725 270.137 112.021 270.137C110.378 270.137 109.127 269.746 108.266 268.964C107.406 268.182 106.936 267.165 106.936 265.757C106.936 265.6 106.936 265.366 106.936 265.131C106.936 264.896 107.015 264.661 107.015 264.427L107.328 262.784C107.484 262.08 107.64 261.454 107.875 260.828C108.11 260.281 108.423 259.733 108.814 259.342C109.205 258.951 109.674 258.638 110.222 258.403C110.77 258.169 111.474 258.09 112.256 258.09C112.725 258.09 113.273 258.169 113.899 258.325C114.524 258.481 115.072 258.716 115.62 259.107L115.776 258.403C115.854 258.169 115.854 257.934 115.854 257.699C115.854 257.465 115.854 257.23 115.933 256.995C115.933 256.213 115.698 255.587 115.228 255.196C114.759 254.805 113.977 254.57 112.803 254.57C112.491 254.57 112.256 254.57 111.943 254.57C111.63 254.57 111.317 254.648 110.926 254.726C110.848 254.257 110.77 253.866 110.77 253.397C110.691 253.006 110.691 252.536 110.613 252.145C111.63 252.067 112.569 251.91 113.429 251.91ZM112.882 261.063C112.334 261.063 111.865 261.22 111.474 261.611C111.082 262.002 110.77 262.549 110.613 263.488L110.3 264.818C110.222 265.131 110.222 265.366 110.222 265.522C110.222 266.226 110.378 266.695 110.77 267.008C111.161 267.321 111.63 267.478 112.334 267.478C112.882 267.478 113.351 267.321 113.82 267.008C114.29 266.695 114.603 266.148 114.759 265.287L115.072 263.723C115.072 263.488 115.15 263.253 115.228 262.862C115.307 262.549 115.307 262.236 115.385 262.002C114.994 261.689 114.603 261.532 114.212 261.376C113.742 261.141 113.351 261.063 112.882 261.063Z" fill="white"/>
<path d="M119.531 275.066L122.425 269.826L121.721 269.278L120.548 257.7H123.755L124.068 262.237L124.303 266.54H124.381L127.197 261.064C127.354 260.751 127.51 260.438 127.588 260.125C127.667 259.89 127.823 259.656 127.901 259.421C127.98 259.186 128.058 258.952 128.058 258.795C128.058 258.561 128.058 258.326 128.058 258.091V257.7H131.265V258.091C131.265 258.874 131.187 259.5 130.952 260.047C130.717 260.595 130.483 261.22 130.092 261.846L122.738 275.145H119.531V275.066Z" fill="white"/>
<path d="M143.781 257.621L142.138 261.219C141.825 261.845 141.512 262.315 141.121 262.706C140.73 263.097 140.339 263.41 139.791 263.566C140.339 263.801 140.73 264.035 140.886 264.505C141.043 264.896 141.199 265.443 141.278 266.069L141.903 270.059H138.618L138.227 266.695C138.149 265.913 137.914 265.443 137.601 265.287C137.21 265.052 136.74 264.974 136.193 264.974H134.941L134.003 270.059H130.873L133.142 257.621H136.271L135.411 262.08H136.584C137.132 262.08 137.523 262.001 137.914 261.767C138.305 261.532 138.618 261.141 139.009 260.437L140.339 257.621H143.781Z" fill="white"/>
<path d="M156.219 262.158C155.907 263.644 155.672 265.131 155.359 266.695C155.359 266.774 155.359 266.93 155.281 267.008C155.281 267.086 155.281 267.243 155.281 267.321C155.281 267.634 155.359 268.025 155.515 268.26C155.672 268.573 155.907 268.807 156.298 268.886C156.141 269.668 155.985 270.45 155.828 271.154C155.672 271.936 155.515 272.64 155.437 273.423H152.856C152.934 272.875 153.012 272.328 153.09 271.702C153.169 271.154 153.247 270.606 153.325 269.981C153.012 269.824 152.777 269.668 152.621 269.355C152.465 269.042 152.308 268.729 152.308 268.494C151.839 268.886 151.369 269.12 150.9 269.355C150.431 269.59 149.961 269.746 149.57 269.824C149.179 269.903 148.788 269.981 148.475 270.059C148.162 270.059 147.927 270.137 147.693 270.137C146.598 270.137 145.737 269.824 145.268 269.277C144.72 268.729 144.485 267.947 144.485 266.93C144.485 266.695 144.485 266.382 144.564 266.226C144.564 265.991 144.642 265.757 144.642 265.522C144.877 264.192 145.189 262.862 145.424 261.611C145.659 260.281 145.972 258.951 146.206 257.699H149.414C149.179 258.951 148.944 260.202 148.631 261.532C148.397 262.784 148.162 264.114 147.927 265.365C147.927 265.444 147.927 265.6 147.849 265.678C147.849 265.835 147.849 265.913 147.849 265.991C147.849 266.382 147.927 266.695 148.162 266.93C148.397 267.086 148.788 267.243 149.179 267.243C149.57 267.243 150.039 267.165 150.509 266.93C151.056 266.773 151.604 266.46 152.308 265.991L153.951 257.621H157.158C156.845 259.185 156.532 260.672 156.219 262.158Z" fill="white"/>
<path d="M162.947 257.699L161.46 265.287C161.46 265.365 161.46 265.522 161.46 265.6C161.46 265.678 161.46 265.757 161.46 265.835C161.46 266.304 161.617 266.695 161.851 266.852C162.086 267.008 162.399 267.164 162.79 267.164C163.181 267.164 163.651 267.086 164.12 266.852C164.589 266.695 165.215 266.382 165.919 265.913L167.562 257.621H170.769L168.344 269.981H165.372L165.293 268.886C164.824 269.198 164.355 269.433 163.964 269.59C163.572 269.746 163.181 269.902 162.868 269.981C162.556 270.059 162.243 270.137 162.008 270.137C161.773 270.137 161.539 270.137 161.304 270.137C160.209 270.137 159.348 269.824 158.879 269.198C158.331 268.573 158.097 267.79 158.097 266.852C158.097 266.382 158.175 265.913 158.253 265.444L159.818 257.543H162.947V257.699Z" fill="white"/>
<path d="M178.045 263.098L177.732 265.445H176.558C176.167 265.445 175.854 265.523 175.62 265.679C175.385 265.836 175.15 266.149 174.916 266.618L173.664 270.06H170.378L172.021 265.914C172.099 265.601 172.334 265.366 172.569 264.975C172.803 264.662 173.195 264.428 173.586 264.349C173.038 264.115 172.569 263.802 172.334 263.411C172.099 263.019 171.943 262.55 171.943 262.003C171.943 261.846 171.943 261.611 172.021 261.377C172.021 261.142 172.099 260.985 172.099 260.907C172.256 260.203 172.491 259.656 172.882 259.186C173.195 258.717 173.586 258.404 174.055 258.091C174.524 257.857 174.994 257.622 175.62 257.544C176.167 257.465 176.793 257.387 177.497 257.387C178.279 257.387 179.218 257.465 180.157 257.7C181.174 257.857 182.112 258.169 182.973 258.639L180.939 270.06H177.81L179.687 260.516C178.827 260.203 178.123 260.125 177.419 260.125C176.793 260.125 176.324 260.281 176.011 260.516C175.698 260.751 175.463 261.142 175.307 261.612C175.307 261.69 175.229 261.768 175.229 261.846C175.229 261.924 175.229 262.002 175.229 262.081C175.229 262.315 175.307 262.55 175.463 262.785C175.62 263.02 175.933 263.098 176.48 263.098H178.045Z" fill="white"/>
<path d="M196.662 257.465C197.523 257.465 198.227 257.543 198.853 257.778C199.4 257.935 199.87 258.248 200.183 258.482C200.495 258.795 200.73 259.108 200.887 259.499C201.043 259.89 201.121 260.203 201.121 260.594C201.121 261.064 200.965 261.533 200.73 262.003C200.495 262.55 200.026 262.863 199.322 263.098C199.948 263.332 200.417 263.645 200.652 264.114C200.965 264.584 201.121 265.053 201.121 265.523C201.121 266.07 201.043 266.618 200.887 267.165C200.73 267.713 200.417 268.26 199.948 268.73C199.478 269.199 198.931 269.591 198.149 269.825C197.366 270.138 196.428 270.294 195.254 270.294C194.081 270.294 193.064 270.138 192.125 269.825C191.186 269.512 190.326 269.199 189.544 268.73L190.795 262.159C190.874 261.611 191.108 260.986 191.343 260.438C191.578 259.89 191.969 259.343 192.36 258.874C192.829 258.404 193.377 258.091 194.081 257.778C194.785 257.622 195.645 257.465 196.662 257.465ZM196.506 260.281C196.037 260.281 195.724 260.359 195.411 260.516C195.098 260.672 194.863 260.829 194.707 261.064C194.55 261.298 194.394 261.533 194.237 261.768C194.159 262.002 194.081 262.237 194.003 262.472L193.142 266.931C193.377 267.087 193.768 267.165 194.159 267.244C194.628 267.322 195.02 267.4 195.411 267.4C195.958 267.4 196.349 267.322 196.662 267.244C196.975 267.087 197.21 266.931 197.366 266.774C197.523 266.618 197.679 266.383 197.679 266.227C197.758 266.07 197.757 265.914 197.757 265.757C197.757 265.444 197.679 265.132 197.445 264.975C197.21 264.74 196.741 264.662 196.115 264.662H195.254L195.567 262.472H196.506C196.975 262.472 197.288 262.393 197.523 262.159C197.758 261.924 197.836 261.689 197.836 261.377C197.836 261.064 197.758 260.829 197.523 260.594C197.288 260.36 196.975 260.281 196.506 260.281Z" fill="white"/>
<path d="M204.407 257.699H207.536L206.754 261.532C206.989 261.454 207.301 261.298 207.614 261.219C207.927 261.141 208.24 261.063 208.553 260.985C208.866 260.906 209.179 260.828 209.414 260.828C209.727 260.75 209.883 260.75 210.118 260.75C210.665 260.75 211.135 260.828 211.604 260.985C212.073 261.141 212.464 261.376 212.777 261.689C213.09 262.001 213.325 262.315 213.56 262.706C213.716 263.097 213.794 263.566 213.794 264.035V264.27C213.794 264.583 213.716 264.974 213.716 265.365C213.638 265.756 213.638 266.148 213.481 266.46C213.325 267.008 213.09 267.556 212.856 268.025C212.621 268.494 212.23 268.885 211.839 269.198C211.369 269.511 210.9 269.746 210.196 269.981C209.57 270.137 208.788 270.216 207.927 270.216C207.614 270.216 207.145 270.215 206.754 270.137C206.285 270.059 205.815 270.059 205.346 269.902C204.876 269.824 204.329 269.668 203.781 269.511C203.234 269.355 202.686 269.12 202.217 268.807L204.407 257.699ZM207.771 267.478C208.24 267.478 208.553 267.399 208.866 267.321C209.179 267.243 209.414 267.165 209.57 267.008C209.726 266.852 209.883 266.695 209.961 266.539C210.039 266.382 210.118 266.226 210.196 265.991C210.274 265.756 210.274 265.522 210.352 265.287C210.352 265.052 210.352 264.896 210.352 264.818C210.352 264.426 210.196 264.114 209.961 263.957C209.726 263.801 209.414 263.722 209.022 263.722C208.631 263.722 208.162 263.801 207.693 263.957C207.145 264.114 206.676 264.348 206.128 264.583L205.58 267.008C205.972 267.165 206.363 267.243 206.754 267.321C207.223 267.399 207.536 267.478 207.771 267.478ZM214.264 270.059L216.61 257.621H219.74L217.315 270.059H214.264Z" fill="white"/>
<path d="M227.875 269.825C227.093 270.06 226.232 270.138 225.294 270.138C224.668 270.138 224.042 270.06 223.494 269.903C222.947 269.747 222.477 269.434 222.086 269.121C221.695 268.808 221.382 268.339 221.148 267.87C220.913 267.4 220.835 266.774 220.835 266.148C220.835 265.992 220.835 265.835 220.835 265.679C220.835 265.523 220.913 265.366 220.913 265.132L221.46 261.924C221.773 260.438 222.399 259.264 223.416 258.56C224.433 257.856 225.685 257.465 227.093 257.465C227.484 257.465 227.875 257.465 228.266 257.544C228.657 257.622 229.048 257.7 229.44 257.856C229.831 258.013 230.222 258.169 230.535 258.404C230.848 258.639 231.161 258.951 231.473 259.343L229.596 261.611C229.127 261.064 228.736 260.751 228.188 260.594C227.719 260.438 227.327 260.36 227.015 260.36C226.389 260.36 225.841 260.516 225.372 260.907C224.981 261.22 224.668 261.768 224.511 262.55L224.042 265.053C224.042 265.132 224.042 265.21 224.042 265.288C224.042 265.366 224.042 265.445 224.042 265.523C224.042 266.149 224.277 266.539 224.668 266.774C225.059 267.009 225.528 267.165 225.998 267.165C226.31 267.165 226.78 267.087 227.249 266.931C227.719 266.774 228.266 266.461 228.735 265.992L230.535 268.417C229.518 269.199 228.657 269.669 227.875 269.825Z" fill="white"/>
<path d="M242.895 265.679C242.582 267.244 241.956 268.339 240.939 269.043C239.922 269.747 238.592 270.138 236.95 270.138C236.324 270.138 235.698 270.06 235.15 269.825C234.603 269.669 234.055 269.356 233.586 268.965C233.116 268.574 232.804 268.104 232.491 267.556C232.256 267.009 232.1 266.383 232.1 265.601C232.1 265.444 232.1 265.21 232.1 265.053C232.1 264.897 232.178 264.662 232.178 264.506L232.647 261.924C232.96 260.36 233.586 259.265 234.525 258.482C235.541 257.7 236.793 257.387 238.358 257.387C239.14 257.387 239.766 257.465 240.392 257.7C241.017 257.935 241.565 258.248 241.956 258.639C242.425 259.03 242.738 259.499 242.973 260.047C243.208 260.595 243.364 261.22 243.364 261.846C243.364 262.237 243.364 262.628 243.286 262.941L242.895 265.679ZM240.235 263.019C240.313 262.785 240.313 262.628 240.313 262.394C240.313 261.768 240.079 261.22 239.687 260.907C239.296 260.594 238.827 260.438 238.279 260.438C237.732 260.438 237.184 260.594 236.793 260.907C236.402 261.22 236.089 261.768 235.933 262.628L235.463 264.897C235.385 265.131 235.385 265.366 235.385 265.523C235.385 265.836 235.463 266.148 235.541 266.383C235.698 266.618 235.854 266.774 236.011 266.931C236.167 267.087 236.402 267.165 236.637 267.244C236.871 267.322 237.106 267.322 237.341 267.322C237.966 267.322 238.514 267.165 238.905 266.852C239.296 266.54 239.609 265.992 239.766 265.132L240.235 263.019Z" fill="white"/>
<path d="M257.21 257.621L255.567 261.219C255.254 261.845 254.941 262.315 254.55 262.706C254.159 263.097 253.768 263.41 253.22 263.566C253.768 263.801 254.159 264.035 254.315 264.505C254.472 264.896 254.628 265.443 254.707 266.069L255.332 270.059H252.047L251.656 266.695C251.578 265.913 251.343 265.443 251.03 265.287C250.639 265.052 250.169 264.974 249.622 264.974H248.37L247.432 270.059H244.302L246.571 257.621H249.7L248.84 262.08H250.013C250.561 262.08 250.952 262.001 251.343 261.767C251.734 261.532 252.047 261.141 252.438 260.437L253.768 257.621H257.21Z" fill="white"/>
<path d="M268.788 265.679C268.475 267.244 267.849 268.339 266.832 269.043C265.815 269.747 264.485 270.138 262.842 270.138C262.217 270.138 261.591 270.06 261.043 269.825C260.496 269.669 259.948 269.356 259.479 268.965C259.009 268.574 258.696 268.104 258.384 267.556C258.149 267.009 257.992 266.383 257.992 265.601C257.992 265.444 257.992 265.21 257.992 265.053C257.992 264.897 258.071 264.662 258.071 264.506L258.54 261.924C258.853 260.36 259.479 259.265 260.417 258.482C261.434 257.7 262.686 257.387 264.251 257.387C265.033 257.387 265.659 257.465 266.284 257.7C266.91 257.935 267.458 258.248 267.849 258.639C268.318 259.03 268.631 259.499 268.866 260.047C269.101 260.595 269.257 261.22 269.257 261.846C269.257 262.237 269.257 262.628 269.179 262.941L268.788 265.679ZM266.128 263.019C266.206 262.785 266.206 262.628 266.206 262.394C266.206 261.768 265.972 261.22 265.58 260.907C265.189 260.594 264.72 260.438 264.172 260.438C263.625 260.438 263.077 260.594 262.686 260.907C262.295 261.22 261.982 261.768 261.826 262.628L261.356 264.897C261.278 265.131 261.278 265.366 261.278 265.523C261.278 265.836 261.356 266.148 261.434 266.383C261.591 266.618 261.747 266.774 261.904 266.931C262.06 267.087 262.295 267.165 262.53 267.244C262.764 267.322 262.999 267.322 263.234 267.322C263.859 267.322 264.407 267.165 264.798 266.852C265.189 266.54 265.502 265.992 265.659 265.132L266.128 263.019Z" fill="white"/>
<path d="M277.08 257.543C277.705 257.543 278.253 257.621 278.8 257.778C279.348 257.934 279.817 258.169 280.209 258.404C280.6 258.638 280.913 259.029 281.147 259.421C281.382 259.812 281.46 260.281 281.46 260.829C281.46 261.376 281.382 261.924 281.147 262.315C280.991 262.706 280.678 263.097 280.443 263.332C280.13 263.645 279.817 263.879 279.426 264.036C279.035 264.192 278.644 264.427 278.175 264.505C277.784 264.662 277.314 264.74 276.923 264.818C276.532 264.896 276.063 264.975 275.75 265.053C275.28 265.131 274.889 265.288 274.498 265.444C274.107 265.601 273.95 265.914 273.95 266.305C273.95 266.618 274.107 266.852 274.42 267.009C274.733 267.165 275.202 267.243 275.75 267.243C276.375 267.243 277.001 267.165 277.549 266.93C278.096 266.774 278.722 266.461 279.348 265.992C279.583 266.383 279.817 266.774 280.052 267.165C280.287 267.556 280.521 267.947 280.756 268.338C280.287 268.651 279.739 268.964 279.27 269.121C278.801 269.355 278.331 269.512 277.862 269.59C277.392 269.668 276.923 269.825 276.532 269.825C276.063 269.903 275.671 269.903 275.202 269.903C274.576 269.903 273.95 269.825 273.403 269.668C272.855 269.512 272.386 269.356 271.917 269.043C271.525 268.73 271.212 268.417 270.978 268.026C270.743 267.634 270.587 267.165 270.587 266.618C270.587 265.757 270.743 265.053 271.134 264.505C271.525 263.958 271.995 263.567 272.542 263.254C273.09 262.941 273.716 262.706 274.342 262.55C274.967 262.393 275.593 262.237 276.141 262.159C276.688 262.002 277.158 261.846 277.549 261.689C277.94 261.533 278.096 261.22 278.096 260.907C278.096 260.672 277.94 260.438 277.705 260.281C277.471 260.125 277.079 260.047 276.61 260.047C276.063 260.047 275.515 260.125 274.967 260.281C274.42 260.438 273.794 260.751 273.09 261.142L271.838 258.795C272.308 258.482 272.777 258.247 273.168 258.013C273.559 257.778 274.029 257.621 274.42 257.543C274.811 257.465 275.28 257.387 275.671 257.309C276.219 257.543 276.61 257.543 277.08 257.543Z" fill="white"/>
<path d="M293.664 265.679C293.351 267.244 292.725 268.339 291.708 269.043C290.691 269.747 289.361 270.138 287.719 270.138C287.093 270.138 286.467 270.06 285.919 269.825C285.372 269.669 284.824 269.356 284.355 268.965C283.885 268.574 283.573 268.104 283.26 267.556C283.025 267.009 282.868 266.383 282.868 265.601C282.868 265.444 282.868 265.21 282.868 265.053C282.868 264.897 282.947 264.662 282.947 264.506L283.416 261.924C283.729 260.36 284.355 259.265 285.294 258.482C286.31 257.7 287.562 257.387 289.127 257.387C289.909 257.387 290.535 257.465 291.161 257.7C291.786 257.935 292.334 258.248 292.725 258.639C293.194 259.03 293.507 259.499 293.742 260.047C293.977 260.595 294.133 261.22 294.133 261.846C294.133 262.237 294.133 262.628 294.055 262.941L293.664 265.679ZM291.004 263.019C291.082 262.785 291.082 262.628 291.082 262.394C291.082 261.768 290.848 261.22 290.456 260.907C290.065 260.594 289.596 260.438 289.048 260.438C288.501 260.438 287.953 260.594 287.562 260.907C287.171 261.22 286.858 261.768 286.702 262.628L286.232 264.897C286.154 265.131 286.154 265.366 286.154 265.523C286.154 265.836 286.232 266.148 286.31 266.383C286.467 266.618 286.623 266.774 286.78 266.931C286.936 267.087 287.171 267.165 287.406 267.244C287.64 267.322 287.875 267.322 288.11 267.322C288.736 267.322 289.283 267.165 289.674 266.852C290.065 266.54 290.378 265.992 290.535 265.132L291.004 263.019Z" fill="white"/>
<path d="M314.315 257.621L312.673 261.219C312.36 261.845 312.047 262.315 311.656 262.706C311.265 263.097 310.874 263.41 310.326 263.566C310.874 263.801 311.265 264.035 311.421 264.505C311.578 264.896 311.734 265.443 311.812 266.069L312.438 270.059H309.153L308.761 266.695C308.683 265.913 308.448 265.443 308.136 265.287C307.744 265.052 307.275 264.974 306.727 264.974H305.476L304.537 270.059H301.408L303.677 257.621H306.806L305.945 262.08H307.119C307.666 262.08 308.057 262.001 308.448 261.767C308.84 261.532 309.153 261.141 309.544 260.437L310.873 257.621H314.315Z" fill="white"/>
<path d="M315.645 262.003C316.271 258.952 317.914 257.465 320.573 257.465C321.043 257.465 321.512 257.544 322.138 257.7C322.764 257.857 323.39 258.169 324.015 258.56L324.485 257.622H327.379L324.954 269.981H321.982L321.903 268.965C321.043 269.434 320.261 269.747 319.635 269.903C319.009 270.06 318.54 270.138 318.07 270.138C316.897 270.138 316.036 269.825 315.567 269.278C315.019 268.73 314.785 267.948 314.785 266.931C314.785 266.696 314.785 266.462 314.785 266.305C314.785 266.07 314.863 265.835 314.863 265.601L315.645 262.003ZM318.227 265.21C318.148 265.444 318.148 265.679 318.148 265.836C318.148 266.305 318.305 266.618 318.54 266.774C318.774 266.931 319.087 267.087 319.478 267.087C319.869 267.087 320.339 267.009 320.886 266.774C321.434 266.539 321.982 266.305 322.607 265.992L323.468 261.377C323.155 261.142 322.764 260.907 322.216 260.751C321.669 260.594 321.199 260.438 320.808 260.438C320.339 260.438 319.948 260.594 319.635 260.907C319.244 261.22 319.009 261.69 318.852 262.394L318.227 265.21Z" fill="white"/>
<path d="M332.23 257.622L331.526 261.298C331.526 261.376 331.526 261.455 331.526 261.533C331.526 261.611 331.526 261.689 331.526 261.768C331.526 262.237 331.682 262.628 331.995 262.785C332.308 263.02 332.777 263.098 333.325 263.098C333.716 263.098 334.107 263.019 334.576 262.863C335.046 262.706 335.515 262.55 335.906 262.315L336.845 257.465H339.974L337.549 269.903H334.42L335.359 264.975C334.733 265.288 334.107 265.444 333.559 265.601C333.012 265.757 332.464 265.757 331.995 265.757C330.821 265.757 329.961 265.523 329.257 264.975C328.553 264.506 328.162 263.645 328.162 262.628C328.162 262.237 328.162 261.924 328.24 261.611L329.1 257.544H332.23V257.622Z" fill="white"/>
<path d="M347.17 257.465C348.031 257.465 348.735 257.543 349.283 257.778C349.83 258.013 350.299 258.247 350.691 258.56C351.082 258.873 351.316 259.265 351.473 259.656C351.629 260.047 351.708 260.516 351.708 260.907C351.708 261.611 351.551 262.237 351.238 262.785C350.925 263.332 350.456 263.723 349.83 264.114C349.204 264.427 348.5 264.74 347.718 264.897C346.936 265.053 345.997 265.21 344.98 265.21C344.824 265.21 344.589 265.21 344.432 265.21C344.276 265.21 344.12 265.21 343.885 265.21C343.807 265.444 343.807 265.601 343.807 265.757C343.807 266.383 344.041 266.853 344.432 267.087C344.824 267.322 345.293 267.478 345.919 267.478C346.31 267.478 346.701 267.4 347.249 267.244C347.718 267.087 348.266 266.774 348.735 266.305C348.813 266.383 348.891 266.539 349.048 266.774C349.204 267.009 349.361 267.243 349.517 267.556C349.674 267.791 349.83 268.104 349.987 268.261C350.143 268.495 350.221 268.652 350.299 268.73C349.361 269.434 348.5 269.825 347.561 269.982C346.701 270.138 345.841 270.216 345.137 270.216C344.511 270.216 343.885 270.138 343.337 269.982C342.79 269.825 342.32 269.59 341.929 269.278C341.538 268.965 341.225 268.495 340.99 268.026C340.756 267.478 340.599 266.931 340.599 266.148C340.599 265.132 340.678 264.036 340.912 263.019C341.147 262.002 341.538 261.064 342.007 260.281C342.555 259.499 343.181 258.795 344.041 258.326C344.902 257.7 345.919 257.465 347.17 257.465ZM347.014 260.281C346.31 260.281 345.684 260.516 345.293 260.907C344.902 261.376 344.589 261.924 344.354 262.707C344.511 262.707 344.667 262.707 344.824 262.707C344.98 262.707 345.136 262.707 345.293 262.707C345.919 262.707 346.388 262.628 346.779 262.55C347.17 262.472 347.483 262.315 347.718 262.237C347.953 262.081 348.109 261.924 348.187 261.768C348.266 261.611 348.344 261.455 348.344 261.298C348.344 260.985 348.266 260.751 348.109 260.594C347.874 260.438 347.561 260.281 347.014 260.281Z" fill="white"/>
<path d="M360.313 269.825C359.531 270.06 358.67 270.138 357.732 270.138C357.106 270.138 356.48 270.06 355.932 269.903C355.385 269.747 354.916 269.434 354.524 269.121C354.133 268.808 353.82 268.339 353.586 267.87C353.351 267.4 353.273 266.774 353.273 266.148C353.273 265.992 353.273 265.835 353.273 265.679C353.273 265.523 353.351 265.366 353.351 265.132L353.899 261.924C354.211 260.438 354.837 259.264 355.854 258.56C356.871 257.856 358.123 257.465 359.531 257.465C359.922 257.465 360.313 257.465 360.704 257.544C361.095 257.622 361.487 257.7 361.878 257.856C362.269 258.013 362.66 258.169 362.973 258.404C363.286 258.639 363.599 258.951 363.912 259.343L362.034 261.611C361.565 261.064 361.174 260.751 360.626 260.594C360.157 260.438 359.766 260.36 359.453 260.36C358.827 260.36 358.279 260.516 357.81 260.907C357.419 261.22 357.106 261.768 356.949 262.55L356.48 265.053C356.48 265.132 356.48 265.21 356.48 265.288C356.48 265.366 356.48 265.445 356.48 265.523C356.48 266.149 356.715 266.539 357.106 266.774C357.497 267.009 357.966 267.165 358.436 267.165C358.749 267.165 359.218 267.087 359.687 266.931C360.157 266.774 360.704 266.461 361.174 265.992L362.973 268.417C361.956 269.199 361.174 269.669 360.313 269.825Z" fill="white"/>
<path d="M377.992 270.06L379.478 262.393C379.478 262.315 379.557 262.237 379.557 262.08C379.557 261.924 379.557 261.924 379.557 261.846C379.557 261.376 379.478 261.064 379.244 260.829C379.009 260.594 378.696 260.516 378.383 260.516C377.992 260.516 377.601 260.594 377.21 260.751C376.819 260.907 376.271 261.142 375.645 261.533C375.645 261.768 375.567 262.002 375.567 262.237C375.489 262.472 375.489 262.706 375.489 262.941C375.254 264.114 375.019 265.288 374.785 266.461C374.55 267.634 374.315 268.808 374.081 269.981H370.873C371.108 268.73 371.343 267.478 371.577 266.148C371.812 264.897 372.047 263.645 372.36 262.315C372.36 262.237 372.438 262.081 372.438 262.002C372.438 261.924 372.438 261.846 372.438 261.689C372.438 261.298 372.36 260.985 372.125 260.751C371.969 260.516 371.656 260.438 371.265 260.438C370.952 260.438 370.561 260.516 370.169 260.672C369.778 260.829 369.231 261.142 368.527 261.533C368.214 262.941 367.979 264.349 367.744 265.679C367.51 267.087 367.197 268.417 366.962 269.825H363.755L366.18 257.465H369.074C369.074 257.621 369.074 257.856 369.074 258.013C369.074 258.169 369.074 258.404 369.074 258.56C369.544 258.247 370.013 258.013 370.326 257.856C370.639 257.7 370.952 257.543 371.265 257.465C371.577 257.387 371.812 257.309 371.969 257.309C372.203 257.309 372.438 257.309 372.594 257.309C373.298 257.309 373.924 257.465 374.315 257.7C374.785 258.013 375.098 258.326 375.332 258.873C375.88 258.56 376.349 258.247 376.819 258.091C377.288 257.856 377.679 257.7 377.992 257.622C378.305 257.543 378.618 257.465 378.931 257.387C379.165 257.387 379.4 257.309 379.635 257.309C380.808 257.309 381.59 257.621 382.138 258.247C382.607 258.873 382.842 259.655 382.842 260.594C382.842 261.063 382.764 261.533 382.686 262.002C382.451 263.332 382.216 264.662 381.903 265.992C381.669 267.321 381.356 268.651 381.121 269.903H377.992V270.06Z" fill="white"/>
<path d="M390.743 257.465C391.604 257.465 392.308 257.543 392.934 257.778C393.481 257.935 393.951 258.248 394.263 258.482C394.576 258.795 394.811 259.108 394.967 259.499C395.124 259.89 395.202 260.203 395.202 260.594C395.202 261.064 395.046 261.533 394.811 262.003C394.576 262.55 394.107 262.863 393.403 263.098C394.029 263.332 394.498 263.645 394.733 264.114C395.046 264.584 395.202 265.053 395.202 265.523C395.202 266.07 395.124 266.618 394.967 267.165C394.811 267.713 394.498 268.26 394.029 268.73C393.559 269.199 393.012 269.591 392.229 269.825C391.447 270.138 390.509 270.294 389.335 270.294C388.162 270.294 387.145 270.138 386.206 269.825C385.267 269.512 384.407 269.199 383.625 268.73L384.876 262.159C384.954 261.611 385.189 260.986 385.424 260.438C385.658 259.89 386.05 259.343 386.441 258.874C386.91 258.404 387.458 258.091 388.162 257.778C388.866 257.622 389.726 257.465 390.743 257.465ZM390.509 260.281C390.039 260.281 389.726 260.359 389.413 260.516C389.1 260.672 388.866 260.829 388.709 261.064C388.553 261.298 388.396 261.533 388.24 261.768C388.162 262.002 388.083 262.237 388.005 262.472L387.145 266.931C387.379 267.087 387.771 267.165 388.162 267.244C388.631 267.322 389.022 267.4 389.413 267.4C389.961 267.4 390.352 267.322 390.665 267.244C390.978 267.087 391.213 266.931 391.369 266.774C391.525 266.618 391.682 266.383 391.682 266.227C391.76 266.07 391.76 265.914 391.76 265.757C391.76 265.444 391.682 265.132 391.447 264.975C391.213 264.74 390.743 264.662 390.117 264.662H389.257L389.57 262.472H390.509C390.978 262.472 391.291 262.393 391.525 262.159C391.76 261.924 391.838 261.689 391.838 261.377C391.838 261.064 391.76 260.829 391.525 260.594C391.369 260.36 391.056 260.281 390.509 260.281Z" fill="white"/>
<path d="M397.549 262.003C398.175 258.952 399.817 257.465 402.477 257.465C402.946 257.465 403.416 257.544 404.042 257.7C404.667 257.857 405.293 258.169 405.919 258.56L406.388 257.622H409.283L406.858 269.981H403.885L403.807 268.965C402.946 269.434 402.164 269.747 401.538 269.903C400.913 270.06 400.443 270.138 399.974 270.138C398.8 270.138 397.94 269.825 397.471 269.278C396.923 268.73 396.688 267.948 396.688 266.931C396.688 266.696 396.688 266.462 396.688 266.305C396.688 266.07 396.767 265.835 396.767 265.601L397.549 262.003ZM400.13 265.21C400.052 265.444 400.052 265.679 400.052 265.836C400.052 266.305 400.208 266.618 400.443 266.774C400.678 266.931 400.991 267.087 401.382 267.087C401.773 267.087 402.242 267.009 402.79 266.774C403.338 266.539 403.885 266.305 404.511 265.992L405.371 261.377C405.059 261.142 404.667 260.907 404.12 260.751C403.572 260.594 403.103 260.438 402.712 260.438C402.242 260.438 401.851 260.594 401.538 260.907C401.147 261.22 400.913 261.69 400.756 262.394L400.13 265.21Z" fill="white"/>
</svg>
