<svg width="79" height="109" viewBox="0 0 79 109" fill="none" xmlns="http://www.w3.org/2000/svg">
<path d="M21.9653 1.90019L21.9652 1.90021C21.1509 2.0222 19.7603 2.79442 17.9311 4.49804C16.1674 6.14066 14.1906 8.46381 12.2047 11.3049L12.2046 11.305C-2.19532 31.9009 -0.933227 57.5197 15.1252 74.6548L14.0307 75.6805L15.1252 74.6549C19.9286 79.7807 25.8653 83.9319 31.8842 86.6342C37.9199 89.344 43.9283 90.5487 48.8954 89.9286C48.8954 89.9286 48.8955 89.9286 48.8955 89.9286L56.7492 88.9473L59.0535 88.6594L58.3684 90.8783L56.4957 96.9429C56.4957 96.943 56.4956 96.9431 56.4956 96.9431C55.2935 100.838 55.2785 103.718 55.9347 105.392C56.2474 106.19 56.6877 106.661 57.1863 106.918C57.6941 107.179 58.4339 107.306 59.4941 107.093C60.7295 106.845 61.5236 106.587 62.0907 106.241C62.6037 105.928 63.0007 105.501 63.337 104.745C63.6954 103.938 63.9786 102.769 64.1997 100.997C64.4193 99.2379 64.5669 96.9868 64.7033 94.0641C64.9642 88.4708 63.9118 83.8056 61.0404 79.1132C58.1346 74.3645 53.3213 69.5137 45.9072 63.6639L45.907 63.6637C42.9988 61.3684 40.1631 58.7317 37.9273 56.3218C36.8095 55.1169 35.8277 53.9538 35.0571 52.9057C34.3055 51.8835 33.6853 50.8785 33.3777 50.0033L33.3774 50.0025C32.6849 48.0286 32.2586 46.4268 32.1347 45.2551C32.0749 44.6901 32.0661 44.0676 32.2385 43.5143C32.3293 43.2227 32.4931 42.8769 32.7963 42.583C33.1195 42.2696 33.5251 42.0901 33.9514 42.0461C34.6996 41.9689 35.3431 42.3193 35.7406 42.5836C36.1953 42.886 36.6664 43.3089 37.1445 43.8059C38.1066 44.806 39.2591 46.2776 40.5704 48.1875L21.9653 1.90019ZM21.9653 1.90019C22.1432 1.87352 22.3121 1.84798 22.4727 1.8237C23.5879 1.65502 24.3034 1.54682 24.8751 1.54039C25.4319 1.53413 25.6517 1.63077 25.8517 1.7881C26.1435 2.01761 26.5253 2.49401 27.1286 3.58518C27.6436 4.51679 28.2447 5.74996 29.0581 7.41882C29.1781 7.66491 29.3026 7.92047 29.4322 8.18593L29.4324 8.18639C31.0042 11.4034 32.5732 13.6572 35.9258 16.2544C39.1783 18.7739 44.1363 21.6373 52.423 26.1666L52.4231 26.1666C61.3655 31.0536 66.0147 33.6986 68.8893 36.0599C71.6308 38.3118 72.7351 40.284 74.4373 44.0792L74.4374 44.0796M21.9653 1.90019L74.4374 44.0796M74.4374 44.0796C78.4984 53.1276 78.429 64.5708 74.447 71.9275L72.5668 75.4013L68.5841 70.9589C68.5841 70.9589 68.584 70.9588 68.584 70.9588C65.475 67.49 58.8643 62.4497 53.8224 59.6637C48.8481 56.9151 43.1663 51.9639 40.5709 48.1881L74.4374 44.0796Z" fill="white" stroke="#2B8945" stroke-width="3"/>
</svg>
