<svg width="26" height="35" viewBox="0 0 26 35" fill="none" xmlns="http://www.w3.org/2000/svg">
<g id="Group 3886">
<g id="&#240;&#159;&#166;&#134; icon &#34;location&#34;">
<path id="Vector" d="M24.7615 9.4801C23.2758 2.94308 17.5736 0 12.5647 0C12.5647 0 12.5647 0 12.5505 0C7.55575 0 1.83939 2.92893 0.353704 9.46595C-1.30178 16.767 3.16944 22.9503 7.21617 26.8414C8.716 28.2847 10.6263 34.5811 12.5506 34.5811C14.4749 34.5811 16.4133 28.2847 17.899 26.8414C21.9457 22.9503 26.417 16.7812 24.7615 9.4801Z" fill="#125A2B"/>
</g>
<g id="Group">
<path id="Vector_2" d="M18.2661 10.3604L16.5761 11.4272L12.5247 8.15491L8.44928 11.4152L6.75919 10.3604C5.74035 11.1395 4.70952 11.9187 3.69067 12.6858C3.73862 13.1293 3.78657 13.5608 3.83451 14.0043C5.09308 14.292 6.45953 14.6875 7.92187 15.2029C9.6599 15.8143 11.2061 16.5095 12.5366 17.1807C13.9031 16.4975 15.4613 15.8142 17.1874 15.1909C18.6018 14.6755 19.9442 14.2799 21.1908 13.9563L21.3227 12.6618L18.2661 10.3604ZM16.9117 14.0882C15.3055 14.6635 13.8432 15.2868 12.5247 15.9101C11.1342 15.2509 9.58798 14.6036 7.8979 14.0043C6.90303 13.6567 5.94412 13.357 5.02117 13.0933C5.62049 12.6378 6.21981 12.1824 6.83111 11.7269L8.54517 12.8057L12.5366 9.59328L16.5281 12.8057L18.2422 11.7269L20.0521 13.0933C19.0333 13.369 17.9904 13.6926 16.9117 14.0882Z" fill="#50AC32"/>
<path id="Vector_3" d="M16.6958 9.17376C16.6958 9.64123 16.6239 10.0967 16.48 10.5283L12.5365 7.33986L8.569 10.5163C8.43715 10.0967 8.36523 9.64122 8.36523 9.16176C8.36523 6.76448 10.2231 4.83472 12.5245 4.83472C14.8259 4.8467 16.6958 6.77648 16.6958 9.17376Z" fill="#FADE52"/>
<path id="Vector_4" d="M3.64278 11.9067L4.74553 11.0676C4.7695 10.5282 4.96129 7.47166 7.51439 5.27815C8.01782 4.84664 8.54522 4.49903 9.06064 4.24731C11.2062 3.15655 13.7713 3.15655 15.9169 4.24731C16.5402 4.55896 17.1754 4.99048 17.7867 5.57781C20.0402 7.73537 20.22 10.4563 20.2439 11.0196C20.6155 11.3073 20.9871 11.595 21.3707 11.8827C21.3946 11.3193 21.4905 7.33983 18.3261 4.51104C17.6549 3.91172 16.9597 3.46823 16.2884 3.1446C13.8912 1.96993 11.0504 1.95792 8.6531 3.1206C7.95789 3.45622 7.2387 3.91174 6.55548 4.53503C3.42703 7.36382 3.60682 11.3673 3.64278 11.9067Z" fill="#50AC32"/>
<path id="Vector_5" d="M16.7316 16.6892C15.1854 17.2526 13.771 17.8519 12.5004 18.4632C11.3138 17.8998 10.0192 17.3245 8.62882 16.7851C6.9747 16.1378 5.40448 15.6225 3.94214 15.2029C4.13392 15.9221 4.85311 18.4033 7.29833 20.2132C9.45588 21.8074 11.6973 21.9513 12.5004 21.9633C13.2316 21.9633 15.6169 21.8314 17.8584 20.0934C20.1118 18.3434 20.819 16.0659 21.0108 15.3467C19.6803 15.6824 18.2419 16.1259 16.7316 16.6892ZM9.83945 20.3091C7.41819 19.3981 6.23154 17.5283 5.90791 16.9649C7.22641 17.3964 8.65279 17.9358 10.1511 18.5951C11.6374 19.2543 12.9799 19.9375 14.1665 20.6208C13.4593 20.7646 11.7693 21.0403 9.83945 20.3091ZM17.7385 18.7029C16.9474 19.4461 16.1563 19.8896 15.5929 20.1533C14.9816 19.8057 14.3703 19.4581 13.771 19.1105C14.6939 18.6909 15.6768 18.2714 16.7316 17.8759C17.5347 17.5762 18.3018 17.3006 19.057 17.0608C18.7693 17.5403 18.3498 18.1156 17.7385 18.7029Z" fill="#50AC32"/>
</g>
</g>
</svg>
