<svg width="37" height="37" viewBox="0 0 37 37" fill="none" xmlns="http://www.w3.org/2000/svg">
<g id="Group 3883">
<g id="Group 3786">
<ellipse id="Ellipse 31" cx="18.0215" cy="18.0339" rx="18.0215" ry="18.034" transform="rotate(-180 18.0215 18.0339)" fill="#50AC32"/>
</g>
<path id="Vector" d="M23.5916 7.01352C23.6689 7.09538 23.7302 7.19262 23.7721 7.29968C23.8139 7.40673 23.8355 7.5215 23.8355 7.63741C23.8355 7.75331 23.8139 7.86808 23.7721 7.97514C23.7302 8.08219 23.6689 8.17944 23.5916 8.26129L14.2145 18.2117L23.5916 28.1621C23.7475 28.3276 23.835 28.552 23.835 28.786C23.835 29.02 23.7475 29.2444 23.5916 29.4099C23.4357 29.5753 23.2242 29.6683 23.0037 29.6683C22.7832 29.6683 22.5718 29.5753 22.4159 29.4099L12.4527 18.8356C12.3753 18.7537 12.314 18.6565 12.2721 18.5494C12.2303 18.4424 12.2087 18.3276 12.2087 18.2117C12.2087 18.0958 12.2303 17.981 12.2721 17.874C12.314 17.7669 12.3753 17.6697 12.4527 17.5878L22.4159 7.01352C22.493 6.93146 22.5846 6.86635 22.6855 6.82193C22.7864 6.77751 22.8945 6.75464 23.0037 6.75464C23.1129 6.75464 23.2211 6.77751 23.3219 6.82193C23.4228 6.86635 23.5144 6.93146 23.5916 7.01352Z" fill="white"/>
</g>
</svg>
