<svg width="128" height="74" viewBox="0 0 128 74" fill="none" xmlns="http://www.w3.org/2000/svg">
<path d="M76.4512 18.3109L72.6349 20.7223L63.5136 13.3413L54.3294 20.7013L50.5341 18.3109C48.2276 20.0722 45.921 21.8126 43.6145 23.574C43.7193 24.5595 43.8242 25.545 43.929 26.5515C46.7598 27.2015 49.8421 28.0822 53.1342 29.2355C57.0553 30.6194 60.5361 32.171 63.5346 33.6808C66.617 32.1501 70.1187 30.6194 74.0188 29.1935C77.2061 28.0403 80.2255 27.1386 83.0353 26.4048L83.3289 23.4692L76.4512 18.3109ZM73.3898 26.6983C69.7622 27.9983 66.4702 29.4032 63.4926 30.8081C60.3683 29.3194 56.8876 27.8516 53.0713 26.5096C50.8277 25.7128 48.6679 25.0417 46.5711 24.4336C47.934 23.4062 49.276 22.3788 50.639 21.3513L54.4972 23.8046L63.4926 16.5704L72.4881 23.8046L76.3463 21.3723L80.4352 24.4546C78.1916 25.0837 75.8221 25.8176 73.3898 26.6983Z" fill="#4FAD32"/>
<path d="M72.9076 15.6268C72.9076 16.6962 72.7398 17.7237 72.4253 18.6673L63.5346 11.4961L54.602 18.6673C54.2875 17.7027 54.1407 16.6962 54.1407 15.6268C54.1407 10.2379 58.3344 5.87646 63.5137 5.87646C68.6929 5.87646 72.9076 10.2379 72.9076 15.6268Z" fill="#FBDF52"/>
<path d="M43.4886 21.7917L45.9839 19.8836C46.0468 18.6674 46.4661 11.7687 52.2325 6.82011C53.3858 5.83459 54.56 5.07981 55.7133 4.49269C60.557 2.01841 66.3233 2.03937 71.167 4.49269C72.5719 5.20562 74.0188 6.17013 75.3817 7.49115C80.4771 12.3558 80.8755 18.4786 80.9384 19.7577C81.7771 20.4077 82.6159 21.0578 83.4546 21.6869C83.4965 20.4078 83.7272 11.4542 76.5979 5.07977C75.0882 3.73778 73.5155 2.73125 71.9848 1.99736C66.5749 -0.644677 60.2005 -0.665604 54.7697 1.93449C53.197 2.68936 51.5825 3.71686 50.0518 5.12175C43.0063 11.5381 43.4047 20.5965 43.4886 21.7917Z" fill="#4FAD32"/>
<path d="M73.0124 32.5693C69.5316 33.8484 66.3444 35.1904 63.4717 36.5533C60.7877 35.2742 57.8941 33.9952 54.7488 32.779C51.0374 31.3322 47.4937 30.1579 44.1807 29.1934C44.6 30.8289 46.2356 36.4065 51.7503 40.4744C56.615 44.081 61.6684 44.3955 63.4717 44.4165C65.1072 44.4165 70.4961 44.1229 75.5495 40.2018C80.6239 36.2597 82.2175 31.1224 82.6579 29.4869C79.6384 30.3047 76.4093 31.3112 73.0124 32.5693ZM57.4328 40.726C51.96 38.6711 49.297 34.4565 48.5631 33.1774C51.5196 34.1419 54.7488 35.3581 58.1247 36.8469C61.4797 38.3356 64.4991 39.8873 67.1831 41.3971C65.6105 41.7535 61.7942 42.3616 57.4328 40.726ZM75.277 37.0985C73.4946 38.776 71.7123 39.7824 70.4332 40.3695C69.0493 39.5937 67.6864 38.8179 66.3234 38.0211C68.3993 37.0775 70.622 36.1339 73.0124 35.2532C74.8157 34.5822 76.556 33.9742 78.2545 33.429C77.6045 34.4775 76.6399 35.7985 75.277 37.0985Z" fill="#4FAD32"/>
<path d="M7.989 51.0847C8.0519 51.0847 8.09384 51.1267 8.05191 51.1896L5.59859 56.4107C5.47278 56.6833 5.47278 56.935 5.59859 57.2076L8.05191 62.4287C8.07288 62.5126 8.0519 62.5335 7.989 62.5335H5.76634C5.68247 62.5335 5.64053 62.4916 5.61956 62.4287L3.60658 58.1092C3.52271 57.9834 3.43883 57.9205 3.29205 57.9205H2.30654C2.22266 57.9205 2.20169 57.9624 2.20169 58.0253V62.4287C2.20169 62.5126 2.15976 62.5335 2.09685 62.5335H0.104843C0.0209685 62.5335 0 62.4916 0 62.4287V51.1896C0 51.1267 0.041937 51.0847 0.104843 51.0847H2.09685C2.15976 51.0847 2.20169 51.1267 2.20169 51.1896V55.5929C2.20169 55.6768 2.24363 55.6978 2.30654 55.6978H3.29205C3.41786 55.6978 3.52271 55.6349 3.60658 55.5091L5.61956 51.1896C5.64053 51.1267 5.70343 51.0847 5.76634 51.0847H7.989Z" fill="#125A2B"/>
<path d="M11.3858 51.0842C11.4487 51.0842 11.4906 51.1262 11.4906 51.1891V60.2265C11.4906 60.3104 11.5325 60.3314 11.5955 60.3314H14.7827C14.9294 60.3314 15.0133 60.2684 15.0133 60.1007V57.6683C15.0133 57.5215 14.9294 57.4377 14.7827 57.4377H12.2455C12.1616 57.4377 12.1406 57.3958 12.1406 57.3329V55.3409C12.1406 55.278 12.1826 55.236 12.2455 55.236H14.9924C15.6004 55.236 16.1247 55.4457 16.565 55.8651C16.9844 56.2845 17.194 56.8087 17.194 57.4377V60.3104C17.194 60.9185 16.9844 61.4427 16.565 61.883C16.1456 62.3024 15.6214 62.5121 14.9924 62.5121H9.37279C9.28891 62.5121 9.26794 62.4701 9.26794 62.4072V51.1681C9.26794 51.1052 9.30988 51.0632 9.37279 51.0632H11.3858V51.0842ZM20.4232 51.0842C20.4861 51.0842 20.528 51.1262 20.528 51.1891V62.4282C20.528 62.5121 20.4861 62.533 20.4232 62.533H18.4312C18.3473 62.533 18.3263 62.4911 18.3263 62.4282V51.1891C18.3263 51.1262 18.3683 51.0842 18.4312 51.0842H20.4232Z" fill="#125A2B"/>
<path d="M28.2447 51.0847C28.8528 51.0847 29.377 51.2944 29.8173 51.7138C30.2367 52.1331 30.4464 52.6574 30.4464 53.2864V56.1591C30.4464 56.7672 30.2367 57.2914 29.8173 57.7318C29.398 58.1511 28.8738 58.3608 28.2447 58.3608H25.4978C25.4139 58.3608 25.393 58.3189 25.393 58.256V56.264C25.393 56.1801 25.4349 56.1591 25.4978 56.1591H28.035C28.1818 56.1591 28.2657 56.0962 28.2657 55.9285V53.5171C28.2657 53.3703 28.1818 53.2864 28.035 53.2864H24.8478C24.7639 53.2864 24.743 53.3283 24.743 53.3913V62.4287C24.743 62.5126 24.701 62.5335 24.6381 62.5335H22.6461C22.5622 62.5335 22.5413 62.4916 22.5413 62.4287V51.1896C22.5413 51.1267 22.5832 51.0847 22.6461 51.0847H28.2447Z" fill="#125A2B"/>
<path d="M38.8546 51.0847C38.9175 51.0847 38.9594 51.1267 38.9594 51.1896V53.1816C38.9594 53.2654 38.9175 53.2864 38.8546 53.2864H34.4512C34.3673 53.2864 34.3463 53.3283 34.3463 53.3913V62.4287C34.3463 62.5126 34.3044 62.5335 34.2415 62.5335H32.2495C32.1656 62.5335 32.1447 62.4916 32.1447 62.4287V51.1896C32.1447 51.1267 32.1866 51.0847 32.2495 51.0847H38.8546Z" fill="#125A2B"/>
<path d="M42.2725 51.0842C42.3354 51.0842 42.3774 51.1262 42.3774 51.1891V60.2265C42.3774 60.3104 42.4193 60.3314 42.4822 60.3314H45.6694C45.8162 60.3314 45.9001 60.2684 45.9001 60.1007V57.6683C45.9001 57.5215 45.8162 57.4377 45.6694 57.4377H43.1532C43.0693 57.4377 43.0483 57.3958 43.0483 57.3329V55.3409C43.0483 55.278 43.0903 55.236 43.1532 55.236H45.9001C46.5081 55.236 47.0324 55.4457 47.4727 55.8651C47.8921 56.2845 48.1018 56.8087 48.1018 57.4377V60.3104C48.1018 60.9185 47.8921 61.4427 47.4727 61.883C47.0533 62.3024 46.5291 62.5121 45.9001 62.5121H40.2805C40.1966 62.5121 40.1757 62.4701 40.1757 62.4072V51.1681C40.1757 51.1052 40.2176 51.0632 40.2805 51.0632H42.2725V51.0842ZM51.3099 51.0842C51.3729 51.0842 51.4148 51.1262 51.4148 51.1891V62.4282C51.4148 62.5121 51.3729 62.533 51.3099 62.533H49.3179C49.2341 62.533 49.2131 62.4911 49.2131 62.4282V51.1891C49.2131 51.1262 49.255 51.0842 49.3179 51.0842H51.3099Z" fill="#125A2B"/>
<path d="M58.565 51.0846C59.1731 51.0846 59.6973 51.2943 60.1376 51.7136C60.557 52.133 60.7667 52.6572 60.7667 53.2863V55.2154C60.7667 55.3622 60.7457 55.5299 60.7038 55.6977C60.6619 55.8654 60.5989 56.0332 60.4731 56.18C60.3683 56.3268 60.2005 56.4526 59.9909 56.5574C59.7812 56.6622 59.5296 56.7461 59.1941 56.7671V56.8509C59.5086 56.9138 59.7812 56.9978 59.9909 57.1026C60.2005 57.2074 60.3473 57.3332 60.4731 57.48C60.578 57.6268 60.6619 57.7736 60.7038 57.9413C60.7457 58.1091 60.7667 58.2558 60.7667 58.4026V60.3317C60.7667 60.9398 60.557 61.464 60.1376 61.9044C59.7183 62.3237 59.1941 62.5334 58.565 62.5334H55.252C54.6439 62.5334 54.1197 62.3237 53.6793 61.9044C53.26 61.485 53.0503 60.9608 53.0503 60.3317V59.4091C53.0503 59.3253 53.0922 59.2833 53.1551 59.2833L55.1471 58.9688C55.21 58.9478 55.252 58.9897 55.252 59.0526V60.1011C55.252 60.2478 55.3149 60.3317 55.4826 60.3317H58.3553C58.5021 60.3317 58.586 60.2688 58.586 60.1011V58.109C58.586 57.9623 58.5021 57.8784 58.3553 57.8784H55.6085C55.5246 57.8784 55.5036 57.8364 55.5036 57.7735V55.7815C55.5036 55.7186 55.5455 55.6767 55.6085 55.6767H58.3553C58.5021 55.6767 58.586 55.6139 58.586 55.4461V53.4541C58.586 53.3073 58.5021 53.2234 58.3553 53.2234H55.4826C55.3359 53.2234 55.252 53.3073 55.252 53.4541V54.5025C55.252 54.5864 55.21 54.6073 55.1471 54.5864L53.1551 54.2718C53.0713 54.2509 53.0503 54.2089 53.0503 54.146V53.2234C53.0503 52.6153 53.26 52.0911 53.6793 51.6508C54.0987 51.2314 54.6229 51.0217 55.252 51.0217H58.565V51.0846Z" fill="#125A2B"/>
<path d="M70.4752 51.0847C70.5381 51.0847 70.58 51.1267 70.58 51.1896V62.4287C70.58 62.5126 70.5381 62.5335 70.4752 62.5335H68.4832C68.3993 62.5335 68.3783 62.4916 68.3783 62.4287V53.3913C68.3783 53.3074 68.3364 53.2864 68.2735 53.2864H64.9605C64.8766 53.2864 64.8556 53.3283 64.8556 53.3913V62.4287C64.8556 62.5126 64.8137 62.5335 64.7508 62.5335H62.7588C62.6749 62.5335 62.6539 62.4916 62.6539 62.4287V51.1896C62.6539 51.1267 62.6959 51.0847 62.7588 51.0847H70.4752Z" fill="#125A2B"/>
<path d="M78.2964 51.0847C78.9045 51.0847 79.4287 51.2944 79.8691 51.7138C80.2885 52.1331 80.4981 52.6574 80.4981 53.2864V56.1591C80.4981 56.7672 80.2885 57.2914 79.8691 57.7318C79.4497 58.1511 78.9255 58.3608 78.2964 58.3608H75.5496C75.4657 58.3608 75.4447 58.3189 75.4447 58.256V56.264C75.4447 56.1801 75.4867 56.1591 75.5496 56.1591H78.0868C78.2335 56.1591 78.3174 56.0962 78.3174 55.9285V53.5171C78.3174 53.3703 78.2335 53.2864 78.0868 53.2864H74.8996C74.8157 53.2864 74.7947 53.3283 74.7947 53.3913V62.4287C74.7947 62.5126 74.7528 62.5335 74.6899 62.5335H72.6979C72.614 62.5335 72.593 62.4916 72.593 62.4287V51.1896C72.593 51.1267 72.635 51.0847 72.6979 51.0847H78.2964Z" fill="#125A2B"/>
<path d="M87.7951 51.0847C88.4032 51.0847 88.9274 51.2944 89.3677 51.7138C89.7871 52.1331 89.9968 52.6574 89.9968 53.2864V60.3319C89.9968 60.9399 89.7871 61.4641 89.3677 61.9045C88.9484 62.3239 88.4241 62.5335 87.7951 62.5335H84.2724C83.6643 62.5335 83.1401 62.3239 82.6997 61.9045C82.2804 61.4851 82.0707 60.9609 82.0707 60.3319V53.2864C82.0707 52.6783 82.2804 52.1541 82.6997 51.7138C83.1191 51.2944 83.6433 51.0847 84.2724 51.0847H87.7951ZM87.7951 53.5171C87.7951 53.3703 87.7112 53.2864 87.5644 53.2864H84.4821C84.3353 53.2864 84.2514 53.3703 84.2514 53.5171V60.1222C84.2514 60.2689 84.3143 60.3528 84.4821 60.3528H87.5644C87.7112 60.3528 87.7951 60.2899 87.7951 60.1222V53.5171Z" fill="#125A2B"/>
<path d="M99.4747 51.0842C99.5376 51.0842 99.5795 51.1262 99.5795 51.1891V60.2265C99.5795 60.3104 99.6215 60.3314 99.6844 60.3314H100.565C100.628 60.3314 100.67 60.3733 100.67 60.4362V65.0703C100.67 65.1332 100.628 65.1751 100.565 65.1751H98.5731C98.4892 65.1751 98.4682 65.1332 98.4682 65.0703V62.6379C98.4682 62.554 98.4263 62.533 98.3634 62.533H93.4148C93.3309 62.533 93.31 62.575 93.31 62.6379V65.0703C93.31 65.1332 93.268 65.1751 93.2051 65.1751H91.2131C91.1292 65.1751 91.1083 65.1332 91.1083 65.0703V60.4362C91.1083 60.3523 91.1502 60.3314 91.2131 60.3314H91.4018C91.8631 60.3314 92.0938 60.1007 92.1148 59.6603L92.5341 53.2649C92.5761 52.6568 92.8067 52.1326 93.2051 51.6923C93.6035 51.2729 94.1277 51.0632 94.7358 51.0632H99.4747V51.0842ZM97.3779 53.3908C97.3779 53.3069 97.3359 53.2859 97.273 53.2859H95.1552C94.8826 53.2859 94.7358 53.4327 94.7149 53.7263L94.2955 60.2265C94.2955 60.3104 94.3374 60.3314 94.4003 60.3314H97.273C97.3359 60.3314 97.3779 60.2894 97.3779 60.2265V53.3908Z" fill="#125A2B"/>
<path d="M110.357 51.0847C110.42 51.0847 110.441 51.1267 110.42 51.1896L106.436 60.3319C106.31 60.6044 106.185 60.877 106.059 61.1496C105.933 61.4222 105.786 61.6528 105.597 61.8625C105.43 62.0722 105.241 62.24 105.01 62.3658C104.78 62.4916 104.528 62.5545 104.214 62.5545H103.102C103.018 62.5545 102.997 62.5126 102.997 62.4497V60.4577C102.997 60.3738 103.039 60.3528 103.102 60.3528H103.773C103.899 60.3528 104.004 60.29 104.088 60.1641L104.465 59.3254C104.486 59.2625 104.486 59.1786 104.465 59.0947L101.131 51.2105C101.11 51.1476 101.131 51.1057 101.194 51.1057H103.417C103.501 51.1057 103.563 51.1476 103.563 51.2105L103.731 51.6299C103.941 52.1541 104.13 52.6364 104.276 53.0767C104.444 53.538 104.591 54.0203 104.759 54.5235L105.639 57.585C105.66 57.7108 105.702 57.7108 105.723 57.585L106.688 54.4397C106.856 53.9155 107.023 53.4332 107.191 52.9929C107.359 52.5316 107.548 52.0703 107.757 51.5671L107.904 51.2105C107.925 51.1476 107.967 51.1057 108.051 51.1057H110.357V51.0847Z" fill="#125A2B"/>
<path d="M119.667 51.0847C119.73 51.0847 119.772 51.1267 119.73 51.1896L117.277 56.4107C117.151 56.6833 117.151 56.935 117.277 57.2076L119.73 62.4287C119.751 62.5126 119.73 62.5335 119.667 62.5335H117.445C117.361 62.5335 117.319 62.4916 117.298 62.4287L115.285 58.1092C115.201 57.9834 115.117 57.9205 114.97 57.9205H113.985C113.901 57.9205 113.88 57.9624 113.88 58.0253V62.4287C113.88 62.5126 113.838 62.5335 113.775 62.5335H111.783C111.699 62.5335 111.678 62.4916 111.678 62.4287V51.1896C111.678 51.1267 111.72 51.0847 111.783 51.0847H113.775C113.838 51.0847 113.88 51.1267 113.88 51.1896V55.5929C113.88 55.6768 113.922 55.6978 113.985 55.6978H114.97C115.096 55.6978 115.201 55.6349 115.285 55.5091L117.298 51.1896C117.319 51.1267 117.382 51.0847 117.445 51.0847H119.667Z" fill="#125A2B"/>
<path d="M127.572 51.0847C127.635 51.0847 127.677 51.1267 127.677 51.1896V53.1816C127.677 53.2654 127.635 53.2864 127.572 53.2864H125.14C125.056 53.2864 125.035 53.3283 125.035 53.3913V62.4287C125.035 62.5126 124.993 62.5335 124.93 62.5335H122.938C122.855 62.5335 122.834 62.4916 122.834 62.4287V53.3913C122.834 53.3074 122.792 53.2864 122.729 53.2864H120.296C120.212 53.2864 120.192 53.2445 120.192 53.1816V51.1896C120.192 51.1267 120.233 51.0847 120.296 51.0847H127.572Z" fill="#125A2B"/>
<path d="M19.9621 72.3889L20.696 68.5726H18.9976L18.2637 72.3889H17.3411L18.2427 67.7549H21.8074L20.9057 72.3889H19.9621Z" fill="#4FAD32"/>
<path d="M24.638 71.2354C24.5751 71.5918 24.4074 71.8854 24.1977 72.1161C23.988 72.3468 23.6525 72.4515 23.2541 72.4515C23.1283 72.4515 23.0025 72.4306 22.8557 72.4096C22.7089 72.3887 22.5412 72.3257 22.3944 72.2418L22.1008 73.7306H21.2621L22.1637 69.0757H22.9396V69.3692C23.1493 69.2434 23.338 69.1595 23.5267 69.1175C23.6944 69.0546 23.8412 69.0337 23.967 69.0337C24.2606 69.0337 24.4912 69.0966 24.638 69.2434C24.7848 69.3902 24.8687 69.5998 24.8687 69.8724C24.8687 69.9982 24.8477 70.124 24.8267 70.2498L24.638 71.2354ZM23.9461 70.3338C23.967 70.2709 23.967 70.2079 23.967 70.166C23.967 70.0402 23.9251 69.9563 23.8622 69.9144C23.7993 69.8725 23.7154 69.8514 23.6315 69.8514C23.5267 69.8514 23.4009 69.8724 23.2331 69.9353C23.0654 69.9982 22.9186 70.0611 22.7928 70.145L22.5412 71.4661C22.688 71.529 22.8138 71.5918 22.9186 71.6128C23.0234 71.6337 23.1283 71.6548 23.2331 71.6548C23.3589 71.6548 23.4848 71.6128 23.5896 71.5499C23.6944 71.487 23.7783 71.3402 23.7993 71.1515L23.9461 70.3338Z" fill="#4FAD32"/>
<path d="M28.14 71.2146C28.0561 71.634 27.8884 71.9276 27.6158 72.1163C27.3432 72.305 26.9867 72.4099 26.5464 72.4099C26.3786 72.4099 26.2109 72.3889 26.0641 72.326C25.9173 72.2841 25.7706 72.2002 25.6447 72.0953C25.5189 71.9905 25.4351 71.8646 25.3512 71.7178C25.2883 71.5711 25.2463 71.4033 25.2463 71.1936C25.2463 71.1517 25.2463 71.0889 25.2463 71.0469C25.2463 71.005 25.2673 70.942 25.2673 70.9001L25.3931 70.2082C25.477 69.7888 25.6447 69.4953 25.8964 69.2856C26.169 69.0759 26.5044 68.9919 26.9238 68.9919C27.1335 68.9919 27.3013 69.013 27.469 69.0759C27.6368 69.1388 27.7835 69.2226 27.8884 69.3275C28.0142 69.4323 28.0981 69.5582 28.161 69.705C28.2239 69.8517 28.2658 70.0194 28.2658 70.1872C28.2658 70.292 28.2658 70.3969 28.2448 70.4807L28.14 71.2146ZM27.4271 70.5017C27.448 70.4388 27.448 70.3969 27.448 70.334C27.448 70.1663 27.3851 70.0194 27.2803 69.9355C27.1754 69.8517 27.0496 69.8098 26.9029 69.8098C26.7561 69.8098 26.6093 69.8517 26.5044 69.9355C26.3996 70.0194 26.3157 70.1662 26.2738 70.3969L26.148 71.0049C26.127 71.0678 26.127 71.1308 26.127 71.1728C26.127 71.2566 26.148 71.3404 26.169 71.4033C26.2109 71.4662 26.2528 71.5082 26.2948 71.5501C26.3367 71.5921 26.3996 71.613 26.4625 71.634C26.5254 71.655 26.5883 71.655 26.6512 71.655C26.819 71.655 26.9658 71.613 27.0706 71.5292C27.1754 71.4453 27.2593 71.2986 27.3013 71.0679L27.4271 70.5017Z" fill="#4FAD32"/>
<path d="M30.4044 67.5239C30.698 67.5239 30.9287 67.5659 31.1383 67.6288C31.348 67.6917 31.4948 67.7966 31.5997 67.9014C31.7045 68.0272 31.7884 68.174 31.8513 68.3208C31.8932 68.4885 31.9142 68.6563 31.9142 68.845C31.9142 68.9708 31.8932 69.1176 31.8722 69.2854C31.8513 69.4531 31.8303 69.5998 31.8093 69.7676L31.5577 71.1306C31.5158 71.3612 31.4529 71.5499 31.348 71.7176C31.2642 71.8854 31.1383 72.0113 31.0125 72.1161C30.8867 72.221 30.719 72.2838 30.5512 72.3467C30.3835 72.4096 30.2157 72.4096 30.027 72.4096C29.5867 72.4096 29.2512 72.3048 29.0205 72.0951C28.7899 71.8854 28.6641 71.6128 28.6641 71.2354C28.6641 71.1935 28.6641 71.1306 28.6641 71.0677C28.6641 71.0048 28.685 70.9418 28.685 70.8789L28.7689 70.4386C28.8108 70.2499 28.8528 70.0822 28.9157 69.9144C28.9786 69.7676 29.0625 69.6208 29.1673 69.5159C29.2721 69.4111 29.398 69.3273 29.5447 69.2644C29.6915 69.2015 29.8802 69.1805 30.0899 69.1805C30.2157 69.1805 30.3625 69.2014 30.5303 69.2434C30.698 69.2853 30.8448 69.3482 30.9916 69.4531L31.0335 69.2644C31.0545 69.2015 31.0545 69.1386 31.0545 69.0757C31.0545 69.0128 31.0545 68.9498 31.0754 68.8869C31.0754 68.6772 31.0125 68.5095 30.8867 68.4046C30.7609 68.2998 30.5512 68.2369 30.2367 68.2369C30.1528 68.2369 30.0899 68.2369 30.006 68.2369C29.9222 68.2369 29.8383 68.2578 29.7335 68.2788C29.7125 68.153 29.6915 68.0482 29.6915 67.9224C29.6705 67.8176 29.6705 67.6917 29.6496 67.5869C29.9222 67.5659 30.1738 67.5239 30.4044 67.5239ZM30.2577 69.9773C30.1109 69.9773 29.9851 70.0193 29.8802 70.1241C29.7754 70.2289 29.6915 70.3757 29.6496 70.6273L29.5657 70.9837C29.5447 71.0676 29.5447 71.1306 29.5447 71.1725C29.5447 71.3612 29.5867 71.487 29.6915 71.5709C29.7964 71.6548 29.9222 71.6967 30.1109 71.6967C30.2577 71.6967 30.3835 71.6548 30.5093 71.5709C30.6351 71.487 30.719 71.3402 30.7609 71.1096L30.8448 70.6902C30.8448 70.6273 30.8658 70.5644 30.8867 70.4595C30.9077 70.3756 30.9077 70.2919 30.9287 70.2289C30.8238 70.1451 30.719 70.1031 30.6141 70.0611C30.4883 69.9982 30.3835 69.9773 30.2577 69.9773Z" fill="#4FAD32"/>
<path d="M32.04 73.7309L32.8159 72.326L32.6272 72.1792L32.3126 69.0759H33.1723L33.2562 70.2921L33.3191 71.4453H33.3401L34.095 69.9775C34.1369 69.8937 34.1788 69.8097 34.1998 69.7259C34.2208 69.663 34.2627 69.6001 34.2837 69.5372C34.3046 69.4743 34.3256 69.4114 34.3256 69.3695C34.3256 69.3066 34.3256 69.2437 34.3256 69.1808V69.0759H35.1853V69.1808C35.1853 69.3905 35.1643 69.5582 35.1014 69.705C35.0385 69.8518 34.9756 70.0195 34.8708 70.1872L32.8997 73.7519H32.04V73.7309Z" fill="#4FAD32"/>
<path d="M38.5401 69.0547L38.0998 70.0193C38.0159 70.187 37.932 70.3128 37.8272 70.4176C37.7223 70.5225 37.6175 70.6064 37.4707 70.6483C37.6175 70.7112 37.7224 70.7741 37.7643 70.8999C37.8062 71.0047 37.8482 71.1515 37.8691 71.3192L38.0369 72.3887H37.1562L37.0514 71.4871C37.0304 71.2774 36.9675 71.1515 36.8836 71.1096C36.7788 71.0467 36.653 71.0257 36.5062 71.0257H36.1707L35.9191 72.3887H35.0803L35.6884 69.0547H36.5272L36.2965 70.2498H36.611C36.7578 70.2498 36.8626 70.2289 36.9675 70.166C37.0723 70.1031 37.1562 69.9983 37.2611 69.8096L37.6175 69.0547H38.5401Z" fill="#4FAD32"/>
<path d="M41.8743 70.2708C41.7904 70.6692 41.7275 71.0677 41.6436 71.4871C41.6436 71.508 41.6436 71.5499 41.6227 71.5709C41.6227 71.5919 41.6227 71.6338 41.6227 71.6548C41.6227 71.7386 41.6436 71.8435 41.6856 71.9064C41.7275 71.9903 41.7904 72.0532 41.8952 72.0741C41.8533 72.2838 41.8114 72.4935 41.7694 72.6822C41.7275 72.8919 41.6856 73.0806 41.6646 73.2903H40.9726C40.9936 73.1435 41.0146 72.9968 41.0355 72.829C41.0565 72.6822 41.0775 72.5354 41.0984 72.3677C41.0146 72.3257 40.9517 72.2838 40.9097 72.2C40.8678 72.1161 40.8259 72.0322 40.8259 71.9693C40.7 72.0741 40.5742 72.1371 40.4484 72.2C40.3226 72.2629 40.1968 72.3048 40.092 72.3258C39.9871 72.3468 39.8823 72.3677 39.7984 72.3887C39.7145 72.3887 39.6516 72.4096 39.5887 72.4096C39.2951 72.4096 39.0645 72.3258 38.9387 72.179C38.7919 72.0322 38.729 71.8225 38.729 71.5499C38.729 71.487 38.729 71.4032 38.75 71.3612C38.75 71.2983 38.7709 71.2354 38.7709 71.1725C38.8338 70.8161 38.9177 70.4596 38.9806 70.1241C39.0435 69.7676 39.1274 69.4112 39.1903 69.0757H40.05C39.9871 69.4112 39.9242 69.7466 39.8403 70.1031C39.7774 70.4386 39.7145 70.7951 39.6516 71.1305C39.6516 71.1515 39.6516 71.1934 39.6306 71.2144C39.6306 71.2563 39.6306 71.2773 39.6306 71.2983C39.6306 71.4031 39.6516 71.487 39.7145 71.5499C39.7774 71.5919 39.8823 71.6338 39.9871 71.6338C40.092 71.6338 40.2178 71.6128 40.3436 71.5499C40.4903 71.508 40.6371 71.4241 40.8259 71.2983L41.2662 69.0547H42.1259C42.042 69.4741 41.9582 69.8724 41.8743 70.2708Z" fill="#4FAD32"/>
<path d="M43.6775 69.0757L43.2791 71.1096C43.2791 71.1305 43.2791 71.1724 43.2791 71.1934C43.2791 71.2144 43.2791 71.2354 43.2791 71.2564C43.2791 71.3822 43.321 71.487 43.3839 71.5289C43.4468 71.5709 43.5307 71.6128 43.6356 71.6128C43.7404 71.6128 43.8662 71.5918 43.992 71.5289C44.1178 71.487 44.2856 71.4032 44.4743 71.2774L44.9146 69.0547H45.7743L45.1243 72.3677H44.3275L44.3065 72.0741C44.1807 72.158 44.0549 72.2209 43.9501 72.2628C43.8452 72.3048 43.7404 72.3467 43.6565 72.3677C43.5727 72.3886 43.4888 72.4096 43.4259 72.4096C43.363 72.4096 43.3001 72.4096 43.2372 72.4096C42.9436 72.4096 42.7129 72.3257 42.5871 72.158C42.4403 71.9902 42.3774 71.7805 42.3774 71.5289C42.3774 71.4031 42.3984 71.2773 42.4194 71.1515L42.8388 69.0337H43.6775V69.0757Z" fill="#4FAD32"/>
<path d="M47.7245 70.5227L47.6406 71.1518H47.3261C47.2212 71.1518 47.1374 71.1727 47.0744 71.2146C47.0115 71.2566 46.9486 71.3405 46.8857 71.4663L46.5502 72.3889H45.6696L46.1099 71.2776C46.1309 71.1937 46.1938 71.1308 46.2567 71.0259C46.3196 70.9421 46.4244 70.8792 46.5293 70.8582C46.3825 70.7953 46.2567 70.7114 46.1938 70.6066C46.1309 70.5017 46.0889 70.3759 46.0889 70.2292C46.0889 70.1872 46.0889 70.1243 46.1099 70.0614C46.1099 69.9985 46.1309 69.9565 46.1309 69.9355C46.1728 69.7468 46.2357 69.6001 46.3406 69.4743C46.4244 69.3485 46.5293 69.2646 46.6551 69.1807C46.7809 69.1178 46.9067 69.0549 47.0744 69.0339C47.2212 69.013 47.389 68.9919 47.5777 68.9919C47.7874 68.9919 48.039 69.013 48.2906 69.0759C48.5632 69.1178 48.8148 69.2016 49.0455 69.3275L48.5003 72.3889H47.6616L48.1648 69.8307C47.9342 69.7468 47.7454 69.7258 47.5567 69.7258C47.389 69.7258 47.2632 69.7678 47.1793 69.8307C47.0954 69.8936 47.0325 69.9985 46.9906 70.1243C46.9906 70.1453 46.9696 70.1662 46.9696 70.1872C46.9696 70.2082 46.9696 70.2291 46.9696 70.2501C46.9696 70.313 46.9906 70.3759 47.0325 70.4389C47.0744 70.5018 47.1583 70.5227 47.3051 70.5227H47.7245Z" fill="#4FAD32"/>
<path d="M52.7149 69.0129C52.9455 69.0129 53.1343 69.0339 53.302 69.0968C53.4488 69.1387 53.5746 69.2227 53.6585 69.2856C53.7423 69.3695 53.8053 69.4533 53.8472 69.5581C53.8891 69.663 53.9101 69.7468 53.9101 69.8517C53.9101 69.9775 53.8682 70.1034 53.8053 70.2292C53.7424 70.376 53.6165 70.4598 53.4278 70.5227C53.5956 70.5856 53.7214 70.6695 53.7843 70.7953C53.8682 70.9211 53.9101 71.0469 53.9101 71.1728C53.9101 71.3195 53.8891 71.4662 53.8472 71.613C53.8053 71.7598 53.7214 71.9066 53.5956 72.0324C53.4698 72.1582 53.323 72.2631 53.1133 72.326C52.9036 72.4099 52.652 72.4518 52.3375 72.4518C52.0229 72.4518 51.7503 72.4099 51.4987 72.326C51.2471 72.2422 51.0164 72.1582 50.8068 72.0324L51.1423 70.2711C51.1632 70.1243 51.2261 69.9566 51.289 69.8098C51.3519 69.663 51.4568 69.5162 51.5616 69.3904C51.6874 69.2646 51.8342 69.1807 52.0229 69.0968C52.2117 69.0549 52.4423 69.0129 52.7149 69.0129ZM52.673 69.7678C52.5472 69.7678 52.4633 69.7888 52.3794 69.8307C52.2955 69.8726 52.2326 69.9146 52.1907 69.9775C52.1487 70.0404 52.1068 70.1033 52.0649 70.1662C52.0439 70.2291 52.0229 70.292 52.002 70.3549L51.7713 71.5501C51.8342 71.5921 51.9391 71.613 52.0439 71.634C52.1697 71.655 52.2746 71.676 52.3794 71.676C52.5262 71.676 52.631 71.655 52.7149 71.634C52.7988 71.5921 52.8617 71.5501 52.9036 71.5082C52.9456 71.4662 52.9875 71.4034 52.9875 71.3615C53.0085 71.3195 53.0085 71.2776 53.0085 71.2356C53.0085 71.1517 52.9875 71.0679 52.9246 71.0259C52.8617 70.963 52.7359 70.9421 52.5681 70.9421H52.3375L52.4213 70.3549H52.673C52.7988 70.3549 52.8826 70.334 52.9456 70.2711C53.0085 70.2081 53.0294 70.1452 53.0294 70.0614C53.0294 69.9775 53.0085 69.9146 52.9456 69.8517C52.8826 69.7888 52.7988 69.7678 52.673 69.7678Z" fill="#4FAD32"/>
<path d="M54.7909 69.0757H55.6296L55.4199 70.1031C55.4828 70.0821 55.5667 70.0402 55.6506 70.0193C55.7344 69.9983 55.8183 69.9773 55.9022 69.9563C55.9861 69.9353 56.0699 69.9144 56.1328 69.9144C56.2167 69.8934 56.2586 69.8934 56.3215 69.8934C56.4683 69.8934 56.5941 69.9144 56.72 69.9563C56.8458 69.9982 56.9506 70.0611 57.0345 70.145C57.1184 70.2289 57.1813 70.3128 57.2442 70.4176C57.2861 70.5225 57.3071 70.6482 57.3071 70.774V70.837C57.3071 70.9209 57.2861 71.0257 57.2861 71.1305C57.2651 71.2354 57.2651 71.3402 57.2232 71.4241C57.1813 71.5709 57.1184 71.7176 57.0554 71.8435C56.9925 71.9693 56.8877 72.0741 56.7829 72.158C56.657 72.2419 56.5312 72.3048 56.3425 72.3677C56.1748 72.4096 55.9651 72.4306 55.7344 72.4306C55.6506 72.4306 55.5247 72.4306 55.4199 72.4096C55.2941 72.3887 55.1683 72.3886 55.0425 72.3467C54.9167 72.3257 54.7699 72.2838 54.6231 72.2418C54.4763 72.1999 54.3295 72.137 54.2037 72.0531L54.7909 69.0757ZM55.6925 71.6967C55.8183 71.6967 55.9022 71.6757 55.9861 71.6548C56.0699 71.6338 56.1328 71.6128 56.1748 71.5709C56.2167 71.529 56.2586 71.487 56.2796 71.4451C56.3006 71.4031 56.3216 71.3612 56.3425 71.2983C56.3635 71.2354 56.3635 71.1725 56.3845 71.1096C56.3845 71.0467 56.3845 71.0047 56.3845 70.9837C56.3845 70.8789 56.3425 70.7951 56.2796 70.7532C56.2167 70.7112 56.1328 70.6902 56.028 70.6902C55.9232 70.6902 55.7973 70.7112 55.6715 70.7532C55.5248 70.7951 55.3989 70.858 55.2522 70.9209L55.1054 71.5709C55.2102 71.6128 55.3151 71.6338 55.4199 71.6548C55.5457 71.6757 55.6296 71.6967 55.6925 71.6967ZM57.4329 72.3887L58.0619 69.0547H58.9007L58.2507 72.3887H57.4329Z" fill="#4FAD32"/>
<path d="M61.0814 72.326C60.8717 72.3889 60.641 72.4099 60.3894 72.4099C60.2217 72.4099 60.0539 72.3888 59.9071 72.3469C59.7604 72.305 59.6345 72.2211 59.5297 72.1372C59.4249 72.0534 59.341 71.9276 59.2781 71.8018C59.2152 71.676 59.1942 71.5082 59.1942 71.3405C59.1942 71.2985 59.1942 71.2566 59.1942 71.2146C59.1942 71.1727 59.2152 71.1308 59.2152 71.0679L59.362 70.2082C59.4458 69.8098 59.6136 69.4952 59.8862 69.3065C60.1588 69.1178 60.4943 69.0129 60.8717 69.0129C60.9765 69.0129 61.0814 69.013 61.1862 69.0339C61.2911 69.0549 61.3959 69.0758 61.5008 69.1178C61.6056 69.1597 61.7104 69.2017 61.7943 69.2646C61.8782 69.3275 61.9621 69.4113 62.0459 69.5162L61.5427 70.1243C61.4169 69.9776 61.312 69.8936 61.1653 69.8517C61.0394 69.8097 60.9346 69.7888 60.8507 69.7888C60.683 69.7888 60.5362 69.8307 60.4104 69.9355C60.3055 70.0194 60.2217 70.1662 60.1797 70.3759L60.0539 71.0469C60.0539 71.0679 60.0539 71.0888 60.0539 71.1098C60.0539 71.1308 60.0539 71.1518 60.0539 71.1728C60.0539 71.3405 60.1168 71.4453 60.2217 71.5082C60.3265 71.5711 60.4523 71.613 60.5781 71.613C60.662 71.613 60.7878 71.5921 60.9136 71.5501C61.0394 71.5082 61.1862 71.4243 61.312 71.2985L61.7943 71.9485C61.5217 72.1582 61.2911 72.2841 61.0814 72.326Z" fill="#4FAD32"/>
<path d="M65.1074 71.2146C65.0235 71.634 64.8558 71.9276 64.5832 72.1163C64.3106 72.305 63.9541 72.4099 63.5138 72.4099C63.346 72.4099 63.1783 72.3889 63.0315 72.326C62.8847 72.2841 62.738 72.2002 62.6121 72.0953C62.4863 71.9905 62.4025 71.8646 62.3186 71.7178C62.2557 71.5711 62.2137 71.4033 62.2137 71.1936C62.2137 71.1517 62.2137 71.0889 62.2137 71.0469C62.2137 71.005 62.2347 70.942 62.2347 70.9001L62.3605 70.2082C62.4444 69.7888 62.6121 69.4953 62.8638 69.2856C63.1364 69.0759 63.4719 68.9919 63.8912 68.9919C64.1009 68.9919 64.2687 69.013 64.4364 69.0759C64.6042 69.1388 64.7509 69.2226 64.8558 69.3275C64.9816 69.4323 65.0655 69.5582 65.1284 69.705C65.1913 69.8517 65.2332 70.0194 65.2332 70.1872C65.2332 70.292 65.2332 70.3969 65.2122 70.4807L65.1074 71.2146ZM64.3945 70.5017C64.4154 70.4388 64.4154 70.3969 64.4154 70.334C64.4154 70.1663 64.3525 70.0194 64.2477 69.9355C64.1428 69.8517 64.017 69.8098 63.8702 69.8098C63.7235 69.8098 63.5767 69.8517 63.4719 69.9355C63.367 70.0194 63.2831 70.1662 63.2412 70.3969L63.1154 71.0049C63.0944 71.0678 63.0944 71.1308 63.0944 71.1728C63.0944 71.2566 63.1154 71.3404 63.1364 71.4033C63.1783 71.4662 63.2202 71.5082 63.2622 71.5501C63.3041 71.5921 63.367 71.613 63.4299 71.634C63.4928 71.655 63.5557 71.655 63.6186 71.655C63.7864 71.655 63.9332 71.613 64.038 71.5292C64.1428 71.4453 64.2267 71.2986 64.2687 71.0679L64.3945 70.5017Z" fill="#4FAD32"/>
<path d="M68.9445 69.0547L68.5042 70.0193C68.4203 70.187 68.3365 70.3128 68.2316 70.4176C68.1268 70.5225 68.0219 70.6064 67.8752 70.6483C68.0219 70.7112 68.1268 70.7741 68.1687 70.8999C68.2106 71.0047 68.2526 71.1515 68.2736 71.3192L68.4413 72.3887H67.5606L67.4558 71.4871C67.4348 71.2774 67.3719 71.1515 67.288 71.1096C67.1832 71.0467 67.0574 71.0257 66.9106 71.0257H66.5751L66.3235 72.3887H65.4847L66.0928 69.0547H66.9316L66.7009 70.2498H67.0154C67.1622 70.2498 67.2671 70.2289 67.3719 70.166C67.4767 70.1031 67.5606 69.9983 67.6655 69.8096L68.0219 69.0547H68.9445Z" fill="#4FAD32"/>
<path d="M72.0479 71.2146C71.9641 71.634 71.7963 71.9276 71.5237 72.1163C71.2511 72.305 70.8947 72.4099 70.4543 72.4099C70.2866 72.4099 70.1189 72.3889 69.9721 72.326C69.8253 72.2841 69.6785 72.2002 69.5527 72.0953C69.4269 71.9905 69.343 71.8646 69.2591 71.7178C69.1962 71.5711 69.1543 71.4033 69.1543 71.1936C69.1543 71.1517 69.1543 71.0889 69.1543 71.0469C69.1543 71.005 69.1753 70.942 69.1753 70.9001L69.3011 70.2082C69.385 69.7888 69.5527 69.4953 69.8043 69.2856C70.0769 69.0759 70.4124 68.9919 70.8318 68.9919C71.0415 68.9919 71.2092 69.013 71.377 69.0759C71.5447 69.1388 71.6915 69.2226 71.7963 69.3275C71.9221 69.4323 72.006 69.5582 72.0689 69.705C72.1318 69.8517 72.1738 70.0194 72.1738 70.1872C72.1738 70.292 72.1738 70.3969 72.1528 70.4807L72.0479 71.2146ZM71.335 70.5017C71.356 70.4388 71.356 70.3969 71.356 70.334C71.356 70.1663 71.2931 70.0194 71.1882 69.9355C71.0834 69.8517 70.9576 69.8098 70.8108 69.8098C70.664 69.8098 70.5172 69.8517 70.4124 69.9355C70.3076 70.0194 70.2237 70.1662 70.1818 70.3969L70.0559 71.0049C70.035 71.0678 70.035 71.1308 70.035 71.1728C70.035 71.2566 70.0559 71.3404 70.0769 71.4033C70.1189 71.4662 70.1608 71.5082 70.2027 71.5501C70.2447 71.5921 70.3076 71.613 70.3705 71.634C70.4334 71.655 70.4963 71.655 70.5592 71.655C70.7269 71.655 70.8737 71.613 70.9786 71.5292C71.0834 71.4453 71.1673 71.2986 71.2092 71.0679L71.335 70.5017Z" fill="#4FAD32"/>
<path d="M74.2705 69.0338C74.4383 69.0338 74.5851 69.0547 74.7318 69.0967C74.8786 69.1386 75.0044 69.2016 75.1093 69.2645C75.2141 69.3274 75.298 69.4322 75.3609 69.537C75.4238 69.6419 75.4448 69.7678 75.4448 69.9145C75.4448 70.0613 75.4238 70.2081 75.3609 70.3129C75.319 70.4178 75.2351 70.5226 75.1722 70.5855C75.0883 70.6693 75.0044 70.7322 74.8996 70.7742C74.7948 70.8161 74.6899 70.879 74.5641 70.9C74.4593 70.9419 74.3335 70.9629 74.2286 70.9838C74.1238 71.0048 73.998 71.0258 73.9141 71.0468C73.7883 71.0678 73.6834 71.1097 73.5786 71.1517C73.4737 71.1936 73.4318 71.2775 73.4318 71.3823C73.4318 71.4662 73.4737 71.5291 73.5576 71.571C73.6415 71.613 73.7673 71.6339 73.9141 71.6339C74.0818 71.6339 74.2496 71.6129 74.3964 71.55C74.5431 71.5081 74.7109 71.4242 74.8786 71.2984C74.9415 71.4032 75.0044 71.5081 75.0673 71.6129C75.1303 71.7177 75.1932 71.8226 75.2561 71.9274C75.1302 72.0113 74.9835 72.0952 74.8577 72.1371C74.7319 72.2 74.606 72.242 74.4802 72.2629C74.3544 72.2839 74.2286 72.3259 74.1238 72.3259C73.998 72.3469 73.8931 72.3468 73.7673 72.3468C73.5996 72.3468 73.4318 72.3259 73.285 72.2839C73.1382 72.242 73.0124 72.2001 72.8866 72.1162C72.7818 72.0323 72.6979 71.9484 72.635 71.8436C72.5721 71.7387 72.5302 71.613 72.5302 71.4662C72.5302 71.2355 72.5721 71.0468 72.6769 70.9C72.7818 70.7532 72.9076 70.6483 73.0544 70.5645C73.2011 70.4806 73.3689 70.4177 73.5367 70.3758C73.7044 70.3338 73.8721 70.2919 74.0189 70.2709C74.1657 70.229 74.2915 70.187 74.3964 70.1451C74.5012 70.1032 74.5431 70.0193 74.5431 69.9354C74.5431 69.8725 74.5012 69.8096 74.4383 69.7677C74.3754 69.7258 74.2705 69.7048 74.1447 69.7048C73.9979 69.7048 73.8512 69.7258 73.7044 69.7677C73.5576 69.8096 73.3899 69.8935 73.2011 69.9984L72.8657 69.3693C72.9915 69.2855 73.1173 69.2225 73.2221 69.1596C73.327 69.0967 73.4528 69.0548 73.5576 69.0338C73.6625 69.0128 73.7883 68.9919 73.8931 68.9709C74.0399 69.0339 74.1447 69.0338 74.2705 69.0338Z" fill="#4FAD32"/>
<path d="M78.7159 71.2146C78.632 71.634 78.4643 71.9276 78.1917 72.1163C77.9191 72.305 77.5627 72.4099 77.1223 72.4099C76.9546 72.4099 76.7868 72.3889 76.64 72.326C76.4933 72.2841 76.3465 72.2002 76.2207 72.0953C76.0949 71.9905 76.011 71.8646 75.9271 71.7178C75.8642 71.5711 75.8223 71.4033 75.8223 71.1936C75.8223 71.1517 75.8223 71.0889 75.8223 71.0469C75.8223 71.005 75.8432 70.942 75.8432 70.9001L75.969 70.2082C76.0529 69.7888 76.2207 69.4953 76.4723 69.2856C76.7449 69.0759 77.0804 68.9919 77.4997 68.9919C77.7094 68.9919 77.8772 69.013 78.0449 69.0759C78.2127 69.1388 78.3595 69.2226 78.4643 69.3275C78.5901 69.4323 78.674 69.5582 78.7369 69.705C78.7998 69.8517 78.8417 70.0194 78.8417 70.1872C78.8417 70.292 78.8417 70.3969 78.8208 70.4807L78.7159 71.2146ZM78.003 70.5017C78.024 70.4388 78.024 70.3969 78.024 70.334C78.024 70.1663 77.9611 70.0194 77.8562 69.9355C77.7514 69.8517 77.6256 69.8098 77.4788 69.8098C77.332 69.8098 77.1852 69.8517 77.0804 69.9355C76.9755 70.0194 76.8917 70.1662 76.8497 70.3969L76.7239 71.0049C76.7029 71.0678 76.7029 71.1308 76.7029 71.1728C76.7029 71.2566 76.7239 71.3404 76.7449 71.4033C76.7868 71.4662 76.8288 71.5082 76.8707 71.5501C76.9126 71.5921 76.9755 71.613 77.0384 71.634C77.1013 71.655 77.1643 71.655 77.2272 71.655C77.3949 71.655 77.5417 71.613 77.6465 71.5292C77.7514 71.4453 77.8352 71.2986 77.8772 71.0679L78.003 70.5017Z" fill="#4FAD32"/>
<path d="M84.2516 69.0547L83.8112 70.0193C83.7273 70.187 83.6435 70.3128 83.5386 70.4176C83.4338 70.5225 83.3289 70.6064 83.1822 70.6483C83.3289 70.7112 83.4338 70.7741 83.4757 70.8999C83.5177 71.0047 83.5596 71.1515 83.5806 71.3192L83.7483 72.3887H82.8676L82.7628 71.4871C82.7418 71.2774 82.6789 71.1515 82.595 71.1096C82.4902 71.0467 82.3644 71.0257 82.2176 71.0257H81.8821L81.6305 72.3887H80.7917L81.3998 69.0547H82.2386L82.0079 70.2498H82.3224C82.4692 70.2498 82.5741 70.2289 82.6789 70.166C82.7838 70.1031 82.8676 69.9983 82.9725 69.8096L83.3289 69.0547H84.2516Z" fill="#4FAD32"/>
<path d="M84.608 70.2292C84.7757 69.4114 85.2161 69.0129 85.929 69.0129C86.0548 69.0129 86.1806 69.034 86.3484 69.0759C86.5161 69.1178 86.6839 69.2016 86.8516 69.3065L86.9774 69.0549H87.7533L87.1032 72.3679H86.3064L86.2855 72.0954C86.0548 72.2212 85.8451 72.305 85.6774 72.3469C85.5096 72.3888 85.3838 72.4099 85.258 72.4099C84.9435 72.4099 84.7128 72.326 84.587 72.1792C84.4402 72.0324 84.3773 71.8227 84.3773 71.5501C84.3773 71.4872 84.3773 71.4244 84.3773 71.3824C84.3773 71.3195 84.3983 71.2565 84.3983 71.1936L84.608 70.2292ZM85.2999 71.0888C85.279 71.1517 85.279 71.2147 85.279 71.2566C85.279 71.3824 85.3209 71.4662 85.3838 71.5082C85.4467 71.5501 85.5306 71.5921 85.6354 71.5921C85.7403 71.5921 85.8661 71.5711 86.0129 71.5082C86.1597 71.4453 86.3064 71.3824 86.4742 71.2985L86.7048 70.0614C86.621 69.9985 86.5161 69.9356 86.3693 69.8937C86.2225 69.8517 86.0967 69.8098 85.9919 69.8098C85.8661 69.8098 85.7612 69.8517 85.6774 69.9355C85.5725 70.0194 85.5096 70.1453 85.4677 70.334L85.2999 71.0888Z" fill="#4FAD32"/>
<path d="M89.0534 69.0549L88.8647 70.0404C88.8647 70.0613 88.8647 70.0824 88.8647 70.1033C88.8647 70.1243 88.8647 70.1452 88.8647 70.1662C88.8647 70.292 88.9066 70.3969 88.9905 70.4389C89.0743 70.5018 89.2001 70.5227 89.3469 70.5227C89.4518 70.5227 89.5566 70.5017 89.6824 70.4597C89.8082 70.4178 89.934 70.3759 90.0389 70.313L90.2905 69.0129H91.1293L90.4792 72.3469H89.6405L89.8921 71.0259C89.7244 71.1098 89.5566 71.1517 89.4098 71.1936C89.2631 71.2356 89.1163 71.2356 88.9905 71.2356C88.6759 71.2356 88.4453 71.1727 88.2566 71.0259C88.0678 70.9001 87.963 70.6695 87.963 70.3969C87.963 70.292 87.963 70.2082 87.984 70.1243L88.2146 69.0339H89.0534V69.0549Z" fill="#4FAD32"/>
<path d="M93.0582 69.0129C93.2889 69.0129 93.4776 69.0339 93.6244 69.0968C93.7712 69.1597 93.897 69.2226 94.0018 69.3065C94.1067 69.3904 94.1696 69.4953 94.2115 69.6001C94.2534 69.705 94.2744 69.8307 94.2744 69.9355C94.2744 70.1243 94.2325 70.2921 94.1486 70.4389C94.0647 70.5856 93.9389 70.6904 93.7712 70.7953C93.6034 70.8791 93.4147 70.963 93.205 71.0049C92.9953 71.0469 92.7437 71.0888 92.4711 71.0888C92.4292 71.0888 92.3663 71.0888 92.3243 71.0888C92.2824 71.0888 92.2405 71.0888 92.1776 71.0888C92.1566 71.1517 92.1566 71.1937 92.1566 71.2356C92.1566 71.4034 92.2195 71.5292 92.3243 71.5921C92.4292 71.655 92.555 71.697 92.7227 71.697C92.8276 71.697 92.9324 71.6759 93.0792 71.634C93.205 71.5921 93.3518 71.5083 93.4776 71.3824C93.4986 71.4034 93.5195 71.4453 93.5615 71.5082C93.6034 71.5711 93.6454 71.634 93.6873 71.7179C93.7292 71.7808 93.7712 71.8647 93.8131 71.9067C93.855 71.9696 93.876 72.0114 93.897 72.0324C93.6454 72.2211 93.4147 72.326 93.1631 72.3679C92.9324 72.4098 92.7018 72.4309 92.5131 72.4309C92.3453 72.4309 92.1776 72.4098 92.0308 72.3679C91.884 72.326 91.7582 72.2631 91.6533 72.1792C91.5485 72.0953 91.4646 71.9695 91.4017 71.8437C91.3388 71.6969 91.2969 71.5501 91.2969 71.3405C91.2969 71.0679 91.3178 70.7743 91.3808 70.5017C91.4437 70.2291 91.5485 69.9775 91.6743 69.7678C91.8211 69.5581 91.9888 69.3694 92.2195 69.2436C92.4501 69.0759 92.7227 69.0129 93.0582 69.0129ZM93.0163 69.7678C92.8276 69.7678 92.6598 69.8307 92.555 69.9355C92.4501 70.0613 92.3663 70.2082 92.3034 70.4179C92.3453 70.4179 92.3872 70.4179 92.4292 70.4179C92.4711 70.4179 92.513 70.4179 92.555 70.4179C92.7227 70.4179 92.8485 70.3969 92.9534 70.3759C93.0582 70.3549 93.1421 70.313 93.205 70.292C93.2679 70.2501 93.3099 70.2081 93.3308 70.1662C93.3518 70.1243 93.3728 70.0823 93.3728 70.0404C93.3728 69.9565 93.3518 69.8936 93.3099 69.8517C93.247 69.8097 93.1631 69.7678 93.0163 69.7678Z" fill="#4FAD32"/>
<path d="M96.5811 72.326C96.3715 72.3889 96.1408 72.4099 95.8892 72.4099C95.7214 72.4099 95.5537 72.3888 95.4069 72.3469C95.2601 72.305 95.1343 72.2211 95.0295 72.1372C94.9246 72.0534 94.8408 71.9276 94.7778 71.8018C94.7149 71.676 94.694 71.5082 94.694 71.3405C94.694 71.2985 94.694 71.2566 94.694 71.2146C94.694 71.1727 94.7149 71.1308 94.7149 71.0679L94.8617 70.2082C94.9456 69.8098 95.1133 69.4952 95.3859 69.3065C95.6585 69.1178 95.994 69.0129 96.3715 69.0129C96.4763 69.0129 96.5811 69.013 96.686 69.0339C96.7908 69.0549 96.8957 69.0758 97.0005 69.1178C97.1053 69.1597 97.2102 69.2017 97.2941 69.2646C97.3779 69.3275 97.4618 69.4113 97.5457 69.5162L97.0424 70.1243C96.9166 69.9776 96.8118 69.8936 96.665 69.8517C96.5392 69.8097 96.4344 69.7888 96.3505 69.7888C96.1827 69.7888 96.036 69.8307 95.9101 69.9355C95.8053 70.0194 95.7214 70.1662 95.6795 70.3759L95.5537 71.0469C95.5537 71.0679 95.5537 71.0888 95.5537 71.1098C95.5537 71.1308 95.5537 71.1518 95.5537 71.1728C95.5537 71.3405 95.6166 71.4453 95.7214 71.5082C95.8263 71.5711 95.9521 71.613 96.0779 71.613C96.1618 71.613 96.2876 71.5921 96.4134 71.5501C96.5392 71.5082 96.686 71.4243 96.8118 71.2985L97.2941 71.9485C97.0215 72.1582 96.8118 72.2841 96.5811 72.326Z" fill="#4FAD32"/>
<path d="M101.32 72.3888L101.718 70.3339C101.718 70.3129 101.739 70.2919 101.739 70.2499C101.739 70.208 101.739 70.208 101.739 70.1871C101.739 70.0613 101.718 69.9774 101.655 69.9145C101.593 69.8516 101.509 69.8306 101.425 69.8306C101.32 69.8306 101.215 69.8516 101.11 69.8935C101.005 69.9355 100.859 69.9984 100.691 70.1032C100.691 70.1661 100.67 70.229 100.67 70.2919C100.649 70.3548 100.649 70.4177 100.649 70.4806C100.586 70.7951 100.523 71.1097 100.46 71.4242C100.397 71.7387 100.334 72.0533 100.272 72.3678H99.4118C99.4747 72.0323 99.5376 71.6968 99.6005 71.3403C99.6634 71.0049 99.7263 70.6694 99.8102 70.3129C99.8102 70.2919 99.8312 70.25 99.8312 70.2291C99.8312 70.2081 99.8312 70.187 99.8312 70.1451C99.8312 70.0403 99.8102 69.9564 99.7473 69.8935C99.7054 69.8306 99.6215 69.8097 99.5166 69.8097C99.4328 69.8097 99.3279 69.8306 99.2231 69.8726C99.1182 69.9145 98.9715 69.9984 98.7827 70.1032C98.6989 70.4807 98.636 70.8581 98.5731 71.2145C98.5101 71.5919 98.4263 71.9485 98.3634 72.3259H97.5037L98.1537 69.0128H98.9295C98.9295 69.0548 98.9295 69.1177 98.9295 69.1596C98.9295 69.2016 98.9295 69.2644 98.9295 69.3064C99.0553 69.2225 99.1811 69.1596 99.265 69.1177C99.3489 69.0757 99.4328 69.0338 99.5166 69.0128C99.6005 68.9919 99.6634 68.9709 99.7054 68.9709C99.7683 68.9709 99.8312 68.9709 99.8731 68.9709C100.062 68.9709 100.23 69.0129 100.334 69.0758C100.46 69.1597 100.544 69.2435 100.607 69.3903C100.754 69.3064 100.88 69.2226 101.005 69.1806C101.131 69.1177 101.236 69.0758 101.32 69.0548C101.404 69.0338 101.488 69.0128 101.572 68.9918C101.634 68.9918 101.697 68.9709 101.76 68.9709C102.075 68.9709 102.284 69.0548 102.431 69.2225C102.557 69.3903 102.62 69.5999 102.62 69.8516C102.62 69.9774 102.599 70.1032 102.578 70.2291C102.515 70.5855 102.452 70.9419 102.368 71.2984C102.305 71.6548 102.222 72.0113 102.159 72.3468H101.32V72.3888Z" fill="#4FAD32"/>
<path d="M104.738 69.0129C104.969 69.0129 105.157 69.0339 105.325 69.0968C105.472 69.1387 105.598 69.2227 105.681 69.2856C105.765 69.3695 105.828 69.4533 105.87 69.5581C105.912 69.663 105.933 69.7468 105.933 69.8517C105.933 69.9775 105.891 70.1034 105.828 70.2292C105.765 70.376 105.639 70.4598 105.451 70.5227C105.619 70.5856 105.744 70.6695 105.807 70.7953C105.891 70.9211 105.933 71.0469 105.933 71.1728C105.933 71.3195 105.912 71.4662 105.87 71.613C105.828 71.7598 105.744 71.9066 105.619 72.0324C105.493 72.1582 105.346 72.2631 105.136 72.326C104.927 72.4099 104.675 72.4518 104.36 72.4518C104.046 72.4518 103.773 72.4099 103.522 72.326C103.27 72.2422 103.039 72.1582 102.83 72.0324L103.165 70.2711C103.186 70.1243 103.249 69.9566 103.312 69.8098C103.375 69.663 103.48 69.5162 103.585 69.3904C103.71 69.2646 103.857 69.1807 104.046 69.0968C104.235 69.0549 104.465 69.0129 104.738 69.0129ZM104.675 69.7678C104.549 69.7678 104.465 69.7888 104.381 69.8307C104.298 69.8726 104.235 69.9146 104.193 69.9775C104.151 70.0404 104.109 70.1033 104.067 70.1662C104.046 70.2291 104.025 70.292 104.004 70.3549L103.773 71.5501C103.836 71.5921 103.941 71.613 104.046 71.634C104.172 71.655 104.277 71.676 104.381 71.676C104.528 71.676 104.633 71.655 104.717 71.634C104.801 71.5921 104.864 71.5501 104.906 71.5082C104.948 71.4662 104.989 71.4034 104.989 71.3615C105.01 71.3195 105.01 71.2776 105.01 71.2356C105.01 71.1517 104.989 71.0679 104.927 71.0259C104.864 70.963 104.738 70.9421 104.57 70.9421H104.339L104.423 70.3549H104.675C104.801 70.3549 104.885 70.334 104.948 70.2711C105.01 70.2081 105.031 70.1452 105.031 70.0614C105.031 69.9775 105.01 69.9146 104.948 69.8517C104.906 69.7888 104.822 69.7678 104.675 69.7678Z" fill="#4FAD32"/>
<path d="M106.562 70.2292C106.73 69.4114 107.17 69.0129 107.883 69.0129C108.009 69.0129 108.135 69.034 108.302 69.0759C108.47 69.1178 108.638 69.2016 108.806 69.3065L108.932 69.0549H109.707L109.057 72.3679H108.261L108.24 72.0954C108.009 72.2212 107.799 72.305 107.631 72.3469C107.464 72.3888 107.338 72.4099 107.212 72.4099C106.898 72.4099 106.667 72.326 106.541 72.1792C106.394 72.0324 106.331 71.8227 106.331 71.5501C106.331 71.4872 106.331 71.4244 106.331 71.3824C106.331 71.3195 106.352 71.2565 106.352 71.1936L106.562 70.2292ZM107.254 71.0888C107.233 71.1517 107.233 71.2147 107.233 71.2566C107.233 71.3824 107.275 71.4662 107.338 71.5082C107.401 71.5501 107.485 71.5921 107.59 71.5921C107.694 71.5921 107.82 71.5711 107.967 71.5082C108.114 71.4453 108.261 71.3824 108.428 71.2985L108.659 70.0614C108.575 69.9985 108.47 69.9356 108.323 69.8937C108.177 69.8517 108.051 69.8098 107.946 69.8098C107.82 69.8098 107.715 69.8517 107.631 69.9355C107.527 70.0194 107.464 70.1453 107.422 70.334L107.254 71.0888Z" fill="#4FAD32"/>
</svg>
