<svg width="41" height="41" viewBox="0 0 41 41" fill="none" xmlns="http://www.w3.org/2000/svg">
<g filter="url(#filter0_d_166_28164)">
<path d="M18.2143 28.1326C20.1928 32.8722 24.7693 32.0454 26.5 30C22.2067 35.0739 10.8998 28.818 5.39921 24.7956C5.14514 24.6098 5 24.3148 5 24V21.5325C5 20.8105 5.74183 20.3264 6.40274 20.6172L15.0007 24.4003C16.5583 25.0857 17.5587 26.5622 18.2143 28.1326Z" fill="white"/>
<path d="M11 18L17 2L35 5.5L26.5 30M26.5 30C24.7693 32.0454 20.1928 32.8722 18.2143 28.1326C17.5587 26.5622 16.5583 25.0857 15.0007 24.4003L6.40274 20.6172C5.74183 20.3264 5 20.8105 5 21.5325V24C5 24.3148 5.14514 24.6098 5.39921 24.7956C10.8998 28.818 22.2067 35.0739 26.5 30Z" stroke="white" stroke-width="2"/>
</g>
<g filter="url(#filter1_d_166_28164)">
<path d="M22 9L28 10.5" stroke="white" stroke-width="2" stroke-linecap="round"/>
</g>
<g filter="url(#filter2_d_166_28164)">
<path d="M20 14L26 15.5" stroke="white" stroke-width="2" stroke-linecap="round"/>
</g>
<g filter="url(#filter3_d_166_28164)">
<path d="M18 19L24 20.5" stroke="white" stroke-width="2" stroke-linecap="round"/>
</g>
<g filter="url(#filter4_d_166_28164)">
<path d="M18.5 8L20 8.5M16 13L17.5 13.5M14 17.5L15.5 18" stroke="white" stroke-width="2"/>
</g>
<defs>
<filter id="filter0_d_166_28164" x="0" y="0.856934" width="40.3228" height="40.0422" filterUnits="userSpaceOnUse" color-interpolation-filters="sRGB">
<feFlood flood-opacity="0" result="BackgroundImageFix"/>
<feColorMatrix in="SourceAlpha" type="matrix" values="0 0 0 0 0 0 0 0 0 0 0 0 0 0 0 0 0 0 127 0" result="hardAlpha"/>
<feOffset dy="4"/>
<feGaussianBlur stdDeviation="2"/>
<feComposite in2="hardAlpha" operator="out"/>
<feColorMatrix type="matrix" values="0 0 0 0 0 0 0 0 0 0 0 0 0 0 0 0 0 0 0.25 0"/>
<feBlend mode="normal" in2="BackgroundImageFix" result="effect1_dropShadow_166_28164"/>
<feBlend mode="normal" in="SourceGraphic" in2="effect1_dropShadow_166_28164" result="shape"/>
</filter>
<filter id="filter1_d_166_28164" x="16.9998" y="7.99976" width="16.0005" height="11.5005" filterUnits="userSpaceOnUse" color-interpolation-filters="sRGB">
<feFlood flood-opacity="0" result="BackgroundImageFix"/>
<feColorMatrix in="SourceAlpha" type="matrix" values="0 0 0 0 0 0 0 0 0 0 0 0 0 0 0 0 0 0 127 0" result="hardAlpha"/>
<feOffset dy="4"/>
<feGaussianBlur stdDeviation="2"/>
<feComposite in2="hardAlpha" operator="out"/>
<feColorMatrix type="matrix" values="0 0 0 0 0 0 0 0 0 0 0 0 0 0 0 0 0 0 0.25 0"/>
<feBlend mode="normal" in2="BackgroundImageFix" result="effect1_dropShadow_166_28164"/>
<feBlend mode="normal" in="SourceGraphic" in2="effect1_dropShadow_166_28164" result="shape"/>
</filter>
<filter id="filter2_d_166_28164" x="14.9998" y="12.9998" width="16.0005" height="11.5005" filterUnits="userSpaceOnUse" color-interpolation-filters="sRGB">
<feFlood flood-opacity="0" result="BackgroundImageFix"/>
<feColorMatrix in="SourceAlpha" type="matrix" values="0 0 0 0 0 0 0 0 0 0 0 0 0 0 0 0 0 0 127 0" result="hardAlpha"/>
<feOffset dy="4"/>
<feGaussianBlur stdDeviation="2"/>
<feComposite in2="hardAlpha" operator="out"/>
<feColorMatrix type="matrix" values="0 0 0 0 0 0 0 0 0 0 0 0 0 0 0 0 0 0 0.25 0"/>
<feBlend mode="normal" in2="BackgroundImageFix" result="effect1_dropShadow_166_28164"/>
<feBlend mode="normal" in="SourceGraphic" in2="effect1_dropShadow_166_28164" result="shape"/>
</filter>
<filter id="filter3_d_166_28164" x="12.9998" y="17.9998" width="16.0005" height="11.5005" filterUnits="userSpaceOnUse" color-interpolation-filters="sRGB">
<feFlood flood-opacity="0" result="BackgroundImageFix"/>
<feColorMatrix in="SourceAlpha" type="matrix" values="0 0 0 0 0 0 0 0 0 0 0 0 0 0 0 0 0 0 127 0" result="hardAlpha"/>
<feOffset dy="4"/>
<feGaussianBlur stdDeviation="2"/>
<feComposite in2="hardAlpha" operator="out"/>
<feColorMatrix type="matrix" values="0 0 0 0 0 0 0 0 0 0 0 0 0 0 0 0 0 0 0.25 0"/>
<feBlend mode="normal" in2="BackgroundImageFix" result="effect1_dropShadow_166_28164"/>
<feBlend mode="normal" in="SourceGraphic" in2="effect1_dropShadow_166_28164" result="shape"/>
</filter>
<filter id="filter4_d_166_28164" x="9.68384" y="7.05127" width="14.6323" height="19.8975" filterUnits="userSpaceOnUse" color-interpolation-filters="sRGB">
<feFlood flood-opacity="0" result="BackgroundImageFix"/>
<feColorMatrix in="SourceAlpha" type="matrix" values="0 0 0 0 0 0 0 0 0 0 0 0 0 0 0 0 0 0 127 0" result="hardAlpha"/>
<feOffset dy="4"/>
<feGaussianBlur stdDeviation="2"/>
<feComposite in2="hardAlpha" operator="out"/>
<feColorMatrix type="matrix" values="0 0 0 0 0 0 0 0 0 0 0 0 0 0 0 0 0 0 0.25 0"/>
<feBlend mode="normal" in2="BackgroundImageFix" result="effect1_dropShadow_166_28164"/>
<feBlend mode="normal" in="SourceGraphic" in2="effect1_dropShadow_166_28164" result="shape"/>
</filter>
</defs>
</svg>
