<svg width="37" height="37" viewBox="0 0 37 37" fill="none" xmlns="http://www.w3.org/2000/svg">
<g id="Group 3884">
<g id="Group 3786">
<ellipse id="Ellipse 31" cx="18.0215" cy="18.034" rx="18.0215" ry="18.034" fill="#50AC32"/>
</g>
<path id="Vector" d="M12.4514 29.0543C12.3741 28.9725 12.3127 28.8753 12.2709 28.7682C12.229 28.6611 12.2075 28.5464 12.2075 28.4305C12.2075 28.3146 12.229 28.1998 12.2709 28.0927C12.3127 27.9857 12.3741 27.8884 12.4514 27.8066L21.8285 17.8562L12.4514 7.90577C12.2955 7.7403 12.2079 7.51589 12.2079 7.28189C12.2079 7.04788 12.2955 6.82347 12.4514 6.658C12.6073 6.49254 12.8188 6.39958 13.0392 6.39958C13.2597 6.39958 13.4712 6.49254 13.6271 6.658L23.5903 17.2323C23.6676 17.3141 23.729 17.4114 23.7708 17.5184C23.8127 17.6255 23.8342 17.7403 23.8342 17.8562C23.8342 17.9721 23.8127 18.0869 23.7708 18.1939C23.729 18.301 23.6676 18.3982 23.5903 18.4801L13.6271 29.0543C13.5499 29.1364 13.4583 29.2015 13.3575 29.2459C13.2566 29.2904 13.1484 29.3132 13.0392 29.3132C12.93 29.3132 12.8219 29.2904 12.721 29.2459C12.6202 29.2015 12.5285 29.1364 12.4514 29.0543Z" fill="white"/>
</g>
</svg>
