<svg width="24" height="23" viewBox="0 0 24 23" fill="none" xmlns="http://www.w3.org/2000/svg">
<path id="Vector" d="M23.5711 19.9169C23.0821 21.3382 21.1417 22.5168 19.594 22.8611C18.5352 23.093 17.1521 23.2783 12.4961 21.2913C6.54062 18.7514 2.70542 12.5217 2.4065 12.1177C2.12026 11.7134 0 8.81897 0 5.82543C0 2.83188 1.47683 1.37422 2.07213 0.748387C2.56103 0.234686 3.3691 0 4.14425 0C4.39504 0 4.62049 0.0130381 4.82314 0.0234686C5.41843 0.0495448 5.71735 0.0860517 6.10999 1.05348C6.59889 2.26602 7.78947 5.25957 7.93133 5.56727C8.07572 5.87497 8.22011 6.29219 8.01746 6.69637C7.82747 7.11359 7.66028 7.29873 7.36137 7.65337C7.06246 8.008 6.77874 8.2792 6.47983 8.65991C6.20625 8.99108 5.8972 9.34571 6.24171 9.9585C6.58622 10.5583 7.77681 12.5582 9.52976 14.1645C11.7919 16.2377 13.6259 16.9 14.2819 17.1817C14.7709 17.3903 15.3535 17.3406 15.7106 16.9495C16.1641 16.4463 16.7239 15.6119 17.2939 14.7904C17.6992 14.201 18.2109 14.128 18.748 14.3366C19.2951 14.5323 22.1904 16.0055 22.7858 16.3107C23.381 16.6184 23.7738 16.7644 23.9181 17.0225C24.0599 17.2807 24.0599 18.4932 23.5711 19.9169Z" fill="#4CAF50"/>
</svg>
