<svg width="29" height="29" viewBox="0 0 29 29" fill="none" xmlns="http://www.w3.org/2000/svg">
<g id="Clip path group">
<mask id="mask0_270_514" style="mask-type:luminance" maskUnits="userSpaceOnUse" x="0" y="0" width="29" height="29">
<g id="clip0">
<path id="Vector" d="M28.9799 0H0V29H28.9799V0Z" fill="white"/>
</g>
</mask>
<g mask="url(#mask0_270_514)">
<g id="Group">
<path id="Vector_2" d="M14.4898 28.9996C22.4923 28.9996 28.9796 22.5078 28.9796 14.4999C28.9796 6.4918 22.4923 0 14.4898 0C6.48729 0 0 6.4918 0 14.4999C0 22.5078 6.48729 28.9996 14.4898 28.9996Z" fill="#41B4E6"/>
<path id="Vector_3" d="M28.9815 14.4998C28.9815 14.1465 28.9681 13.7964 28.9433 13.4493L22.938 7.43994L6.04504 14.0895L12.5084 20.5574L12.5932 20.8628L19.7428 28.0175C25.1494 25.9127 28.9815 20.6543 28.9815 14.4998Z" fill="#0091C8"/>
<path id="Vector_4" d="M13.0844 16.6123L19.6327 21.5597L22.9381 7.43994L6.04504 14.0895L11.1854 15.7933L20.5667 9.49622L13.0844 16.6123Z" fill="white"/>
<path id="Vector_5" d="M11.1843 15.7929L12.5922 20.8625L13.0833 16.612L20.5656 9.49585L11.1843 15.7929Z" fill="#D2D2D7"/>
<path id="Vector_6" d="M15.2076 18.2179L12.5883 20.8605L13.0794 16.61L15.2076 18.2179Z" fill="#B9B9BE"/>
</g>
</g>
</g>
</svg>
