<svg xmlns="http://www.w3.org/2000/svg" width="38" height="53" viewBox="0 0 38 53" fill="none">
<path d="M37.3702 14.3074C35.1279 4.44171 26.5221 0 18.9627 0C18.9627 0 18.9627 0 18.9413 0C11.4032 0 2.77602 4.42035 0.533813 14.2861C-1.96465 25.3049 4.78333 34.6368 10.8907 40.5092C13.1542 42.6874 16.0372 52.19 18.9414 52.19C21.8456 52.19 24.7711 42.6874 27.0133 40.5092C33.1206 34.6368 39.8686 25.3263 37.3702 14.3074Z" fill="#125A2B"/>
<path d="M27.5665 15.6357L25.0158 17.2458L18.9014 12.3072L12.7508 17.2277L10.2001 15.6357C8.66247 16.8116 7.10674 17.9875 5.56909 19.1452C5.64145 19.8146 5.71381 20.4658 5.78617 21.1351C7.68562 21.5693 9.74787 22.1663 11.9548 22.9441C14.5779 23.8667 16.9115 24.9159 18.9195 25.929C20.9817 24.8978 23.3334 23.8667 25.9384 22.926C28.073 22.1482 30.0991 21.5511 31.9804 21.0627L32.1794 19.109L27.5665 15.6357ZM25.5223 21.2617C23.0982 22.13 20.8913 23.0707 18.9014 24.0114C16.803 23.0165 14.4693 22.0396 11.9187 21.1351C10.4172 20.6105 8.97 20.1583 7.57708 19.7603C8.48157 19.0729 9.38607 18.3855 10.3087 17.698L12.8955 19.3261L18.9195 14.478L24.9434 19.3261L27.5303 17.698L30.2619 19.7603C28.7242 20.1764 27.1504 20.6647 25.5223 21.2617Z" fill="#50AC32"/>
<path d="M25.1978 13.8451C25.1978 14.5506 25.0892 15.2381 24.8721 15.8893L18.9205 11.0774L12.9328 15.8712C12.7338 15.238 12.6252 14.5506 12.6252 13.827C12.6252 10.209 15.4292 7.29657 18.9025 7.29657C22.3757 7.31466 25.1978 10.2271 25.1978 13.8451Z" fill="#FADE52"/>
<path d="M5.49782 17.9696L7.16209 16.7033C7.19827 15.8893 7.48771 11.2763 11.3409 7.96583C12.1006 7.3146 12.8966 6.78997 13.6745 6.41008C16.9126 4.7639 20.7838 4.7639 24.0219 6.41008C24.9626 6.88042 25.9214 7.53168 26.844 8.41808C30.2449 11.6743 30.5162 15.7807 30.5524 16.6309C31.1132 17.0651 31.674 17.4993 32.2529 17.9334C32.289 17.0832 32.4337 11.0773 27.658 6.8081C26.645 5.9036 25.5958 5.23429 24.5827 4.74586C20.9647 2.97304 16.6774 2.95492 13.0594 4.70964C12.0102 5.21616 10.9248 5.90363 9.89367 6.84431C5.17219 11.1135 5.44355 17.1556 5.49782 17.9696Z" fill="#50AC32"/>
<path d="M25.2517 25.1875C22.9181 26.0378 20.7835 26.9422 18.8659 27.8648C17.075 27.0146 15.1213 26.1463 13.0229 25.3322C10.5265 24.3554 8.15668 23.5775 5.94971 22.9444C6.23915 24.0298 7.32454 27.7744 11.0149 30.506C14.2711 32.9119 17.6539 33.129 18.8659 33.1471C19.9694 33.1471 23.5693 32.9481 26.9521 30.3251C30.3531 27.6839 31.4204 24.2468 31.7098 23.1614C29.7018 23.6679 27.531 24.3373 25.2517 25.1875ZM14.85 30.6506C11.1958 29.2758 9.40489 26.4538 8.91646 25.6036C10.9064 26.2548 13.0591 27.0689 15.3203 28.0638C17.5635 29.0588 19.5895 30.0899 21.3804 31.121C20.3131 31.3381 17.7624 31.7541 14.85 30.6506ZM26.7712 28.2266C25.5773 29.3482 24.3834 30.0175 23.5331 30.4155C22.6105 29.8909 21.688 29.3663 20.7835 28.8416C22.1764 28.2085 23.6598 27.5754 25.2517 26.9784C26.4637 26.5262 27.6215 26.1101 28.7611 25.7483C28.327 26.4719 27.6938 27.3402 26.7712 28.2266Z" fill="#50AC32"/>
</svg>

