<svg width="29" height="28" viewBox="0 0 29 28" fill="none" xmlns="http://www.w3.org/2000/svg">
<g id="whatsapp.svg" clip-path="url(#clip0_259_159)">
<path id="Vector" d="M14.217 0H14.2099C6.37298 0 0 6.37475 0 14.2135C0 17.3227 1.00205 20.2045 2.70589 22.5445L0.934537 27.8248L6.39785 26.0782C8.64536 27.5671 11.3264 28.427 14.217 28.427C22.0539 28.427 28.427 22.0504 28.427 14.2135C28.427 6.37653 22.0539 0 14.217 0Z" fill="#4CAF50"/>
<path id="Vector_2" d="M22.4883 20.0713C22.1453 21.0396 20.7844 21.8427 19.6989 22.0772C18.9562 22.2353 17.9862 22.3615 14.7206 21.0077C10.5436 19.2772 7.85368 15.0326 7.64403 14.7573C7.44326 14.4818 5.95618 12.5097 5.95618 10.4701C5.95618 8.43046 6.99199 7.43729 7.40951 7.01089C7.75241 6.66088 8.31917 6.50098 8.86284 6.50098C9.03873 6.50098 9.19685 6.50986 9.33899 6.51697C9.75651 6.53473 9.96616 6.55961 10.2415 7.21876C10.5844 8.04492 11.4195 10.0846 11.519 10.2942C11.6203 10.5039 11.7215 10.7881 11.5794 11.0635C11.4461 11.3478 11.3289 11.4739 11.1192 11.7156C10.9096 11.9572 10.7106 12.142 10.5009 12.4014C10.3091 12.627 10.0923 12.8686 10.3339 13.2861C10.5756 13.6948 11.4106 15.0575 12.6401 16.1519C14.2267 17.5644 15.513 18.0157 15.9731 18.2076C16.3161 18.3497 16.7247 18.3159 16.9751 18.0494C17.2932 17.7066 17.6858 17.138 18.0856 16.5783C18.3699 16.1768 18.7288 16.127 19.1055 16.2692C19.4892 16.4025 21.5199 17.4062 21.9375 17.6142C22.355 17.8238 22.6304 17.9233 22.7316 18.0991C22.8311 18.2751 22.8311 19.1012 22.4883 20.0713Z" fill="#FAFAFA"/>
</g>
<defs>
<clipPath id="clip0_259_159">
<rect width="28.427" height="28.427" fill="white"/>
</clipPath>
</defs>
</svg>
